SplineFontDB: 3.0
FontName: NewsCycle
FullName: News Cycle
FamilyName: News Cycle
Weight: Regular
Copyright: Created by Nathan Willis,,, with FontForge 2.0 (http://fontforge.sf.net)
UComments: "2010-6-30: Created." 

StartChar: a
Encoding: 97 97 0
AltUni2: 000430.ffffffff.0 000430.ffffffff.0 000430.ffffffff.0 000430.ffffffff.0 000430.ffffffff.0 000430.ffffffff.0 000430.ffffffff.0 000430.ffffffff.0 000430.ffffffff.0 000430.ffffffff.0 000430.ffffffff.0 000430.ffffffff.0 000430.ffffffff.0 000430.ffffffff.0 000430.ffffffff.0 000430.ffffffff.0 000430.ffffffff.0 000430.ffffffff.0 000430.ffffffff.0 000430.ffffffff.0 000430.ffffffff.0
Width: 928
VWidth: 0
Flags: W
HStem: -11 112<254.045 527.353> 954 112<310.179 616.757>
VStem: 72 132<146.574 401.92> 681 132<2.60132 170 222.623 584 687.58 886.736>
DStem2: 357 611 456 524 0.967674 0.252204<-123.81 306.717>
LayerCount: 2
Fore
SplineSet
357 611 m 128,-1,1
 489 658 489 658 681 696 c 1,2,3
 681 854 681 854 623.5 904 c 128,-1,4
 566 954 566 954 452 954 c 128,-1,5
 338 954 338 954 246 858 c 0,6,7
 208 818 208 818 192 788 c 1,8,-1
 97 851 l 1,9,10
 209 1066 209 1066 478 1066 c 0,11,12
 719 1066 719 1066 786 881 c 0,13,14
 813 806 813 806 813 699 c 2,15,-1
 813 150 l 2,16,17
 813 121 813 121 824 71 c 128,-1,18
 835 21 835 21 844 2 c 1,19,-1
 711 2 l 1,20,21
 681 17 681 17 681 170 c 1,22,23
 540 -11 540 -11 361 -11 c 128,-1,24
 182 -11 182 -11 109 121 c 0,25,26
 72 188 72 188 72 259 c 3,27,28
 72 399 72 399 148.5 481.5 c 128,-1,0
 225 564 225 564 357 611 c 128,-1,1
229 374 m 0,29,30
 204 328 204 328 204 254 c 131,-1,31
 204 180 204 180 256 140.5 c 128,-1,32
 308 101 308 101 372 101 c 0,33,34
 482 101 482 101 563.5 162.5 c 128,-1,35
 645 224 645 224 681 267 c 1,36,-1
 681 584 l 1,37,38
 491 535 491 535 456 524 c 0,39,40
 280 467 280 467 229 374 c 0,29,30
EndSplineSet
EndChar

StartChar: d
Encoding: 100 100 1
Width: 984
VWidth: 0
Flags: W
HStem: -11 112<333.752 620.081> 954 112<347.897 626.913> 1495 20G<742 874>
VStem: 75 132<260.561 773.443> 742 132<0.600952 166 220.859 858.114 917 1515>
LayerCount: 2
Fore
SplineSet
742 166 m 1,0,1
 640 -11 640 -11 458 -11 c 0,2,3
 367 -11 367 -11 292 34.5 c 128,-1,4
 217 80 217 80 171 155 c 0,5,6
 75 312 75 312 75 510 c 3,7,8
 75 657 75 657 122.5 783 c 128,-1,9
 170 909 170 909 262 987.5 c 128,-1,10
 354 1066 354 1066 458.5 1066 c 128,-1,11
 563 1066 563 1066 643 1012 c 128,-1,12
 723 958 723 958 742 917 c 1,13,-1
 742 1515 l 1,14,-1
 874 1515 l 1,15,-1
 874 146 l 2,16,17
 874 116 874 116 882.5 67.5 c 128,-1,18
 891 19 891 19 900 0 c 1,19,-1
 767 0 l 1,20,21
 742 12 742 12 742 166 c 1,0,1
207 510 m 3,22,23
 207 333 207 333 272 217 c 128,-1,24
 337 101 337 101 479 101 c 0,25,26
 574 101 574 101 629 150 c 128,-1,27
 684 199 684 199 742 278 c 1,28,-1
 742 803 l 1,29,30
 636 954 636 954 505 954 c 0,31,32
 207 954 207 954 207 510 c 3,22,23
EndSplineSet
EndChar

StartChar: h
Encoding: 104 104 2
AltUni2: 0002b0.ffffffff.0 0002b0.ffffffff.0 0002b0.ffffffff.0 0002b0.ffffffff.0 0002b0.ffffffff.0 0002b0.ffffffff.0 0002b0.ffffffff.0 0002b0.ffffffff.0 0002b0.ffffffff.0 0002b0.ffffffff.0 0002b0.ffffffff.0 0002b0.ffffffff.0 0002b0.ffffffff.0 0002b0.ffffffff.0 0002b0.ffffffff.0 0002b0.ffffffff.0 0002b0.ffffffff.0 0002b0.ffffffff.0 0002b0.ffffffff.0 0002b0.ffffffff.0 0002b0.ffffffff.0
Width: 979
VWidth: 0
Flags: W
HStem: 0 21G<129 261 737 869> 954 112<435.952 680.183> 1495 20G<129 261>
VStem: 129 132<0 826.235 882 1515> 737 132<0 898.502>
LayerCount: 2
Back
SplineSet
160 1515 m 5,0,-1
 292 1515 l 1,1,-1
 292 865 l 1,2,-1
 252 842 l 1,3,4
 350.72 938.803 350.72 938.803 387.67 968.179 c 0
 510.714 1066 510.714 1066 637 1066 c 0,5,6
 752 1066 752 1066 826 996 c 0
 900 926 900 926 900 786 c 2,7,-1
 900 0 l 1,8,-1
 768 0 l 1,9,-1
 768 786 l 2,10,11
 768 861 768 861 714.5 907.5 c 0
 661 954 661 954 599 954 c 0,12,13
 451 954 451 954 292 781 c 1,14,-1
 292 0 l 1,15,-1
 160 0 l 1,16,-1
 160 1515 l 5,0,-1
EndSplineSet
Fore
SplineSet
129 0 m 5,0,-1
 129 1515 l 1,1,-1
 261 1515 l 1,2,-1
 261 882 l 1,3,4
 408 1024 408 1024 504 1052 c 0,5,6
 552 1066 552 1066 606 1066 c 0,7,8
 721 1066 721 1066 795 996 c 128,-1,9
 869 926 869 926 869 786 c 2,10,-1
 869 0 l 1,11,-1
 737 0 l 1,12,-1
 737 786 l 2,13,14
 737 861 737 861 683.5 907.5 c 128,-1,15
 630 954 630 954 568 954 c 0,16,17
 420 954 420 954 261 781 c 1,18,-1
 261 0 l 1,19,-1
 129 0 l 5,0,-1
EndSplineSet
EndChar

StartChar: e
Encoding: 101 101 3
AltUni2: 000435.ffffffff.0 000435.ffffffff.0 000435.ffffffff.0 000435.ffffffff.0 000435.ffffffff.0 000435.ffffffff.0 000435.ffffffff.0 000435.ffffffff.0 000435.ffffffff.0 000435.ffffffff.0 000435.ffffffff.0 000435.ffffffff.0 000435.ffffffff.0 000435.ffffffff.0 000435.ffffffff.0 000435.ffffffff.0 000435.ffffffff.0 000435.ffffffff.0 000435.ffffffff.0 000435.ffffffff.0 000435.ffffffff.0
Width: 925
VWidth: 0
Flags: W
HStem: -11 112<348.751 627.924> 513 112<213 709> 954 112<327.066 603.891>
VStem: 75 132<262.41 513 625 801.482> 709 132<625 824.25>
LayerCount: 2
Fore
SplineSet
100.5 311 m 128,-1,1
 75 401 75 401 75 500 c 135,-1,2
 75 599 75 599 89 680.5 c 128,-1,3
 103 762 103 762 126 819 c 128,-1,4
 149 876 149 876 182 920 c 0,5,6
 242 1000 242 1000 319.5 1033 c 128,-1,7
 397 1066 397 1066 461 1066 c 128,-1,8
 525 1066 525 1066 570 1054 c 0,9,10
 614 1044 614 1044 666 1008 c 0,11,12
 840 888 840 888 841 513 c 1,13,-1
 207 513 l 1,14,15
 206 248 206 248 342 150 c 0,16,17
 409 102 409 102 491 101 c 0,18,19
 645 101 645 101 753 292 c 1,20,-1
 844 229 l 1,21,22
 805 157 805 157 742 99 c 0,23,24
 622 -11 622 -11 505 -11 c 128,-1,25
 388 -11 388 -11 306 32 c 128,-1,26
 224 75 224 75 175 148 c 128,-1,0
 126 221 126 221 100.5 311 c 128,-1,1
213 625 m 5,27,-1
 709 625 l 1,28,29
 707 732 707 732 663 832 c 0,30,31
 639 886 639 886 590.5 920 c 128,-1,32
 542 954 542 954 476 954 c 128,-1,33
 410 954 410 954 362 930 c 0,34,35
 277 889 277 889 246 801.5 c 128,-1,36
 215 714 215 714 213 625 c 5,27,-1
EndSplineSet
EndChar

StartChar: s
Encoding: 115 115 4
AltUni2: 000455.ffffffff.0 0002e2.ffffffff.0 000455.ffffffff.0 0002e2.ffffffff.0 000455.ffffffff.0 0002e2.ffffffff.0 000455.ffffffff.0 0002e2.ffffffff.0 000455.ffffffff.0 0002e2.ffffffff.0 000455.ffffffff.0 0002e2.ffffffff.0 000455.ffffffff.0 0002e2.ffffffff.0 000455.ffffffff.0 0002e2.ffffffff.0 000455.ffffffff.0 0002e2.ffffffff.0 000455.ffffffff.0 0002e2.ffffffff.0 000455.ffffffff.0 0002e2.ffffffff.0 0002e2.ffffffff.0 000455.ffffffff.0 0002e2.ffffffff.0 000455.ffffffff.0 0002e2.ffffffff.0 000455.ffffffff.0 0002e2.ffffffff.0 000455.ffffffff.0 0002e2.ffffffff.0 000455.ffffffff.0 0002e2.ffffffff.0 000455.ffffffff.0 0002e2.ffffffff.0 000455.ffffffff.0 0002e2.ffffffff.0 000455.ffffffff.0 0002e2.ffffffff.0 000455.ffffffff.0 0002e2.ffffffff.0 000455.ffffffff.0
Width: 878
VWidth: 0
Flags: W
HStem: -11 112<290.755 603.581> 954 112<276.582 579.166>
VStem: 94 128<697.989 900.429> 666 132<160.591 393.707>
DStem2: 428 618 442 482 0.948683 -0.316228<-208.867 278.205>
LayerCount: 2
Fore
SplineSet
80 200 m 5,0,-1
 179 264 l 1,1,2
 232 182 232 182 297 141.5 c 128,-1,3
 362 101 362 101 458 101 c 128,-1,4
 554 101 554 101 610 149.5 c 128,-1,5
 666 198 666 198 666 262 c 0,6,7
 666 376 666 376 582 426 c 0,8,9
 514 465 514 465 442 482 c 0,10,11
 370 500 370 500 328 514 c 0,12,13
 230 548 230 548 162 614 c 128,-1,14
 94 680 94 680 94 796.5 c 128,-1,15
 94 913 94 913 187.5 989.5 c 128,-1,16
 281 1066 281 1066 439 1066 c 128,-1,17
 597 1066 597 1066 715 943 c 0,18,19
 737 920 737 920 752 898 c 1,20,-1
 661 830 l 1,21,22
 654 837 654 837 633 859.5 c 128,-1,23
 612 882 612 882 606 888 c 2,24,-1
 580 909 l 2,25,26
 562 926 562 926 550 930 c 2,27,-1
 516 942 l 2,28,29
 484 954 484 954 408 954 c 128,-1,30
 332 954 332 954 277 910.5 c 128,-1,31
 222 867 222 867 222 815 c 0,32,33
 222 723 222 723 287 682 c 128,-1,34
 352 641 352 641 428 618 c 128,-1,35
 504 595 504 595 528.5 587 c 128,-1,36
 553 579 553 579 594.5 562.5 c 128,-1,37
 636 546 636 546 660 531 c 0,38,39
 734 484 734 484 766 428 c 128,-1,40
 798 372 798 372 798 292 c 0,41,42
 798 159 798 159 697 74 c 128,-1,43
 596 -11 596 -11 463 -11 c 128,-1,44
 330 -11 330 -11 239.5 39.5 c 128,-1,45
 149 90 149 90 80 200 c 5,0,-1
EndSplineSet
EndChar

StartChar: o
Encoding: 111 111 6
AltUni2: 00043e.ffffffff.0 0003bf.ffffffff.0 00043e.ffffffff.0 0003bf.ffffffff.0 00043e.ffffffff.0 0003bf.ffffffff.0 00043e.ffffffff.0 0003bf.ffffffff.0 00043e.ffffffff.0 0003bf.ffffffff.0 00043e.ffffffff.0 0003bf.ffffffff.0 00043e.ffffffff.0 0003bf.ffffffff.0 00043e.ffffffff.0 0003bf.ffffffff.0 00043e.ffffffff.0 0003bf.ffffffff.0 00043e.ffffffff.0 0003bf.ffffffff.0 00043e.ffffffff.0 0003bf.ffffffff.0 0003bf.ffffffff.0 00043e.ffffffff.0 0003bf.ffffffff.0 00043e.ffffffff.0 0003bf.ffffffff.0 00043e.ffffffff.0 0003bf.ffffffff.0 00043e.ffffffff.0 0003bf.ffffffff.0 00043e.ffffffff.0 0003bf.ffffffff.0 00043e.ffffffff.0 0003bf.ffffffff.0 00043e.ffffffff.0 0003bf.ffffffff.0 00043e.ffffffff.0 0003bf.ffffffff.0 00043e.ffffffff.0 0003bf.ffffffff.0 00043e.ffffffff.0
Width: 972
VWidth: 0
Flags: W
HStem: -12 112<344.345 630.061> 954 112<338.367 634.544>
VStem: 75 132<262.19 797.245> 765 132<262.075 796.079>
LayerCount: 2
Back
SplineSet
132 539 m 7,0,1
 132 695 132 695 175.5 812.5 c 0
 219 930 219 930 313.5 1000.5 c 0
 408 1071 408 1071 544 1071 c 0,2,3
 679 1071 679 1071 773 1000.5 c 0
 867 930 867 930 910.5 812.5 c 0
 954 695 954 695 954 539 c 0,4,5
 954 374 954 374 911 251.5 c 0
 868 129 868 129 774 56.5 c 0
 680 -16 680 -16 544 -16 c 0,6,7
 408 -16 408 -16 313.5 56.5 c 0
 219 129 219 129 175.5 251.5 c 0
 132 374 132 374 132 539 c 7,0,1
544 96 m 3,8,9
 822 96 822 96 822 539 c 0,10,11
 822 623 822 623 809 693.5 c 0
 796 764 796 764 766 826 c 0
 736 888 736 888 679.5 923.5 c 0
 623 959 623 959 544 959 c 0,12,13
 264 959 264 959 264 539 c 0,14,15
 264 472 264 472 271 414 c 0
 278 356 278 356 297 295.5 c 0
 316 235 316 235 346 192.5 c 0
 376 150 376 150 427 123 c 0
 478 96 478 96 544 96 c 3,8,9
EndSplineSet
Fore
SplineSet
183.5 921 m 128,-1,1
 292 1066 292 1066 487 1066 c 128,-1,2
 682 1066 682 1066 789.5 920 c 128,-1,3
 897 774 897 774 897 530 c 128,-1,4
 897 286 897 286 788.5 137 c 128,-1,5
 680 -12 680 -12 485 -12 c 128,-1,6
 290 -12 290 -12 182.5 140.5 c 128,-1,7
 75 293 75 293 75 534.5 c 135,-1,0
 75 776 75 776 183.5 921 c 128,-1,1
207 528 m 7,8,9
 208 211 208 211 372 126 c 0,10,11
 422 100 422 100 487 100 c 128,-1,12
 552 100 552 100 602 126 c 0,13,14
 764 210 764 210 765 527 c 0,15,16
 765 954 765 954 486 954 c 128,-1,17
 207 954 207 954 207 528 c 7,8,9
EndSplineSet
EndChar

StartChar: n
Encoding: 110 110 7
Width: 970
VWidth: 0
Flags: W
HStem: 0 21G<120 252 728 860> 954 112<426.931 671.407>
VStem: 120 132<0 826.235 882 1055> 728 132<0 898.502>
LayerCount: 2
Back
SplineSet
160 1055 m 1,0,-1
 292 1055 l 1,1,-1
 292 865 l 1,2,-1
 252 842 l 1,3,4
 350.72 938.803 350.72 938.803 387.67 968.179 c 0
 510.714 1066 510.714 1066 637 1066 c 0,5,6
 752 1066 752 1066 826 996 c 0
 900 926 900 926 900 786 c 2,7,-1
 900 0 l 1,8,-1
 768 0 l 1,9,-1
 768 786 l 2,10,11
 768 861 768 861 714.5 907.5 c 0
 661 954 661 954 599 954 c 0,12,13
 451 954 451 954 292 781 c 1,14,-1
 292 0 l 1,15,-1
 160 0 l 1,16,-1
 160 1055 l 1,0,-1
EndSplineSet
Fore
SplineSet
120 0 m 1,0,-1
 120 1055 l 1,1,-1
 252 1055 l 1,2,-1
 252 882 l 1,3,4
 340 969 340 969 419 1017.5 c 128,-1,5
 498 1066 498 1066 605 1066 c 128,-1,6
 712 1066 712 1066 786 996 c 128,-1,7
 860 926 860 926 860 786 c 2,8,-1
 860 0 l 1,9,-1
 728 0 l 1,10,-1
 728 786 l 2,11,12
 728 861 728 861 674.5 907.5 c 128,-1,13
 621 954 621 954 559 954 c 0,14,15
 411 954 411 954 252 781 c 1,16,-1
 252 0 l 1,17,-1
 120 0 l 1,0,-1
EndSplineSet
EndChar

StartChar: H
Encoding: 72 72 8
AltUni2: 00041d.ffffffff.0 000397.ffffffff.0 00041d.ffffffff.0 000397.ffffffff.0 00041d.ffffffff.0 000397.ffffffff.0 00041d.ffffffff.0 000397.ffffffff.0 00041d.ffffffff.0 000397.ffffffff.0 00041d.ffffffff.0 000397.ffffffff.0 00041d.ffffffff.0 000397.ffffffff.0 00041d.ffffffff.0 000397.ffffffff.0 00041d.ffffffff.0 000397.ffffffff.0 00041d.ffffffff.0 000397.ffffffff.0 000397.ffffffff.0 00041d.ffffffff.0 000397.ffffffff.0 00041d.ffffffff.0 000397.ffffffff.0 00041d.ffffffff.0 000397.ffffffff.0 00041d.ffffffff.0 000397.ffffffff.0 00041d.ffffffff.0 000397.ffffffff.0 00041d.ffffffff.0 000397.ffffffff.0 00041d.ffffffff.0 000397.ffffffff.0 00041d.ffffffff.0 000397.ffffffff.0 00041d.ffffffff.0 000397.ffffffff.0 00041d.ffffffff.0 000397.ffffffff.0 00041d.ffffffff.0
Width: 1254
VWidth: 0
Flags: W
HStem: 0 21G<135 283 971 1119> 734 124<283 971> 1495 20G<135 283 971 1119>
VStem: 135 148<0 734 858 1515> 971 148<0 734 858 1515>
LayerCount: 2
Fore
SplineSet
135 0 m 1,0,-1
 135 1515 l 1,1,-1
 283 1515 l 1,2,-1
 283 858 l 1,3,-1
 971 858 l 1,4,-1
 971 1515 l 1,5,-1
 1119 1515 l 1,6,-1
 1119 0 l 1,7,-1
 971 0 l 1,8,-1
 971 734 l 1,9,-1
 283 734 l 1,10,-1
 283 0 l 1,11,-1
 135 0 l 1,0,-1
EndSplineSet
EndChar

StartChar: O
Encoding: 79 79 9
AltUni2: 00041e.ffffffff.0 00039f.ffffffff.0 00041e.ffffffff.0 00039f.ffffffff.0 00041e.ffffffff.0 00039f.ffffffff.0 00041e.ffffffff.0 00039f.ffffffff.0 00041e.ffffffff.0 00039f.ffffffff.0 00041e.ffffffff.0 00039f.ffffffff.0 00041e.ffffffff.0 00039f.ffffffff.0 00041e.ffffffff.0 00039f.ffffffff.0 00041e.ffffffff.0 00039f.ffffffff.0 00041e.ffffffff.0 00039f.ffffffff.0 00039f.ffffffff.0 00041e.ffffffff.0 00039f.ffffffff.0 00041e.ffffffff.0 00039f.ffffffff.0 00041e.ffffffff.0 00039f.ffffffff.0 00041e.ffffffff.0 00039f.ffffffff.0 00041e.ffffffff.0 00039f.ffffffff.0 00041e.ffffffff.0 00039f.ffffffff.0 00041e.ffffffff.0 00039f.ffffffff.0 00041e.ffffffff.0 00039f.ffffffff.0 00041e.ffffffff.0 00039f.ffffffff.0 00041e.ffffffff.0 00039f.ffffffff.0 00041e.ffffffff.0
Width: 1263
VWidth: 0
Flags: WO
HStem: -16 124<465.064 806.822> 1408 124<463.922 807.579>
VStem: 80 148<436.136 1087.26> 1035 148<419.79 1080.56>
LayerCount: 2
Fore
SplineSet
101 529.5 m 128,-1,1
 80 638 80 638 80 753 c 155,-1,2
 80 868 80 868 99 977 c 128,-1,3
 118 1086 118 1086 161 1188 c 128,-1,4
 204 1290 204 1290 267.5 1365.5 c 128,-1,5
 331 1441 331 1441 427 1486.5 c 128,-1,6
 523 1532 523 1532 638.5 1532 c 128,-1,7
 754 1532 754 1532 846 1486 c 0,8,9
 1014 1401 1014 1401 1098.5 1196.5 c 128,-1,10
 1183 992 1183 992 1183 752 c 0,11,12
 1182 313 1182 313 956 100 c 0,13,14
 833 -16 833 -16 641 -16 c 0,15,16
 530 -16 530 -16 436 28.5 c 128,-1,17
 342 73 342 73 277.5 147.5 c 128,-1,18
 213 222 213 222 167.5 321.5 c 128,-1,0
 122 421 122 421 101 529.5 c 128,-1,1
241 951.5 m 128,-1,20
 228 858 228 858 228 739 c 131,-1,21
 228 620 228 620 251.5 507.5 c 128,-1,22
 275 395 275 395 322.5 304 c 128,-1,23
 370 213 370 213 451.5 160.5 c 128,-1,24
 533 108 533 108 631.5 108 c 128,-1,25
 730 108 730 108 800 148 c 0,26,27
 926 218 926 218 980.5 386 c 128,-1,28
 1035 554 1035 554 1035 752 c 0,29,30
 1035 1080 1035 1080 914 1262 c 0,31,32
 871 1326 871 1326 801 1367 c 128,-1,33
 731 1408 731 1408 641 1408 c 128,-1,34
 551 1408 551 1408 479.5 1372 c 128,-1,35
 408 1336 408 1336 361.5 1275.5 c 128,-1,36
 315 1215 315 1215 284.5 1130 c 128,-1,19
 254 1045 254 1045 241 951.5 c 128,-1,20
EndSplineSet
EndChar

StartChar: R
Encoding: 82 82 10
Width: 1093
VWidth: 0
Flags: W
HStem: 0 21G<135 283 892.023 1062> 692 124<283 624> 1391 124<283 769.945>
VStem: 135 148<0 692 816 1391> 920 148<925.531 1262.82>
DStem2: 776 716 624 692 0.370943 -0.928656<0 710.914>
LayerCount: 2
Back
SplineSet
135 0 m 1,0,-1
 135 1515 l 1,1,-1
 645 1515 l 2,2,3
 729 1515 729 1515 801 1489.5 c 0
 873 1464 873 1464 921 1423 c 0
 969 1382 969 1382 1003 1329 c 0
 1037 1276 1037 1276 1052.5 1222.5 c 0
 1068 1169 1068 1169 1068 1117 c 0,4,5
 1068 1051 1068 1051 1052.5 990 c 0
 1037 929 1037 929 1004.5 872.5 c 0
 972 816 972 816 913.5 774.5 c 0
 855 733 855 733 776 716 c 1,6,-1
 1062 0 l 1,7,-1
 900 0 l 1,8,-1
 624 692 l 1,9,-1
 283 692 l 1,10,-1
 283 0 l 1,11,-1
 135 0 l 1,0,-1
920 1110 m 0,12,13
 920 1181 920 1181 892 1236 c 0
 864 1291 864 1291 813.5 1324 c 0
 763 1357 763 1357 697.5 1374 c 0
 632 1391 632 1391 554 1391 c 2,14,-1
 283 1391 l 1,15,-1
 283 816 l 1,16,17
 659 816 l 2,18,19
 711 816 711 816 756 832.5 c 0
 801 849 801 849 838.5 882.5 c 0
 876 916 876 916 898 974.5 c 0
 920 1033 920 1033 920 1110 c 0,12,13
EndSplineSet
Fore
SplineSet
135 0 m 1,0,-1
 135 1515 l 1,1,-1
 645 1515 l 2,2,3
 884 1515 884 1515 1003 1329 c 0,4,5
 1068 1228 1068 1228 1068 1105 c 0,6,7
 1068 983 1068 983 1001 866 c 0,8,9
 934 750 934 750 776 716 c 1,10,-1
 1062 0 l 1,11,-1
 900 0 l 1,12,-1
 624 692 l 1,13,-1
 283 692 l 1,14,-1
 283 0 l 1,15,-1
 135 0 l 1,0,-1
283 816 m 1,16,-1
 659 816 l 2,17,18
 764 816 764 816 842 886 c 128,-1,19
 920 956 920 956 920 1110 c 0,20,21
 920 1316 920 1316 698 1374 c 0,22,23
 632 1391 632 1391 554 1391 c 2,24,-1
 283 1391 l 1,25,-1
 283 816 l 1,16,-1
EndSplineSet
EndChar

StartChar: M
Encoding: 77 77 11
AltUni2: 00041c.ffffffff.0 00039c.ffffffff.0 00041c.ffffffff.0 00039c.ffffffff.0 00041c.ffffffff.0 00039c.ffffffff.0 00041c.ffffffff.0 00039c.ffffffff.0 00041c.ffffffff.0 00039c.ffffffff.0 00041c.ffffffff.0 00039c.ffffffff.0 00041c.ffffffff.0 00039c.ffffffff.0 00041c.ffffffff.0 00039c.ffffffff.0 00041c.ffffffff.0 00039c.ffffffff.0 00041c.ffffffff.0 00039c.ffffffff.0 00039c.ffffffff.0 00041c.ffffffff.0 00039c.ffffffff.0 00041c.ffffffff.0 00039c.ffffffff.0 00041c.ffffffff.0 00039c.ffffffff.0 00041c.ffffffff.0 00039c.ffffffff.0 00041c.ffffffff.0 00039c.ffffffff.0 00041c.ffffffff.0 00039c.ffffffff.0 00041c.ffffffff.0 00039c.ffffffff.0 00041c.ffffffff.0 00039c.ffffffff.0 00041c.ffffffff.0 00039c.ffffffff.0 00041c.ffffffff.0 00039c.ffffffff.0 00041c.ffffffff.0
Width: 1457
VWidth: 0
Flags: W
HStem: 0 21G<128 276 662.44 787.56 1174 1322> 1495 20G<128 401.572 1048.43 1322>
VStem: 128 148<0 1374> 1174 148<0 1374>
DStem2: 396 1515 286 1374 0.267861 -0.963458<106.383 1207.29> 730 352 782 0 0.267861 0.963458<0 1100.91>
LayerCount: 2
Fore
SplineSet
128 0 m 1,0,-1
 128 1515 l 1,1,-1
 396 1515 l 1,2,-1
 720 352 l 1,3,-1
 730 352 l 1,4,-1
 1054 1515 l 1,5,-1
 1322 1515 l 1,6,-1
 1322 0 l 1,7,-1
 1174 0 l 1,8,-1
 1174 1374 l 1,9,-1
 1164 1374 l 1,10,-1
 782 0 l 1,11,-1
 668 0 l 1,12,-1
 286 1374 l 1,13,-1
 276 1374 l 1,14,-1
 276 0 l 1,15,-1
 128 0 l 1,0,-1
EndSplineSet
EndChar

StartChar: X
Encoding: 88 88 12
AltUni2: 000425.ffffffff.0 0003a7.ffffffff.0 000425.ffffffff.0 0003a7.ffffffff.0 000425.ffffffff.0 0003a7.ffffffff.0 000425.ffffffff.0 0003a7.ffffffff.0 000425.ffffffff.0 0003a7.ffffffff.0 000425.ffffffff.0 0003a7.ffffffff.0 000425.ffffffff.0 0003a7.ffffffff.0 000425.ffffffff.0 0003a7.ffffffff.0 000425.ffffffff.0 0003a7.ffffffff.0 000425.ffffffff.0 0003a7.ffffffff.0 0003a7.ffffffff.0 000425.ffffffff.0 0003a7.ffffffff.0 000425.ffffffff.0 0003a7.ffffffff.0 000425.ffffffff.0 0003a7.ffffffff.0 000425.ffffffff.0 0003a7.ffffffff.0 000425.ffffffff.0 0003a7.ffffffff.0 000425.ffffffff.0 0003a7.ffffffff.0 000425.ffffffff.0 0003a7.ffffffff.0 000425.ffffffff.0 0003a7.ffffffff.0 000425.ffffffff.0 0003a7.ffffffff.0 000425.ffffffff.0 0003a7.ffffffff.0 000425.ffffffff.0
Width: 1083
VWidth: 0
Flags: W
HStem: 0 21G<25 192.289 887.711 1055> 1495 20G<43 208.325 893.022 1058>
DStem2: 25 0 181 0 0.501846 0.864957<78.288 808.563 1028.51 1751.53> 197 1515 43 1515 0.492795 -0.870145<0 728.586 933.886 1664.21> 556 881 630 750 0.500991 0.865452<0 723.042>
LayerCount: 2
Back
SplineSet
1142 0 m 1,0,-1
 986 -0 l 1,1,-1
 130 1515 l 1,2,-1
 284 1515 l 1,3,-1
 1142 0 l 1,0,-1
639 657 m 1,4,-1
 268 0 l 1,5,-1
 112 0 l 1,6,-1
 560 792 l 1,7,-1
 629 857 l 1,8,-1
 991 1515 l 1,9,-1
 1145 1515 l 1,10,-1
 696 713 l 1,11,-1
 639 657 l 1,4,-1
132 2 m 1,12,-1
 288 2 l 1,13,-1
 1144 1515 l 1,14,-1
 990 1515 l 1,15,-1
 132 2 l 1,12,-1
EndSplineSet
Fore
SplineSet
25 0 m 1,0,-1
 462 773 l 1,1,-1
 43 1515 l 1,2,-1
 197 1515 l 1,3,-1
 556 881 l 1,4,-1
 904 1515 l 1,5,-1
 1058 1515 l 1,6,-1
 630 750 l 1,7,-1
 1055 0 l 1,8,-1
 899 0 l 1,9,-1
 540 636 l 1,10,-1
 181 0 l 1,11,-1
 25 0 l 1,0,-1
EndSplineSet
EndChar

StartChar: three
Encoding: 51 51 13
Width: 1171
VWidth: 0
Flags: W
HStem: -11 143<348.604 756.76> 721 141<366 742.781> 1384 143<350.061 727.989>
VStem: 851 141<974.507 1276.12> 899 142<262.638 581.428>
LayerCount: 2
Fore
SplineSet
70 237 m 5,0,-1
 171 324 l 1,1,2
 253 240 253 240 288 213 c 0,3,4
 394 132 394 132 551 132 c 0,5,6
 752 132 752 132 848 253 c 0,7,8
 898 317 898 317 899 407 c 0,9,10
 899 552 899 552 811 636.5 c 128,-1,11
 723 721 723 721 579 721 c 2,12,-1
 366 721 l 1,13,-1
 366 862 l 1,14,-1
 579 862 l 2,15,16
 712 862 712 862 781.5 940.5 c 128,-1,17
 851 1019 851 1019 851 1137 c 128,-1,18
 851 1255 851 1255 760.5 1319.5 c 128,-1,19
 670 1384 670 1384 558 1384 c 128,-1,20
 446 1384 446 1384 350 1339 c 128,-1,21
 254 1294 254 1294 207 1233 c 1,22,-1
 111 1326 l 1,23,24
 184 1410 184 1410 299 1468.5 c 128,-1,25
 414 1527 414 1527 545.5 1527 c 128,-1,26
 677 1527 677 1527 775 1476 c 128,-1,27
 873 1425 873 1425 932.5 1337.5 c 128,-1,28
 992 1250 992 1250 992 1149 c 0,29,30
 992 990 992 990 893 873 c 0,31,32
 849 821 849 821 804 792 c 1,33,34
 927 718 927 718 984 626 c 0,35,36
 1041 535 1041 535 1041 417 c 0,37,38
 1041 209 1041 209 907 99 c 128,-1,39
 773 -11 773 -11 551 -11 c 0,40,41
 265 -11 265 -11 70 237 c 5,0,-1
EndSplineSet
EndChar

StartChar: five
Encoding: 53 53 14
AltUni2: 002075.ffffffff.0 002075.ffffffff.0 002075.ffffffff.0 002075.ffffffff.0 002075.ffffffff.0 002075.ffffffff.0 002075.ffffffff.0 002075.ffffffff.0 002075.ffffffff.0 002075.ffffffff.0 002075.ffffffff.0 002075.ffffffff.0 002075.ffffffff.0 002075.ffffffff.0 002075.ffffffff.0 002075.ffffffff.0 002075.ffffffff.0 002075.ffffffff.0 002075.ffffffff.0
Width: 1053
VWidth: 0
Flags: W
HStem: -11 130<324.824 624.22> 898.5 124.5<354.794 658.682> 1381 131<256 870>
VStem: 108 148<722 809.619 931 1381> 805 148<313.257 748.747>
LayerCount: 2
Back
SplineSet
400 1381 m 1,0,-1
 400 675 l 1
EndSplineSet
Fore
SplineSet
60 276 m 1,0,-1
 158 351 l 1,1,2
 178 293 178 293 236 234 c 0,3,4
 351 119 351 119 469 119 c 0,5,6
 587 120 587 120 683 206 c 0,7,8
 805 316 805 316 805 545 c 128,-1,9
 805 774 805 774 654 858 c 0,10,11
 581 898 581 898 493 898.5 c 128,-1,12
 405 899 405 899 328 835 c 128,-1,13
 251 771 251 771 244 722 c 1,14,-1
 108 722 l 1,15,-1
 108 1512 l 1,16,-1
 870 1512 l 1,17,-1
 870 1381 l 1,18,-1
 256 1381 l 1,19,-1
 256 931 l 1,20,21
 318 989 318 989 416 1013 c 0,22,23
 458 1023 458 1023 500 1023 c 0,24,25
 697 1023 697 1023 825 887 c 128,-1,26
 953 751 953 751 953 521.5 c 128,-1,27
 953 292 953 292 821 140.5 c 128,-1,28
 689 -11 689 -11 490 -11 c 0,29,30
 291 -10 291 -10 150 136 c 0,31,32
 78 210 78 210 60 276 c 1,0,-1
EndSplineSet
EndChar

StartChar: six
Encoding: 54 54 15
AltUni2: 002076.ffffffff.0 002076.ffffffff.0 002076.ffffffff.0 002076.ffffffff.0 002076.ffffffff.0 002076.ffffffff.0 002076.ffffffff.0 002076.ffffffff.0 002076.ffffffff.0 002076.ffffffff.0 002076.ffffffff.0 002076.ffffffff.0 002076.ffffffff.0 002076.ffffffff.0 002076.ffffffff.0 002076.ffffffff.0 002076.ffffffff.0 002076.ffffffff.0 002076.ffffffff.0
Width: 1163
VWidth: 0
Flags: HW
HStem: -11 125<425.471 739.331> 816 124<417.5 757.517> 1382 132<522.694 855.651>
VStem: 904 138<282.105 665.807>
LayerCount: 2
Back
SplineSet
974 1424 m 5,0,-1
 916 1317 l 1,1,2
 810 1393 810 1393 691 1393 c 0,3,4
 624 1393 624 1393 562.5 1373 c 0
 501 1353 501 1353 443 1307 c 0
 385 1261 385 1261 342 1192.5 c 0
 299 1124 299 1124 272.5 1019.5 c 0
 246 915 246 915 244 786 c 1,5,6
 367 951 367 951 598 951 c 0,7,8
 801 951 801 951 927 824.5 c 0
 1053 698 1053 698 1053 489 c 0,9,10
 1053 419 1053 419 1038 350.5 c 0
 1023 282 1023 282 988 216 c 0
 953 150 953 150 902 100 c 0
 851 50 851 50 772.5 19.5 c 0
 694 -11 694 -11 598 -11 c 0,11,12
 110 -11 110 -11 110 701 c 0,13,14
 110 1089 110 1089 270.5 1307 c 0
 431 1525 431 1525 710 1525 c 0,15,16
 780 1525 780 1525 862 1493 c 0
 944 1461 944 1461 974 1424 c 5,0,-1
598 114 m 7,17,18
 659 114 659 114 712.5 133.5 c 0
 766 153 766 153 813 194 c 0
 860 235 860 235 887.5 311 c 0
 915 387 915 387 915 489 c 0,19,20
 915 645 915 645 827.5 736 c 0
 740 827 740 827 598 827 c 0,21,22
 552 827 552 827 511 819 c 0
 470 811 470 811 439 796.5 c 0
 408 782 408 782 381.5 764.5 c 0
 355 747 355 747 336 726 c 0
 317 705 317 705 302.5 685.5 c 0
 288 666 288 666 278 646 c 0
 268 626 268 626 262 612.5 c 0
 256 599 256 599 252.5 588 c 2
 249 577 l 1,23,24
 250 479 250 479 269 401 c 0
 288 323 288 323 319 274.5 c 0
 350 226 350 226 385.5 192.5 c 0
 421 159 421 159 462.5 143 c 0
 504 127 504 127 535.5 120.5 c 0
 567 114 567 114 598 114 c 7,17,18
EndSplineSet
Fore
Refer: 22 57 S -1 0 0 -1 1152 1503 2
EndChar

StartChar: Q
Encoding: 81 81 16
Width: 1263
VWidth: 0
Flags: W
HStem: -272 125<759.339 1119> 1408 124<463.922 807.579>
VStem: 80 148<449.093 1087.26> 582 148<-121.719 -4.23047> 1035 148<429.216 1080.02>
LayerCount: 2
Back
SplineSet
1099 759 m 4,0,1
 1099 902 1099 902 1076 1017.5 c 0
 1053 1133 1053 1133 1006 1221 c 0
 959 1309 959 1309 881 1357.5 c 0
 803 1406 803 1406 699 1406 c 2,2,-1
 697 1406 l 2,3,4
 594 1406 594 1406 518.5 1358 c 0
 443 1310 443 1310 398.5 1221 c 0
 354 1132 354 1132 332.5 1017.5 c 0
 311 903 311 903 309 759 c 1,5,-1
 309 745 l 2,6,7
 309 559 309 559 353 420.5 c 0
 397 282 397 282 487 203 c 0
 577 124 577 124 703 123 c 1,8,-1
 707 123 l 2,9,10
 834 123 834 123 923.5 206.5 c 0
 1013 290 1013 290 1056 431.5 c 0
 1099 573 1099 573 1099 759 c 4,0,1
152 763 m 6,11,-1
 152 784 l 2,12,13
 152 942 152 942 185 1075 c 0
 218 1208 218 1208 283.5 1310.5 c 0
 349 1413 349 1413 455.5 1471 c 0
 562 1529 562 1529 699 1529 c 0,14,15
 839 1529 839 1529 943.5 1476 c 0
 1048 1423 1048 1423 1113.5 1321.5 c 0
 1179 1220 1179 1220 1211.5 1081.5 c 0
 1244 943 1244 943 1247 763 c 1,16,-1
 1247 741 l 2,17,18
 1247 575 1247 575 1207.5 431.5 c 0
 1168 288 1168 288 1105 194 c 0
 1042 100 1042 100 964 46.5 c 0
 886 -7 886 -7 807 -7 c 1,19,20
 811 -73 811 -73 830 -97.5 c 0
 849 -122 849 -122 920 -130 c 1,21,-1
 1191 -130 l 1,22,-1
 1191 -290 l 1,23,-1
 792 -280 l 2,24,25
 721 -279 721 -279 680.5 -207.5 c 0
 640 -136 640 -136 633 -6 c 1,26,27
 540 -1 540 -1 453 58 c 0
 366 117 366 117 299.5 216.5 c 0
 233 316 233 316 192.5 459 c 0
 152 602 152 602 152 763 c 6,11,-1
EndSplineSet
Fore
SplineSet
112.5 492 m 128,-1,1
 80 619 80 619 80 743.5 c 139,-1,2
 80 868 80 868 99 977 c 128,-1,3
 118 1086 118 1086 161 1188 c 128,-1,4
 204 1290 204 1290 267.5 1365.5 c 128,-1,5
 331 1441 331 1441 427 1486.5 c 128,-1,6
 523 1532 523 1532 638.5 1532 c 128,-1,7
 754 1532 754 1532 846 1486 c 0,8,9
 1014 1401 1014 1401 1098.5 1196.5 c 128,-1,10
 1183 992 1183 992 1183 738.5 c 0,11,12
 1183 486 1183 486 1076 270 c 0,13,14
 1023 164 1023 164 934 89 c 128,-1,15
 845 14 845 14 730 -9 c 1,16,17
 732 -98 732 -98 758.5 -122.5 c 128,-1,18
 785 -147 785 -147 855 -147 c 2,19,-1
 1119 -147 l 1,20,-1
 1119 -271 l 1,21,-1
 990 -272 l 1,22,23
 719 -272 719 -272 658 -233.5 c 0,24,25
 597 -196 597 -196 587 -114 c 0,26,27
 582 -74 582 -74 582 -12 c 1,28,29
 462 5 462 5 364 78 c 128,-1,30
 266 151 266 151 205.5 258 c 128,-1,0
 145 365 145 365 112.5 492 c 128,-1,1
241 951.5 m 128,-1,32
 228 858 228 858 228 739 c 131,-1,33
 228 620 228 620 251.5 507.5 c 128,-1,34
 275 395 275 395 322.5 304 c 128,-1,35
 370 213 370 213 451.5 160.5 c 128,-1,36
 533 108 533 108 631.5 108 c 128,-1,37
 730 108 730 108 800 148 c 0,38,39
 926 218 926 218 980.5 386 c 128,-1,40
 1035 554 1035 554 1035 752 c 0,41,42
 1035 1080 1035 1080 914 1262 c 0,43,44
 871 1326 871 1326 801 1367 c 128,-1,45
 731 1408 731 1408 641 1408 c 128,-1,46
 551 1408 551 1408 479.5 1372 c 128,-1,47
 408 1336 408 1336 361.5 1275.5 c 128,-1,48
 315 1215 315 1215 284.5 1130 c 128,-1,31
 254 1045 254 1045 241 951.5 c 128,-1,32
EndSplineSet
EndChar

StartChar: one
Encoding: 49 49 18
Width: 839
VWidth: 0
Flags: W
HStem: 0 142<147 391 539 759> 1495 20G<376.13 539>
VStem: 391 148<142 1352>
LayerCount: 2
Back
SplineSet
514 1417 m 25,0,-1
 170 1296 l 1
EndSplineSet
Fore
SplineSet
106 1400 m 25,0,-1
 433 1515 l 1,1,-1
 539 1515 l 1,2,-1
 539 142 l 1,3,-1
 759 142 l 1,4,-1
 759 0 l 1,5,-1
 147 0 l 1,6,-1
 147 142 l 1,7,-1
 391 142 l 1,8,-1
 391 1352 l 1,9,-1
 154 1283 l 1,10,-1
 106 1400 l 25,0,-1
EndSplineSet
EndChar

StartChar: two
Encoding: 50 50 19
Width: 1180
VWidth: 0
Flags: W
HStem: 0 142<252 1029> 1395 132<432.19 789.675>
VStem: 133 148<1088 1237.62> 902 148<950.647 1282.47>
DStem2: 510 655 644 582 0.807391 0.590017<-328.277 479.233>
LayerCount: 2
Back
SplineSet
90 0 m 25,0,1
 90 41 90 41 90.5 61.5 c 0
 91 82 91 82 95 121 c 0
 99 160 99 160 107.5 185 c 0
 116 210 116 210 132 250 c 0
 148 290 148 290 171.5 322.5 c 0
 195 355 195 355 230.5 400 c 0
 266 445 266 445 313 488.5 c 0
 360 532 360 532 423 585.5 c 0
 486 639 486 639 564 696 c 0,2,3
 593 718 593 718 649.5 757 c 0
 706 796 706 796 734.5 816.5 c 0
 763 837 763 837 803 874 c 0
 843 911 843 911 862.5 942.5 c 0
 882 974 882 974 897 1019 c 0
 912 1064 912 1064 912 1116 c 0,4,5
 912 1243 912 1243 835 1319 c 0
 758 1395 758 1395 606 1395 c 0,6,7
 523 1395 523 1395 458.5 1364.5 c 0
 394 1334 394 1334 358 1286 c 0
 322 1238 322 1238 303 1187.5 c 0
 284 1137 284 1137 282 1088 c 1,8,-1
 132 1088 l 1,9,10
 132 1213 132 1213 202 1315 c 0
 272 1417 272 1417 384 1472 c 0
 496 1527 496 1527 624 1527 c 0,11,12
 738 1527 738 1527 836 1473 c 0
 934 1419 934 1419 992 1324 c 0
 1050 1229 1050 1229 1050 1116 c 0,13,14
 1050 1068 1050 1068 1039.5 1023 c 0
 1029 978 1029 978 1013.5 942.5 c 0
 998 907 998 907 970 869 c 0
 942 831 942 831 918 804.5 c 0
 894 778 894 778 855 744 c 0
 816 710 816 710 789 689 c 0
 762 668 762 668 717 633.5 c 0
 672 599 672 599 648 579 c 0,15,16
 519 475 519 475 397.5 353 c 0
 276 231 276 231 252 156 c 1,17,-1
 1029 156 l 1,18,-1
 1029 0 l 1,19,-1
 90 0 l 25,0,1
EndSplineSet
Fore
SplineSet
90 0 m 21,0,1
 91 123 91 123 108 187 c 0,2,3
 150 338 150 338 338 512 c 0,4,5
 430 597 430 597 510 655 c 2,6,7
 692 788 l 2,8,9
 764 840 764 840 792 868 c 0,10,11
 856 936 856 936 879 991 c 128,-1,12
 902 1046 902 1046 902 1116 c 0,13,14
 902 1243 902 1243 829 1319 c 128,-1,15
 756 1395 756 1395 606 1395 c 0,16,17
 523 1395 523 1395 458 1364.5 c 128,-1,18
 393 1334 393 1334 357 1286 c 0,19,20
 285 1190 285 1190 281 1088 c 1,21,-1
 133 1088 l 1,22,23
 133 1213 133 1213 202.5 1315 c 128,-1,24
 272 1417 272 1417 384 1472 c 128,-1,25
 496 1527 496 1527 617 1527 c 128,-1,26
 738 1527 738 1527 836 1473 c 128,-1,27
 934 1419 934 1419 992 1324 c 128,-1,28
 1050 1229 1050 1229 1050 1117 c 128,-1,29
 1050 1005 1050 1005 999 918 c 128,-1,30
 948 831 948 831 892 781.5 c 128,-1,31
 836 732 836 732 806 708 c 2,32,-1
 644 582 l 1,33,34
 268 279 268 279 252 142 c 1,35,-1
 1029 142 l 1,36,-1
 1029 0 l 1,37,-1
 90 0 l 21,0,1
EndSplineSet
EndChar

StartChar: seven
Encoding: 55 55 20
AltUni2: 002077.ffffffff.0 002077.ffffffff.0 002077.ffffffff.0 002077.ffffffff.0 002077.ffffffff.0 002077.ffffffff.0 002077.ffffffff.0 002077.ffffffff.0 002077.ffffffff.0 002077.ffffffff.0 002077.ffffffff.0 002077.ffffffff.0 002077.ffffffff.0 002077.ffffffff.0 002077.ffffffff.0 002077.ffffffff.0 002077.ffffffff.0 002077.ffffffff.0 002077.ffffffff.0
Width: 1057
VWidth: 0
Flags: W
HStem: 0 21G<200 372.632> 1376 139<84 807>
DStem2: 200 0 364 0 0.403607 0.914932<66.1916 1503.94>
LayerCount: 2
Back
SplineSet
858 1374 m 25,0,-1
 258 0 l 1
EndSplineSet
Fore
SplineSet
84 1376 m 29,0,-1
 84 1515 l 1,1,-1
 957 1515 l 1,2,-1
 957 1374 l 1,3,-1
 364 0 l 1,4,-1
 200 0 l 1,5,-1
 807 1376 l 1,6,-1
 84 1376 l 29,0,-1
EndSplineSet
EndChar

StartChar: eight
Encoding: 56 56 21
AltUni2: 002078.ffffffff.0 002078.ffffffff.0 002078.ffffffff.0 002078.ffffffff.0 002078.ffffffff.0 002078.ffffffff.0 002078.ffffffff.0 002078.ffffffff.0 002078.ffffffff.0 002078.ffffffff.0 002078.ffffffff.0 002078.ffffffff.0 002078.ffffffff.0 002078.ffffffff.0 002078.ffffffff.0 002078.ffffffff.0 002078.ffffffff.0 002078.ffffffff.0 002078.ffffffff.0
Width: 1204
VWidth: 0
Flags: W
HStem: -11 124<406.527 797.346> 1401 124<434.978 781.15>
VStem: 110 132<257.423 536.379> 171 132<1014.35 1279.34> 907 132<1016.11 1286.62> 962 132<254.634 550.262>
DStem2: 747 797 674 713 0.915614 -0.402059<-464.325 -278.816 -161.876 -125.343 0 243.454>
LayerCount: 2
Back
SplineSet
954 389 m 2,0,1
 954 403 l 2,2,3
 954 459 954 459 933 506.5 c 0
 912 554 912 554 880 588 c 0
 848 622 848 622 797 653.5 c 0
 746 685 746 685 699 705.5 c 0
 652 726 652 726 589 749 c 0,4,5
 427.063 807.817 427.063 807.817 380.099 830.795 c 0
 240.758 898.973 240.758 898.973 193.556 1006.77 c 0
 167.271 1066.8 167.271 1066.8 164 1145 c 1,6,7
 164 1259 164 1259 225 1346.5 c 0
 286 1434 286 1434 382 1478 c 0
 478 1522 478 1522 591 1523 c 1,8,-1
 595 1523 l 2,9,10
 705 1523 705 1523 801 1476.5 c 0
 897 1430 897 1430 957 1343.5 c 0
 1017 1257 1017 1257 1017 1151 c 0,11,12
 1017 1069 1017 1069 973.5 997 c 0
 930 925 930 925 861.5 876.5 c 0
 793 828 793 828 720.5 796.5 c 0
 648 765 648 765 578 751 c 0,13,14
 434 723 434 723 327.5 621 c 0
 221 519 221 519 221 400 c 0,15,16
 221 310 221 310 278 241 c 0
 335 172 335 172 420.5 138.5 c 0
 506 105 506 105 603 105 c 0,17,18
 678 105 678 105 757 138 c 0
 836 171 836 171 895 238.5 c 0
 954 306 954 306 954 389 c 2,0,1
606 -12 m 16,19,20
 473 -12 473 -12 358.5 37 c 0
 244 86 244 86 172 181.5 c 0
 100 277 100 277 100 400 c 0,21,22
 100 478 100 478 134 547 c 0
 168 616 168 616 220.5 665.5 c 0
 273 715 273 715 344 756 c 0
 415 797 415 797 480 822 c 0
 545 847 545 847 613 865 c 0,23,24
 768 906 768 906 838 972 c 0
 908 1038 908 1038 908 1157 c 0,25,26
 908 1274 908 1274 815 1349 c 0
 722 1424 722 1424 596 1424 c 0,27,28
 463 1424 463 1424 363 1346 c 0
 263 1268 263 1268 263 1145 c 0,29,30
 263 1109 263 1109 275 1076.5 c 0
 287 1044 287 1044 304.5 1019.5 c 0
 322 995 322 995 351 971 c 0
 380 947 380 947 405.5 931 c 0
 431 915 431 915 468 898 c 0
 505 881 505 881 529 871.5 c 0
 553 862 553 862 588 849 c 0,31,32
 647 827 647 827 688 810.5 c 0
 729 794 729 794 783.5 768 c 0
 838 742 838 742 875 717.5 c 0
 912 693 912 693 952 658 c 0
 992 623 992 623 1015.5 586 c 0
 1039 549 1039 549 1054.5 501 c 0
 1070 453 1070 453 1070 399 c 0,33,34
 1070 283 1070 283 1004 187.5 c 0
 938 92 938 92 832.5 40 c 0
 727 -12 727 -12 606 -12 c 16,19,20
EndSplineSet
Fore
SplineSet
110 400 m 19,0,1
 110 578 110 578 274 707 c 0,2,3
 354 770 354 770 446 805 c 1,4,5
 325 847 325 847 248 935 c 128,-1,6
 171 1023 171 1023 171 1139 c 128,-1,7
 171 1255 171 1255 231 1343 c 128,-1,8
 291 1431 291 1431 391 1478 c 128,-1,9
 491 1525 491 1525 610 1525 c 0,10,11
 790 1525 790 1525 914.5 1418.5 c 128,-1,12
 1039 1312 1039 1312 1039 1154 c 0,13,14
 1039 1035 1039 1035 955 943 c 128,-1,15
 871 851 871 851 747 797 c 1,16,17
 1030 677 1030 677 1075 521 c 0,18,19
 1094 456 1094 456 1094 399 c 0,20,21
 1094 281 1094 281 1026.5 185.5 c 128,-1,22
 959 90 959 90 852 39.5 c 128,-1,23
 745 -11 745 -11 616.5 -11 c 128,-1,24
 488 -11 488 -11 372.5 37.5 c 128,-1,25
 257 86 257 86 183.5 181.5 c 128,-1,26
 110 277 110 277 110 400 c 19,0,1
296 550 m 0,27,28
 242 477 242 477 242 393.5 c 131,-1,29
 242 310 242 310 298 243 c 0,30,31
 406 113 406 113 619 113 c 0,32,33
 703 113 703 113 770 144 c 0,34,35
 836 175 836 175 874 207 c 0,36,37
 962 282 962 282 962 401.5 c 128,-1,38
 962 521 962 521 880 591.5 c 128,-1,39
 798 662 798 662 674 713 c 2,40,-1
 598 744 l 1,41,42
 402 693 402 693 296 550 c 0,27,28
476 916 m 2,43,-1
 588 862 l 1,44,45
 741 924 741 924 788 953 c 0,46,47
 907 1025 907 1025 907 1144 c 128,-1,48
 907 1263 907 1263 818 1332 c 128,-1,49
 729 1401 729 1401 630 1401 c 128,-1,50
 531 1401 531 1401 461.5 1370 c 128,-1,51
 392 1339 392 1339 347.5 1279.5 c 128,-1,52
 303 1220 303 1220 303 1136.5 c 155,-1,53
 303 1053 303 1053 365.5 996 c 128,-1,54
 428 939 428 939 476 916 c 2,43,-1
EndSplineSet
EndChar

StartChar: nine
Encoding: 57 57 22
AltUni2: 002079.ffffffff.0 002079.ffffffff.0 002079.ffffffff.0 002079.ffffffff.0 002079.ffffffff.0 002079.ffffffff.0 002079.ffffffff.0 002079.ffffffff.0 002079.ffffffff.0 002079.ffffffff.0 002079.ffffffff.0 002079.ffffffff.0 002079.ffffffff.0 002079.ffffffff.0 002079.ffffffff.0 002079.ffffffff.0 002079.ffffffff.0 002079.ffffffff.0 002079.ffffffff.0
Width: 1163
VWidth: 0
Flags: W
HStem: -11 132<296.349 629.306> 563 124<394.483 734.5> 1389 125<412.669 726.529>
VStem: 110 138<837.193 1220.9>
LayerCount: 2
Fore
SplineSet
110 1025 m 1,0,1
 114 1170 114 1170 188 1300 c 128,-1,2
 262 1430 262 1430 400 1484 c 0,3,4
 476 1514 476 1514 566 1514 c 0,5,6
 789 1514 789 1514 915.5 1333 c 128,-1,7
 1042 1152 1042 1152 1042 825 c 0,8,9
 1042 427 1042 427 886.5 208 c 128,-1,10
 731 -11 731 -11 453 -11 c 0,11,12
 383 -11 383 -11 301 21 c 128,-1,13
 219 53 219 53 189 90 c 1,14,-1
 247 197 l 1,15,16
 354 121 354 121 454 121 c 0,17,18
 639 121 639 121 764.5 282 c 128,-1,19
 890 443 890 443 912 759 c 1,20,21
 911 758 911 758 899.5 741 c 128,-1,22
 888 724 888 724 879.5 713 c 128,-1,23
 871 702 871 702 852.5 682 c 128,-1,24
 834 662 834 662 816 648 c 0,25,26
 711 564 711 564 565 563 c 0,27,28
 362 563 362 563 236 689.5 c 128,-1,29
 110 816 110 816 110 1025 c 1,0,1
248 1025 m 1,30,31
 248 869 248 869 335.5 778 c 128,-1,32
 423 687 423 687 563.5 687 c 128,-1,33
 704 687 704 687 796 780 c 0,34,35
 864 849 864 849 896 972 c 0,36,37
 911 1027 911 1027 879 1123.5 c 128,-1,38
 847 1220 847 1220 814.5 1264 c 128,-1,39
 782 1308 782 1308 722 1348.5 c 128,-1,40
 662 1389 662 1389 587 1389 c 0,41,42
 454 1389 454 1389 355 1303.5 c 128,-1,43
 256 1218 256 1218 248 1025 c 1,30,31
EndSplineSet
EndChar

StartChar: zero
Encoding: 48 48 23
AltUni2: 002070.ffffffff.0 002070.ffffffff.0 002070.ffffffff.0 002070.ffffffff.0 002070.ffffffff.0 002070.ffffffff.0 002070.ffffffff.0 002070.ffffffff.0 002070.ffffffff.0 002070.ffffffff.0 002070.ffffffff.0 002070.ffffffff.0 002070.ffffffff.0 002070.ffffffff.0 002070.ffffffff.0 002070.ffffffff.0 002070.ffffffff.0 002070.ffffffff.0 002070.ffffffff.0
Width: 1255
VWidth: 0
Flags: W
HStem: -10.5 124<476.955 810.367> 1398 124<482.801 794.277>
VStem: 140 148<389.519 1104.44> 967 148<366.252 1109.69>
LayerCount: 2
Fore
SplineSet
154.5 526 m 128,-1,1
 140 628 140 628 140 741.5 c 155,-1,2
 140 855 140 855 154 960.5 c 128,-1,3
 168 1066 168 1066 204 1170.5 c 128,-1,4
 240 1275 240 1275 294.5 1351 c 128,-1,5
 349 1427 349 1427 437.5 1474.5 c 128,-1,6
 526 1522 526 1522 636 1522 c 128,-1,7
 746 1522 746 1522 830 1475 c 0,8,9
 981 1390 981 1390 1048 1187.5 c 128,-1,10
 1115 985 1115 985 1115 739 c 0,11,12
 1115 182 1115 182 832 34 c 0,13,14
 747 -10 747 -10 637.5 -10.5 c 128,-1,15
 528 -11 528 -11 440.5 34 c 128,-1,16
 353 79 353 79 297.5 151.5 c 128,-1,17
 242 224 242 224 205.5 324 c 128,-1,0
 169 424 169 424 154.5 526 c 128,-1,1
288 739 m 3,18,19
 288 388 288 388 394 236 c 0,20,21
 479 114 479 114 647.5 113.5 c 128,-1,22
 816 113 816 113 890 249 c 0,23,24
 967 391 967 391 967 703 c 0,25,26
 968 1051 968 1051 908 1194 c 0,27,28
 884 1252 884 1252 848 1300 c 0,29,30
 776 1398 776 1398 639 1398 c 0,31,32
 288 1398 288 1398 288 739 c 3,18,19
EndSplineSet
EndChar

StartChar: ampersand
Encoding: 38 38 24
Width: 1407
VWidth: 0
Flags: W
HStem: -11 124<391.623 728.656> -0 144<1135.34 1297> 1422 114<519.376 738.249>
VStem: 110 132<260.871 577.115> 320 132<1012.39 1350.5> 800 119<1097.31 1359.16> 1073 132<492.43 712>
LayerCount: 2
Back
SplineSet
551 -21 m 0,0,1
 368 -21 368 -21 239 105 c 0
 110 231 110 231 110 412 c 0,2,3
 110 480 110 480 129 539.5 c 0
 148 599 148 599 172 639.5 c 0
 196 680 196 680 250.5 731 c 0
 305 782 305 782 341 810 c 0
 377 838 377 838 456.377 895.319 c 0
 463 900 463 900 467 903 c 0,4,5
 502 928 502 928 556 958 c 0
 610 988 610 988 647.5 1010.5 c 0
 685 1033 685 1033 723 1063 c 0
 761 1093 761 1093 780.5 1133.5 c 0
 800 1174 800 1174 800 1226 c 0,6,7
 800 1305 800 1305 752 1363.5 c 0
 704 1422 704 1422 631 1422 c 0,8,9
 552 1422 552 1422 502 1358.5 c 0
 452 1295 452 1295 452 1208 c 0,10,11
 452 1109 452 1109 513.5 974 c 0
 575 839 575 839 664.5 713.5 c 0
 754 588 754 588 852 472 c 0
 950 356 950 356 1027 281 c 0
 1104 206 1104 206 1136 186 c 0,12,13
 1182 158 1182 158 1215 151 c 0
 1248 144 1248 144 1297 144 c 1,14,-1
 1297 0 l 1,15,16
 1268.23 0 1268.23 0 1249.94 -0.0502992 c 0
 1231.65 -0.100598 1231.65 -0.100598 1224.46 -0.150898 c 0
 1217.26 -0.201197 1217.26 -0.201197 1215.45 -0.201197 c 0,17,18
 1173.71 -0.201197 1173.71 -0.201197 1130.01 20.2328 c 0
 1086.31 40.6667 1086.31 40.6667 1009 111 c 0,19,20
 982 135 982 135 920 199 c 0
 858 263 858 263 749.5 392 c 0
 641 521 641 521 549.5 652.5 c 0
 458 784 458 784 389 940 c 0
 320 1096 320 1096 320 1218 c 0,21,22
 320 1347 320 1347 407 1441.5 c 0
 494 1536 494 1536 620 1536 c 0,23,24
 756 1536 756 1536 837.5 1444.5 c 0
 919 1353 919 1353 919 1220 c 0,25,26
 919 1160 919 1160 898.5 1108.5 c 0
 878 1057 878 1057 847 1021 c 0
 816 985 816 985 767.5 948 c 0
 719 911 719 911 675 885 c 0
 631 859 631 859 572 822.5 c 0
 513 786 513 786 473 755 c 0,27,28
 425 718 425 718 398.5 696.5 c 0
 372 675 372 675 337 640 c 0
 302 605 302 605 285 575.5 c 0
 268 546 268 546 255 504.5 c 0
 242 463 242 463 242 416 c 0,29,30
 242 286 242 286 333.5 194.5 c 0
 425 103 425 103 555 103 c 0,31,32
 628 103 628 103 702.5 139.5 c 0
 777 176 777 176 833.5 229.5 c 0
 890 283 890 283 937.5 345.5 c 0
 985 408 985 408 1012.5 459.5 c 0
 1040 511 1040 511 1049 543 c 0,33,34
 1073 629 1073 629 1073 712 c 1,35,-1
 1205 712 l 1,36,37
 1205 667 1205 667 1194.5 595.5 c 0
 1184 524 1184 524 1160 470 c 0,38,39
 942 -21 942 -21 551 -21 c 0,0,1
EndSplineSet
Fore
SplineSet
234 715 m 0,0,1
 299 781 299 781 421 870 c 1,2,3
 320 1072 320 1072 320 1209.5 c 128,-1,4
 320 1347 320 1347 407 1441.5 c 128,-1,5
 494 1536 494 1536 625 1536 c 128,-1,6
 756 1536 756 1536 837.5 1444.5 c 128,-1,7
 919 1353 919 1353 919 1212 c 0,8,9
 918 1070 918 1070 790 966 c 0,10,11
 700 893 700 893 588 832 c 1,12,13
 725 604 725 604 950 362 c 1,14,15
 1029 471 1029 471 1051 550 c 128,-1,16
 1073 629 1073 629 1073 712 c 1,17,-1
 1205 712 l 1,18,19
 1205 571 1205 571 1158.5 465.5 c 128,-1,20
 1112 360 1112 360 1045 263 c 1,21,22
 1146 166 1146 166 1215 151 c 0,23,24
 1248 144 1248 144 1297 144 c 1,25,-1
 1297 0 l 1,26,-1
 1215 -0 l 2,27,28
 1166 0 1166 0 1113 29.5 c 128,-1,29
 1060 59 1060 59 960 159 c 1,30,31
 793 -11 793 -11 551 -11 c 0,32,33
 367 -11 367 -11 238.5 111.5 c 128,-1,34
 110 234 110 234 110 411.5 c 147,-1,35
 110 589 110 589 234 715 c 0,0,1
242 416 m 27,36,37
 242 289 242 289 334.5 201 c 128,-1,38
 427 113 427 113 555 113 c 0,39,40
 719 113 719 113 864 260 c 1,41,42
 624 524 624 524 481 761 c 1,43,-1
 404 702 l 1,44,45
 320 636 320 636 295 592 c 0,46,47
 242 503 242 503 242 416 c 27,36,37
502 1358.5 m 128,-1,49
 452 1295 452 1295 452 1197 c 131,-1,50
 452 1099 452 1099 528 942 c 1,51,52
 670 1022 670 1022 707.5 1051 c 128,-1,53
 745 1080 745 1080 760 1102 c 0,54,55
 800 1159 800 1159 800 1232 c 128,-1,56
 800 1305 800 1305 752 1363.5 c 128,-1,57
 704 1422 704 1422 628 1422 c 128,-1,48
 552 1422 552 1422 502 1358.5 c 128,-1,49
EndSplineSet
EndChar

StartChar: A
Encoding: 65 65 25
AltUni2: 000410.ffffffff.0 000391.ffffffff.0 000410.ffffffff.0 000391.ffffffff.0 000410.ffffffff.0 000391.ffffffff.0 000410.ffffffff.0 000391.ffffffff.0 000410.ffffffff.0 000391.ffffffff.0 000410.ffffffff.0 000391.ffffffff.0 000410.ffffffff.0 000391.ffffffff.0 000410.ffffffff.0 000391.ffffffff.0 000410.ffffffff.0 000391.ffffffff.0 000410.ffffffff.0 000391.ffffffff.0 000391.ffffffff.0 000410.ffffffff.0 000391.ffffffff.0 000410.ffffffff.0 000391.ffffffff.0 000410.ffffffff.0 000391.ffffffff.0 000410.ffffffff.0 000391.ffffffff.0 000410.ffffffff.0 000391.ffffffff.0 000410.ffffffff.0 000391.ffffffff.0 000410.ffffffff.0 000391.ffffffff.0 000410.ffffffff.0 000391.ffffffff.0 000410.ffffffff.0 000391.ffffffff.0 000410.ffffffff.0 000391.ffffffff.0 000410.ffffffff.0
Width: 1130
VWidth: 0
Flags: W
HStem: 0 21G<25 184.565 945.561 1105> 478 124<346 786> 1495 20G<451.297 678.703>
DStem2: 25 0 179 0 0.274218 0.961668<42.2296 538.378 666.948 1483.83> 673 1515 565 1389 0.274218 -0.961668<91.5546 908.989 1037.83 1533.16>
LayerCount: 2
Back
SplineSet
286 0 m 25,0,-1
 672 1389 l 1,1,-1
 1058 13 l 1
EndSplineSet
Fore
SplineSet
25 0 m 29,0,-1
 457 1515 l 1,1,-1
 673 1515 l 1,2,-1
 1105 0 l 1,3,-1
 951 0 l 1,4,-1
 821 478 l 1,5,-1
 312 478 l 1,6,-1
 179 0 l 1,7,-1
 25 0 l 29,0,-1
346 602 m 29,8,-1
 786 602 l 1,9,-1
 565 1389 l 1,10,-1
 346 602 l 29,8,-1
EndSplineSet
EndChar

StartChar: B
Encoding: 66 66 26
AltUni2: 000412.ffffffff.0 000392.ffffffff.0 000412.ffffffff.0 000392.ffffffff.0 000412.ffffffff.0 000392.ffffffff.0 000412.ffffffff.0 000392.ffffffff.0 000412.ffffffff.0 000392.ffffffff.0 000412.ffffffff.0 000392.ffffffff.0 000412.ffffffff.0 000392.ffffffff.0 000412.ffffffff.0 000392.ffffffff.0 000412.ffffffff.0 000392.ffffffff.0 000412.ffffffff.0 000392.ffffffff.0 000392.ffffffff.0 000412.ffffffff.0 000392.ffffffff.0 000412.ffffffff.0 000392.ffffffff.0 000412.ffffffff.0 000392.ffffffff.0 000412.ffffffff.0 000392.ffffffff.0 000412.ffffffff.0 000392.ffffffff.0 000412.ffffffff.0 000392.ffffffff.0 000412.ffffffff.0 000392.ffffffff.0 000412.ffffffff.0 000392.ffffffff.0 000412.ffffffff.0 000392.ffffffff.0 000412.ffffffff.0 000392.ffffffff.0 000412.ffffffff.0
Width: 1132
VWidth: 0
Flags: W
HStem: 0 124<283 814.241> 726 124<283 771.399> 1391 124<283 798.203>
VStem: 135 148<124 726 850 1391> 895 134<964.308 1299.14> 924 140<232.569 584.922>
LayerCount: 2
Back
SplineSet
238 726 m 25,0,-1
 238 124 l 1,1,-1
 563 124 l 2,2,3
 607 124 607 124 641 127.5 c 0
 675 131 675 131 722.5 147.5 c 0
 770 164 770 164 801.5 192.5 c 0
 833 221 833 221 856 277 c 0
 879 333 879 333 879 410 c 0,4,5
 879 552 879 552 792 639 c 0
 705 726 705 726 563 726 c 2,6,-1
 238 726 l 25,0,-1
238 850 m 25,7,-1
 563 853 l 2,8,9
 599 853 599 853 627.5 856.5 c 0
 656 860 656 860 700.5 877 c 0
 745 894 745 894 775 923.5 c 0
 805 953 805 953 827.5 1012 c 0
 850 1071 850 1071 850 1152 c 0,10,11
 850 1269 850 1269 776.5 1330 c 0
 703 1391 703 1391 563 1391 c 2,12,-1
 238 1391 l 1,13,-1
 238 850 l 25,7,-1
90 0 m 25,14,-1
 90 1515 l 1,15,-1
 563 1515 l 2,16,17
 746 1515 746 1515 865 1410.5 c 0
 984 1306 984 1306 984 1152 c 0,18,19
 984 1105 984 1105 976.5 1064 c 0
 969 1023 969 1023 959 994 c 0
 949 965 949 965 928.5 938.5 c 0
 908 912 908 912 894 896.5 c 0
 880 881 880 881 852 863.5 c 0
 824 846 824 846 811 839 c 0
 798 832 798 832 767.5 818 c 0
 737 804 737 804 729 800 c 1,20,21
 785 774 785 774 824.5 751 c 0
 864 728 864 728 903.5 694.5 c 0
 943 661 943 661 966.5 622.5 c 0
 990 584 990 584 1004.5 530 c 0
 1019 476 1019 476 1019 410 c 0,22,23
 1019 245 1019 245 885.5 122.5 c 0
 752 0 752 0 563 0 c 2,24,-1
 90 0 l 25,14,-1
EndSplineSet
Fore
SplineSet
135 0 m 29,0,-1
 135 1515 l 1,1,-1
 608 1515 l 2,2,3
 791 1515 791 1515 910 1410.5 c 128,-1,4
 1029 1306 1029 1306 1029 1152 c 0,5,6
 1029 898 1029 898 851 826 c 0,7,8
 820 814 820 814 774 800 c 1,9,10
 938 758 938 758 1020 603 c 0,11,12
 1064 518 1064 518 1064 410 c 0,13,14
 1064 223 1064 223 947 111.5 c 128,-1,15
 830 0 830 0 608 0 c 2,16,-1
 135 0 l 29,0,-1
283 124 m 29,17,-1
 608 124 l 2,18,19
 770 124 770 124 846 192 c 0,20,21
 878 220 878 220 901 276.5 c 128,-1,22
 924 333 924 333 924 410 c 0,23,24
 924 552 924 552 837 639 c 128,-1,25
 750 726 750 726 608 726 c 2,26,-1
 283 726 l 1,27,-1
 283 124 l 29,17,-1
608 853 m 1,28,29
 895 853 895 853 895 1152 c 0,30,31
 895 1269 895 1269 821.5 1330 c 128,-1,32
 748 1391 748 1391 608 1391 c 2,33,-1
 283 1391 l 1,34,-1
 283 850 l 29,35,-1
 608 853 l 1,28,29
EndSplineSet
EndChar

StartChar: C
Encoding: 67 67 27
AltUni2: 000421.ffffffff.0 000421.ffffffff.0 000421.ffffffff.0 000421.ffffffff.0 000421.ffffffff.0 000421.ffffffff.0 000421.ffffffff.0 000421.ffffffff.0 000421.ffffffff.0 000421.ffffffff.0 000421.ffffffff.0 000421.ffffffff.0 000421.ffffffff.0 000421.ffffffff.0 000421.ffffffff.0 000421.ffffffff.0 000421.ffffffff.0 000421.ffffffff.0 000421.ffffffff.0 000421.ffffffff.0 000421.ffffffff.0
Width: 1174
VWidth: 0
Flags: WO
HStem: -16 124<445.775 788.819> 1408 124<444.111 775.173>
VStem: 80 148<410.867 1090.53>
LayerCount: 2
Fore
SplineSet
932 1046 m 1,0,1
 882 1408 882 1408 618 1408 c 0,2,3
 228 1408 228 1408 228 759 c 0,4,5
 228 481 228 481 310 305 c 0,6,7
 354 212 354 212 432 160 c 128,-1,8
 510 108 510 108 603 108 c 0,9,10
 828 108 828 108 916 294 c 0,11,12
 957 381 957 381 960 463 c 1,13,-1
 1106 440 l 1,14,15
 1102 429 1102 429 1087.5 386 c 128,-1,16
 1073 343 1073 343 1063 316 c 0,17,18
 1030 226 1030 226 986 165 c 0,19,20
 855 -16 855 -16 652.5 -16 c 128,-1,21
 450 -16 450 -16 334 74 c 0,22,23
 80 270 80 270 80 776 c 31,24,25
 80 1002 80 1002 161 1202 c 128,-1,26
 242 1402 242 1402 412 1486 c 0,27,28
 504 1532 504 1532 600 1532 c 0,29,30
 773 1532 773 1532 874.5 1446 c 128,-1,31
 976 1360 976 1360 1022 1262 c 0,32,33
 1066 1162 1066 1162 1078 1112 c 2,34,-1
 1084 1088 l 1,35,-1
 1084 1087 l 1,36,-1
 932 1046 l 1,0,1
EndSplineSet
EndChar

StartChar: dollar
Encoding: 36 36 28
Width: 1201
VWidth: 0
Flags: W
HStem: -10 124<654 817.594>
VStem: 157 148<981.624 1294.67> 506 148<-213 -10 130 689 887 1391 1512.33 1564> 923 148<220.804 550.929>
DStem2: 506 887 506 740 0.917997 -0.396588<-206.741 0>
LayerCount: 2
Back
SplineSet
506 1564 m 1,0,-1
 654 1564 l 1,1,-1
 654 -213 l 1,2,-1
 506 -213 l 1,3,-1
 506 1564 l 1,0,-1
283 303 m 1,4,5
 293 283.5 l 2
 303 264 303 264 327.5 236 c 0
 352 208 352 208 389 180.5 c 0
 426 153 426 153 494 133.5 c 0
 562 114 562 114 647 114 c 0,6,7
 785 114 785 114 854 189 c 0
 923 264 923 264 923 385 c 0,8,9
 923 487 923 487 879.5 551.5 c 0
 836 616 836 616 727 661 c 0,10,11
 695 674 695 674 642 692.5 c 0
 589 711 589 711 547.5 725 c 0
 506 739 506 739 454 761.5 c 0
 402 784 402 784 362 806.5 c 0
 322 829 322 829 282 863 c 0
 242 897 242 897 216 935.5 c 0
 190 974 190 974 173.5 1027.5 c 0
 157 1081 157 1081 157 1143 c 0,12,13
 157 1212 157 1212 186.5 1279 c 0
 216 1346 216 1346 269 1401 c 0
 322 1456 322 1456 404 1489.5 c 0
 486 1523 486 1523 582 1523 c 0,14,15
 638 1523 638 1523 687 1513.5 c 0
 736 1504 736 1504 772 1490.5 c 0
 808 1477 808 1477 840 1455.5 c 0
 872 1434 872 1434 892 1415.5 c 0
 912 1397 912 1397 931 1372 c 0
 950 1347 950 1347 958.5 1332.5 c 0
 967 1318 967 1318 977.5 1298 c 0
 988 1278 988 1278 990 1275 c 1,16,-1
 870 1211 l 1,17,18
 860 1241 860 1241 841.5 1269.5 c 0
 823 1298 823 1298 790.5 1329.5 c 0
 758 1361 758 1361 704 1380 c 0
 650 1399 650 1399 582 1399 c 0,19,20
 457 1399 457 1399 381 1331 c 0
 305 1263 305 1263 305 1143 c 0,21,22
 305 1078 305 1078 320.5 1033 c 0
 336 988 336 988 373 959 c 0
 410 930 410 930 435.5 917 c 0
 461 904 461 904 515.945 883.84 c 0
 530 879 530 879 537 876 c 0,23,24
 562 866 562 866 608.5 851.5 c 0
 655 837 655 837 693 825.5 c 0
 731 814 731 814 780.5 793 c 0
 830 772 830 772 868.5 750 c 0
 907 728 907 728 946.5 692 c 0
 986 656 986 656 1012 614.5 c 0
 1038 573 1038 573 1054.5 514 c 0
 1071 455 1071 455 1071 385 c 0,25,26
 1071 347 1071 347 1059.5 300 c 0
 1048 253 1048 253 1017.5 197 c 0
 987 141 987 141 941.5 96 c 0
 896 51 896 51 819 20.5 c 0
 742 -10 742 -10 647 -10 c 0,27,28
 574 -10 574 -10 508.5 3 c 0
 443 16 443 16 396 36.5 c 0
 349 57 349 57 309.5 82.5 c 0
 270 108 270 108 244.5 133 c 0
 219 158 219 158 201 178.5 c 0
 183 199 183 199 174.5 212 c 0
 166 225 166 225 165 225 c 2,29,-1
 283 303 l 1,4,5
506 1548 m 1,30,-1
 654 1548 l 1,31,-1
 654 -213 l 1,32,-1
 506 -213 l 1,33,-1
 506 1548 l 1,30,-1
260 416 m 2,34,35
 261 416 261 416 265 399.5 c 0
 269 383 269 383 278.5 356 c 0
 288 329 288 329 303.5 297 c 0
 319 265 319 265 348.5 233 c 0
 378 201 378 201 416.5 174 c 0
 455 147 455 147 515 130.5 c 0
 575 114 575 114 647 114 c 0,36,37
 785 114 785 114 854 189 c 0
 923 264 923 264 923 385 c 0,38,39
 923 487 923 487 879.5 551.5 c 0
 836 616 836 616 727 661 c 0,40,41
 695 674 695 674 642 692.5 c 0
 589 711 589 711 547.5 725 c 0
 506 739 506 739 454 761.5 c 0
 402 784 402 784 362 806.5 c 0
 322 829 322 829 282 863 c 0
 242 897 242 897 216 935.5 c 0
 190 974 190 974 173.5 1027.5 c 0
 157 1081 157 1081 157 1143 c 0,42,43
 157 1212 157 1212 186.5 1279 c 0
 216 1346 216 1346 269 1401 c 0
 322 1456 322 1456 404 1489.5 c 0
 486 1523 486 1523 582 1523 c 0,44,45
 666 1523 666 1523 736 1499 c 0
 806 1475 806 1475 848.5 1440.5 c 0
 891 1406 891 1406 924.5 1360 c 0
 958 1314 958 1314 973.5 1277.5 c 0
 989 1241 989 1241 1002.5 1206 c 0
 1016 1171 1016 1171 1019 1165 c 1,46,-1
 889 1115 l 1,47,48
 888 1118 888 1118 879.5 1145.5 c 0
 871 1173 871 1173 866 1188 c 0
 861 1203 861 1203 847 1233.5 c 0
 833 1264 833 1264 819 1283 c 0
 805 1302 805 1302 781 1326.5 c 0
 757 1351 757 1351 730 1365 c 0
 703 1379 703 1379 664.5 1389 c 0
 626 1399 626 1399 582 1399 c 0,49,50
 457 1399 457 1399 381 1331 c 0
 305 1263 305 1263 305 1143 c 0,51,52
 305 1078 305 1078 320.5 1033 c 0
 336 988 336 988 373 959 c 0
 410 930 410 930 435.5 917 c 0
 461 904 461 904 515.945 883.84 c 0
 530 879 530 879 537 876 c 0,53,54
 562 866 562 866 608.5 851.5 c 0
 655 837 655 837 693 825.5 c 0
 731 814 731 814 780.5 793 c 0
 830 772 830 772 868.5 750 c 0
 907 728 907 728 946.5 692 c 0
 986 656 986 656 1012 614.5 c 0
 1038 573 1038 573 1054.5 514 c 0
 1071 455 1071 455 1071 385 c 0,55,56
 1071 347 1071 347 1059.5 300 c 0
 1048 253 1048 253 1017.5 197 c 0
 987 141 987 141 941.5 96 c 0
 896 51 896 51 819 20.5 c 0
 742 -10 742 -10 647 -10 c 0,57,58
 559 -10 559 -10 483 11 c 0
 407 32 407 32 355.5 65 c 0
 304 98 304 98 262.5 138.5 c 0
 221 179 221 179 196 219.5 c 0
 171 260 171 260 154.5 293 c 0
 138 326 138 326 131 347 c 0
 124 368 124 368 123 368 c 2,59,-1
 260 416 l 2,34,35
EndSplineSet
Fore
SplineSet
157 1150 m 3,0,1
 157 1226 157 1226 198 1304.5 c 128,-1,2
 239 1383 239 1383 320 1442 c 128,-1,3
 401 1501 401 1501 506 1517 c 1,4,-1
 506 1564 l 1,5,-1
 654 1564 l 1,6,-1
 654 1519 l 1,7,8
 864 1496 864 1496 962 1326 c 0,9,10
 970 1313 970 1313 979 1295.5 c 128,-1,11
 988 1278 988 1278 990 1275 c 1,12,-1
 870 1211 l 1,13,14
 854 1262 854 1262 818 1302 c 0,15,16
 751 1376 751 1376 654 1393 c 1,17,-1
 654 838 l 1,18,-1
 734 812 l 1,19,20
 874 764 874 764 972.5 667 c 128,-1,21
 1071 570 1071 570 1071 385 c 0,22,23
 1071 292 1071 292 1030.5 216.5 c 128,-1,24
 990 141 990 141 945.5 96 c 128,-1,25
 901 51 901 51 825 20.5 c 128,-1,26
 749 -10 749 -10 654 -10 c 1,27,-1
 654 -213 l 1,28,-1
 506 -213 l 1,29,-1
 506 3 l 1,30,31
 334 38 334 38 218 161 c 0,32,33
 192 189 192 189 178 207 c 2,34,-1
 165 225 l 1,35,-1
 283 303 l 2,36,37
 284 304 284 304 290 290 c 0,38,39
 308 253 308 253 356.5 204.5 c 128,-1,40
 405 156 405 156 506 130 c 1,41,-1
 506 740 l 1,42,43
 306 818 306 818 231.5 913.5 c 128,-1,44
 157 1009 157 1009 157 1150 c 3,0,1
359 1307 m 128,-1,46
 305 1242 305 1242 305 1161 c 3,47,48
 304 1018 304 1018 368 962 c 0,49,50
 416 920 416 920 506 887 c 1,51,-1
 506 1391 l 1,52,45
 413 1372 413 1372 359 1307 c 128,-1,46
654 114 m 1,53,54
 788 116 788 116 855.5 191 c 128,-1,55
 923 266 923 266 923 376.5 c 128,-1,56
 923 487 923 487 879.5 551.5 c 128,-1,57
 836 616 836 616 727 661 c 1,58,-1
 654 689 l 1,59,-1
 654 114 l 1,53,54
EndSplineSet
EndChar

StartChar: D
Encoding: 68 68 29
Width: 1214
VWidth: 0
Flags: W
HStem: 0 124<283 719.901> 1391 124<283 722.625>
VStem: 135 148<124 1391> 998 148<440.566 1083.26>
LayerCount: 2
Fore
SplineSet
135 0 m 29,0,-1
 135 1515 l 1,1,-1
 496 1515 l 2,2,3
 998 1515 998 1515 1110 1069 c 0,4,5
 1146 925 1146 925 1146 775 c 128,-1,6
 1146 625 1146 625 1125 519 c 0,7,8
 1079 288 1079 288 926 144 c 128,-1,9
 773 0 773 0 496 0 c 2,10,-1
 135 0 l 29,0,-1
283 124 m 29,11,-1
 496 124 l 2,12,13
 824 124 824 124 940 403 c 0,14,15
 998 543 998 543 998 745 c 0,16,17
 998 1104 998 1104 860 1257 c 0,18,19
 806 1316 806 1316 713.5 1353.5 c 128,-1,20
 621 1391 621 1391 496 1391 c 2,21,-1
 283 1391 l 1,22,-1
 283 124 l 29,11,-1
EndSplineSet
EndChar

StartChar: E
Encoding: 69 69 30
AltUni2: 000415.ffffffff.0 000395.ffffffff.0 000415.ffffffff.0 000395.ffffffff.0 000415.ffffffff.0 000395.ffffffff.0 000415.ffffffff.0 000395.ffffffff.0 000415.ffffffff.0 000395.ffffffff.0 000415.ffffffff.0 000395.ffffffff.0 000415.ffffffff.0 000395.ffffffff.0 000415.ffffffff.0 000395.ffffffff.0 000415.ffffffff.0 000395.ffffffff.0 000415.ffffffff.0 000395.ffffffff.0 000395.ffffffff.0 000415.ffffffff.0 000395.ffffffff.0 000415.ffffffff.0 000395.ffffffff.0 000415.ffffffff.0 000395.ffffffff.0 000415.ffffffff.0 000395.ffffffff.0 000415.ffffffff.0 000395.ffffffff.0 000415.ffffffff.0 000395.ffffffff.0 000415.ffffffff.0 000395.ffffffff.0 000415.ffffffff.0 000395.ffffffff.0 000415.ffffffff.0 000395.ffffffff.0 000415.ffffffff.0 000395.ffffffff.0 000415.ffffffff.0
Width: 1062
VWidth: 0
Flags: W
HStem: 0 133<283 994> 734 124<283 766> 1391 124<283 956>
VStem: 135 148<133 734 858 1391>
LayerCount: 2
Fore
SplineSet
135 0 m 29,0,-1
 135 1515 l 1,1,-1
 956 1515 l 1,2,-1
 956 1391 l 1,3,-1
 283 1391 l 1,4,-1
 283 858 l 1,5,-1
 766 858 l 1,6,-1
 766 734 l 1,7,-1
 283 734 l 1,8,-1
 283 133 l 1,9,-1
 994 133 l 1,10,-1
 994 0 l 1,11,-1
 135 0 l 29,0,-1
EndSplineSet
EndChar

StartChar: F
Encoding: 70 70 31
Width: 1024
VWidth: 0
Flags: W
HStem: 0 21G<135 283> 734 124<283 766> 1391 124<283 956>
VStem: 135 148<0 734 858 1391>
LayerCount: 2
Fore
SplineSet
135 0 m 25,0,-1
 135 1515 l 1,1,-1
 956 1515 l 1,2,-1
 956 1391 l 1,3,-1
 283 1391 l 1,4,-1
 283 858 l 1,5,-1
 766 858 l 1,6,-1
 766 734 l 1,7,-1
 283 734 l 1,8,-1
 283 0 l 1,9,-1
 135 0 l 25,0,-1
EndSplineSet
EndChar

StartChar: G
Encoding: 71 71 32
Width: 1246
VWidth: 0
Flags: W
HStem: -16 124<453.485 811.932> 0 21G<998 1118> 591 124<636 973> 1063 21G<966.5 1047.56> 1408 124<459.087 802.622>
VStem: 80 148<427.971 1090.86> 973 145<297.923 591> 998 120<0 192>
LayerCount: 2
Back
SplineSet
1000 241 m 25,0,-1
 1000 0 l 1,1,-1
 1120 0 l 1,2,-1
 1120 715 l 1,3,-1
 638 715 l 1,4,-1
 638 591 l 1,5,-1
 972 591 l 1,6,7
 993 106 993 106 638 106 c 0,8,9
 541 106 541 106 467.5 142.5 c 0
 394 179 394 179 349.5 238.5 c 0
 305 298 305 298 277.5 386 c 0
 250 474 250 474 240 565 c 0
 230 656 230 656 230 768 c 0,10,11
 230 868 230 868 242.5 957.5 c 0
 255 1047 255 1047 284.5 1131.5 c 0
 314 1216 314 1216 359.5 1276.5 c 0
 405 1337 405 1337 476.5 1373.5 c 0
 548 1410 548 1410 638 1410 c 0,12,13
 699 1410 699 1410 750 1390.5 c 0
 801 1371 801 1371 834 1342.5 c 0
 867 1314 867 1314 893 1274 c 0
 919 1234 919 1234 932.5 1201.5 c 0
 946 1169 946 1169 955 1133 c 0
 964 1097 964 1097 966 1084 c 0
 968 1071 968 1071 968.997 1063.03 c 0
 1114 1099 l 1,15,16
 1087 1199 1087 1199 1044.5 1277 c 0
 1002 1355 1002 1355 955 1402.5 c 0
 908 1450 908 1450 851.5 1480.5 c 0
 795 1511 795 1511 743.5 1522.5 c 0
 692 1534 692 1534 638 1534 c 0,17,18
 524 1534 524 1534 429.5 1489.5 c 0
 335 1445 335 1445 271.5 1371 c 0
 208 1297 208 1297 164.5 1197 c 0
 121 1097 121 1097 101.5 989.5 c 0
 82 882 82 882 82 768 c 0,19,20
 82 651 82 651 100.5 542 c 0
 119 433 119 433 161.5 330 c 0
 204 227 204 227 267 150.5 c 0
 330 74 330 74 425.5 28 c 0
 521 -18 521 -18 638 -18 c 0,21,22
 698 -18 698 -18 750.5 -3 c 0
 803 12 803 12 839.5 33 c 0
 876 54 876 54 913.5 90.5 c 0
 951 127 951 127 973 155.5 c 0
 995 184 995 184 1026 229 c 1,23,-1
 1000 241 l 25,0,-1
EndSplineSet
Fore
SplineSet
98.5 542 m 128,-1,1
 80 651 80 651 80 756.5 c 155,-1,2
 80 862 80 862 94 953 c 128,-1,3
 108 1044 108 1044 136 1130 c 0,4,5
 192 1301 192 1301 318 1416.5 c 128,-1,6
 444 1532 444 1532 636 1532 c 0,7,8
 777 1532 777 1532 901 1447 c 0,9,10
 1046 1348 1046 1348 1112 1099 c 1,11,-1
 967 1063 l 1,12,13
 966 1070 966 1070 964.5 1082.5 c 128,-1,14
 963 1095 963 1095 953.5 1131 c 0,15,16
 944 1168 944 1168 931 1200 c 0,17,18
 898 1282 898 1282 827 1345 c 128,-1,19
 756 1408 756 1408 640 1408 c 128,-1,20
 524 1408 524 1408 442 1354 c 128,-1,21
 360 1300 360 1300 315 1206 c 0,22,23
 228 1025 228 1025 228 742.5 c 128,-1,24
 228 460 228 460 308 308 c 0,25,26
 413 108 413 108 639 108 c 0,27,28
 920 108 920 108 964 432 c 0,29,30
 974 502 974 502 973 591 c 1,31,-1
 636 591 l 1,32,-1
 636 715 l 1,33,-1
 1118 715 l 1,34,-1
 1118 0 l 1,35,-1
 998 0 l 1,36,-1
 998 192 l 1,37,38
 885 36 885 36 759 0 c 0,39,40
 703 -16 703 -16 611 -16 c 128,-1,41
 519 -16 519 -16 423.5 30 c 128,-1,42
 328 76 328 76 265 152 c 128,-1,43
 202 228 202 228 159.5 330.5 c 128,-1,0
 117 433 117 433 98.5 542 c 128,-1,1
EndSplineSet
EndChar

StartChar: I
Encoding: 73 73 33
AltUni2: 0004c0.ffffffff.0 000406.ffffffff.0 000399.ffffffff.0 0004c0.ffffffff.0 000406.ffffffff.0 000399.ffffffff.0 0004c0.ffffffff.0 000406.ffffffff.0 000399.ffffffff.0 0004c0.ffffffff.0 000406.ffffffff.0 000399.ffffffff.0 0004c0.ffffffff.0 000406.ffffffff.0 000399.ffffffff.0 0004c0.ffffffff.0 000406.ffffffff.0 000399.ffffffff.0 0004c0.ffffffff.0 000406.ffffffff.0 000399.ffffffff.0 0004c0.ffffffff.0 000406.ffffffff.0 000399.ffffffff.0 0004c0.ffffffff.0 000406.ffffffff.0 000399.ffffffff.0 0004c0.ffffffff.0 000406.ffffffff.0 000399.ffffffff.0 000399.ffffffff.0 000406.ffffffff.0 0004c0.ffffffff.0 000399.ffffffff.0 000406.ffffffff.0 0004c0.ffffffff.0 000399.ffffffff.0 000406.ffffffff.0 0004c0.ffffffff.0 000399.ffffffff.0 000406.ffffffff.0 0004c0.ffffffff.0 000399.ffffffff.0 000406.ffffffff.0 0004c0.ffffffff.0 000399.ffffffff.0 000406.ffffffff.0 0004c0.ffffffff.0 000399.ffffffff.0 000406.ffffffff.0 0004c0.ffffffff.0 000399.ffffffff.0 000406.ffffffff.0 0004c0.ffffffff.0 000399.ffffffff.0 000406.ffffffff.0 0004c0.ffffffff.0 000399.ffffffff.0 000406.ffffffff.0 0004c0.ffffffff.0 000399.ffffffff.0 000406.ffffffff.0 0004c0.ffffffff.0
Width: 418
VWidth: 0
Flags: W
HStem: 0 21G<135 283> 1495 20G<135 283>
VStem: 135 148<0 1515>
LayerCount: 2
Fore
SplineSet
135 0 m 5,0,-1
 135 1515 l 1,1,-1
 283 1515 l 1,2,-1
 283 0 l 1,3,-1
 135 0 l 5,0,-1
EndSplineSet
EndChar

StartChar: K
Encoding: 75 75 34
AltUni2: 00041a.ffffffff.0 00039a.ffffffff.0 00041a.ffffffff.0 00039a.ffffffff.0 00041a.ffffffff.0 00039a.ffffffff.0 00041a.ffffffff.0 00039a.ffffffff.0 00041a.ffffffff.0 00039a.ffffffff.0 00041a.ffffffff.0 00039a.ffffffff.0 00041a.ffffffff.0 00039a.ffffffff.0 00041a.ffffffff.0 00039a.ffffffff.0 00041a.ffffffff.0 00039a.ffffffff.0 00041a.ffffffff.0 00039a.ffffffff.0 00039a.ffffffff.0 00041a.ffffffff.0 00039a.ffffffff.0 00041a.ffffffff.0 00039a.ffffffff.0 00041a.ffffffff.0 00039a.ffffffff.0 00041a.ffffffff.0 00039a.ffffffff.0 00041a.ffffffff.0 00039a.ffffffff.0 00041a.ffffffff.0 00039a.ffffffff.0 00041a.ffffffff.0 00039a.ffffffff.0 00041a.ffffffff.0 00039a.ffffffff.0 00041a.ffffffff.0 00039a.ffffffff.0 00041a.ffffffff.0 00039a.ffffffff.0 00041a.ffffffff.0
Width: 1140
VWidth: 0
Flags: W
HStem: 0 21G<135 284 938.854 1115> 1495 20G<135 284 886.024 1060>
VStem: 135 149<0 495 691 1515>
DStem2: 284 691 284 495 0.605479 0.795861<0 254.417 410.018 1029.37> 626 946 532 822 0.459193 -0.888337<66.9896 988.686>
LayerCount: 2
Back
SplineSet
1064 1515 m 25,0,-1
 297 507 l 1
EndSplineSet
Fore
SplineSet
135 0 m 25,0,-1
 135 1515 l 1,1,-1
 284 1515 l 1,2,-1
 284 691 l 1,3,-1
 901 1515 l 1,4,-1
 1060 1515 l 1,5,-1
 626 946 l 1,6,-1
 1115 0 l 1,7,-1
 949 0 l 1,8,-1
 532 822 l 1,9,-1
 284 495 l 1,10,-1
 284 0 l 1,11,-1
 135 0 l 25,0,-1
EndSplineSet
EndChar

StartChar: L
Encoding: 76 76 35
Width: 980
VWidth: 0
Flags: W
HStem: 0 142<283 955> 1495 20G<135 283>
VStem: 135 148<142 1515>
LayerCount: 2
Fore
SplineSet
135 0 m 29,0,-1
 135 1515 l 1,1,-1
 283 1515 l 1,2,-1
 283 142 l 1,3,-1
 955 142 l 1,4,-1
 955 0 l 1,5,-1
 135 0 l 29,0,-1
EndSplineSet
EndChar

StartChar: N
Encoding: 78 78 36
AltUni2: 00039d.ffffffff.0 00039d.ffffffff.0 00039d.ffffffff.0 00039d.ffffffff.0 00039d.ffffffff.0 00039d.ffffffff.0 00039d.ffffffff.0 00039d.ffffffff.0 00039d.ffffffff.0 00039d.ffffffff.0 00039d.ffffffff.0 00039d.ffffffff.0 00039d.ffffffff.0 00039d.ffffffff.0 00039d.ffffffff.0 00039d.ffffffff.0 00039d.ffffffff.0 00039d.ffffffff.0 00039d.ffffffff.0 00039d.ffffffff.0 00039d.ffffffff.0
Width: 1251
VWidth: 0
Flags: W
HStem: 0 21G<128 276 985.474 1123> 1495 20G<128 374.589 975 1123>
VStem: 128 148<0 1368> 975 148<361 1515>
DStem2: 364 1515 276 1368 0.465746 -0.884918<89.0973 1305.77>
LayerCount: 2
Back
SplineSet
368 1515 m 25,0,-1
 1127 0 l 1
EndSplineSet
Fore
SplineSet
128 0 m 29,0,-1
 128 1515 l 1,1,-1
 364 1515 l 1,2,-1
 975 361 l 1,3,-1
 975 1515 l 1,4,-1
 1123 1515 l 1,5,-1
 1123 0 l 1,6,-1
 996 0 l 1,7,-1
 276 1368 l 1,8,-1
 276 0 l 1,9,-1
 128 0 l 29,0,-1
EndSplineSet
EndChar

StartChar: P
Encoding: 80 80 37
AltUni2: 000420.ffffffff.0 0003a1.ffffffff.0 000420.ffffffff.0 0003a1.ffffffff.0 000420.ffffffff.0 0003a1.ffffffff.0 000420.ffffffff.0 0003a1.ffffffff.0 000420.ffffffff.0 0003a1.ffffffff.0 000420.ffffffff.0 0003a1.ffffffff.0 000420.ffffffff.0 0003a1.ffffffff.0 000420.ffffffff.0 0003a1.ffffffff.0 000420.ffffffff.0 0003a1.ffffffff.0 000420.ffffffff.0 0003a1.ffffffff.0 0003a1.ffffffff.0 000420.ffffffff.0 0003a1.ffffffff.0 000420.ffffffff.0 0003a1.ffffffff.0 000420.ffffffff.0 0003a1.ffffffff.0 000420.ffffffff.0 0003a1.ffffffff.0 000420.ffffffff.0 0003a1.ffffffff.0 000420.ffffffff.0 0003a1.ffffffff.0 000420.ffffffff.0 0003a1.ffffffff.0 000420.ffffffff.0 0003a1.ffffffff.0 000420.ffffffff.0 0003a1.ffffffff.0 000420.ffffffff.0 0003a1.ffffffff.0 000420.ffffffff.0
Width: 1136
VWidth: 0
Flags: W
HStem: 0 21G<135 283> 692 124<283 776.757> 1391 124<283 774.125>
VStem: 135 148<0 692 816 1391> 920 148<941.378 1265.42>
LayerCount: 2
Fore
SplineSet
135 0 m 5,0,-1
 135 1515 l 1,1,-1
 664 1515 l 2,2,3
 900 1515 900 1515 1010 1329 c 0,4,5
 1068 1231 1068 1231 1068 1133.5 c 128,-1,6
 1068 1036 1068 1036 1046 963.5 c 128,-1,7
 1024 891 1024 891 978.5 828.5 c 128,-1,8
 933 766 933 766 852 729 c 128,-1,9
 771 692 771 692 664 692 c 2,10,-1
 283 692 l 1,11,-1
 283 0 l 1,12,-1
 135 0 l 5,0,-1
283 816 m 5,13,-1
 563 816 l 2,14,15
 725 816 725 816 822.5 887 c 128,-1,16
 920 958 920 958 920 1104 c 128,-1,17
 920 1250 920 1250 822 1320.5 c 128,-1,18
 724 1391 724 1391 563 1391 c 2,19,-1
 283 1391 l 1,20,-1
 283 816 l 5,13,-1
EndSplineSet
EndChar

StartChar: S
Encoding: 83 83 38
AltUni2: 000405.ffffffff.0 000405.ffffffff.0 000405.ffffffff.0 000405.ffffffff.0 000405.ffffffff.0 000405.ffffffff.0 000405.ffffffff.0 000405.ffffffff.0 000405.ffffffff.0 000405.ffffffff.0 000405.ffffffff.0 000405.ffffffff.0 000405.ffffffff.0 000405.ffffffff.0 000405.ffffffff.0 000405.ffffffff.0 000405.ffffffff.0 000405.ffffffff.0 000405.ffffffff.0 000405.ffffffff.0 000405.ffffffff.0
Width: 1033
VWidth: 0
Flags: W
HStem: -16 124<359.956 733.271> 1408 124<335.464 658.859>
VStem: 74 148<981.54 1296.78> 796.5 139.5<1159.49 1201.74> 840 148<217.554 551.523>
DStem2: 463 872 465 725 0.941623 -0.33667<-231.098 407.047>
LayerCount: 2
Fore
SplineSet
40 368 m 1,0,-1
 177 416 l 2,1,2
 178 416 178 416 181.5 399 c 128,-1,3
 185 382 185 382 194.5 355 c 128,-1,4
 204 328 204 328 220 295 c 0,5,6
 254 225 254 225 337 166.5 c 128,-1,7
 420 108 420 108 561 108 c 128,-1,8
 702 108 702 108 771 185 c 128,-1,9
 840 262 840 262 840 374.5 c 128,-1,10
 840 487 840 487 796.5 551.5 c 128,-1,11
 753 616 753 616 644 661 c 0,12,13
 612 674 612 674 560 692 c 2,14,-1
 465 725 l 1,15,16
 218 807 218 807 133 935 c 0,17,18
 74 1023 74 1023 74 1153.5 c 128,-1,19
 74 1284 74 1284 186 1406 c 0,20,21
 238 1462 238 1462 320.5 1497 c 128,-1,22
 403 1532 403 1532 493.5 1532 c 128,-1,23
 584 1532 584 1532 654 1508 c 128,-1,24
 724 1484 724 1484 766 1447 c 0,25,26
 854 1372 854 1372 891 1280 c 2,27,-1
 920 1206 l 2,28,29
 934 1170 934 1170 936 1165 c 1,30,-1
 806 1115 l 1,31,32
 804 1120 804 1120 796.5 1146.5 c 128,-1,33
 789 1173 789 1173 783.5 1190 c 128,-1,34
 778 1207 778 1207 764 1237 c 0,35,36
 750 1268 750 1268 736 1288 c 0,37,38
 651 1408 651 1408 499 1408 c 0,39,40
 376 1408 376 1408 299 1335.5 c 128,-1,41
 222 1263 222 1263 222 1137.5 c 128,-1,42
 222 1012 222 1012 290 959 c 0,43,44
 345 916 345 916 396 897.5 c 0,45,46
 447 878 447 878 463 872 c 0,47,48
 480 866 480 866 526 852 c 2,49,-1
 610 826 l 1,50,51
 842 756 842 756 929 615 c 0,52,53
 988 520 988 520 988 404 c 128,-1,54
 988 288 988 288 926 180 c 0,55,56
 814 -16 814 -16 554 -16 c 0,57,58
 332 -16 332 -16 180 135 c 0,59,60
 94 221 94 221 48 347 c 2,61,-1
 40 368 l 1,0,-1
EndSplineSet
EndChar

StartChar: T
Encoding: 84 84 39
AltUni2: 000422.ffffffff.0 0003a4.ffffffff.0 000422.ffffffff.0 0003a4.ffffffff.0 000422.ffffffff.0 0003a4.ffffffff.0 000422.ffffffff.0 0003a4.ffffffff.0 000422.ffffffff.0 0003a4.ffffffff.0 000422.ffffffff.0 0003a4.ffffffff.0 000422.ffffffff.0 0003a4.ffffffff.0 000422.ffffffff.0 0003a4.ffffffff.0 000422.ffffffff.0 0003a4.ffffffff.0 000422.ffffffff.0 0003a4.ffffffff.0 0003a4.ffffffff.0 000422.ffffffff.0 0003a4.ffffffff.0 000422.ffffffff.0 0003a4.ffffffff.0 000422.ffffffff.0 0003a4.ffffffff.0 000422.ffffffff.0 0003a4.ffffffff.0 000422.ffffffff.0 0003a4.ffffffff.0 000422.ffffffff.0 0003a4.ffffffff.0 000422.ffffffff.0 0003a4.ffffffff.0 000422.ffffffff.0 0003a4.ffffffff.0 000422.ffffffff.0 0003a4.ffffffff.0 000422.ffffffff.0 0003a4.ffffffff.0 000422.ffffffff.0
Width: 1062
VWidth: 0
Flags: W
HStem: 0 21G<457 605> 1391 124<25 457 605 1037>
VStem: 457 148<0 1391>
LayerCount: 2
Fore
SplineSet
25 1391 m 29,0,-1
 25 1515 l 1,1,-1
 1037 1515 l 1,2,-1
 1037 1391 l 1,3,-1
 605 1391 l 1,4,-1
 605 0 l 1,5,-1
 457 0 l 1,6,-1
 457 1391 l 1,7,-1
 25 1391 l 29,0,-1
EndSplineSet
EndChar

StartChar: U
Encoding: 85 85 40
Width: 1213
VWidth: 0
Flags: W
HStem: -16 124<429.111 790.789> 1495 20G<135 283 931 1085>
VStem: 135 148<262.691 1515> 937 148<256.914 1515>
LayerCount: 2
Fore
SplineSet
135 455 m 10,0,-1
 135 1515 l 1,1,-1
 283 1515 l 1,2,-1
 283 455 l 2,3,4
 283 320 283 320 349 226 c 0,5,6
 432 108 432 108 609 108 c 0,7,8
 696 108 696 108 760 136 c 128,-1,9
 824 164 824 164 856 202 c 0,10,11
 936 297 936 297 937 455 c 2,12,-1
 931 1515 l 1,13,-1
 1085 1515 l 1,14,-1
 1085 455 l 2,15,16
 1084 292 1084 292 996 162 c 0,17,18
 875 -16 875 -16 609 -16 c 0,19,20
 290 -16 290 -16 180 238 c 0,21,22
 134 344 134 344 135 455 c 10,0,-1
EndSplineSet
EndChar

StartChar: V
Encoding: 86 86 41
Width: 1104
VWidth: 0
Flags: W
HStem: 0 21G<469.059 634.941> 1495 20G<25 184.939 919.06 1079>
DStem2: 179 1515 25 1515 0.284735 -0.958606<0 1310.22> 552 259 629 0 0.284735 0.958606<0 1310.22>
LayerCount: 2
Fore
SplineSet
25 1515 m 25,0,-1
 179 1515 l 1,1,-1
 552 259 l 1,2,-1
 925 1515 l 1,3,-1
 1079 1515 l 1,4,-1
 629 0 l 1,5,-1
 475 0 l 1,6,-1
 25 1515 l 25,0,-1
EndSplineSet
EndChar

StartChar: W
Encoding: 87 87 42
Width: 1614
VWidth: 0
Flags: W
HStem: 0 21G<371.366 532.574 1081.43 1242.63> 1495 20G<25 183.324 717.426 896.574 1430.68 1589>
DStem2: 179 1515 25 1515 0.225705 -0.974196<0 1225.54> 448 317 528 0 0.222957 0.974828<0 937.751> 892 1515 812 1198 0.222957 -0.974828<291.184 1228.93> 1176 317 1238 0 0.225705 0.974196<0 1225.54>
LayerCount: 2
Fore
SplineSet
25 1515 m 25,0,-1
 179 1515 l 1,1,-1
 438 317 l 1,2,-1
 448 317 l 1,3,-1
 722 1515 l 1,4,-1
 892 1515 l 1,5,-1
 1166 317 l 1,6,-1
 1176 317 l 1,7,-1
 1435 1515 l 1,8,-1
 1589 1515 l 1,9,-1
 1238 0 l 1,10,-1
 1086 0 l 1,11,-1
 812 1198 l 1,12,-1
 802 1198 l 1,13,-1
 528 0 l 1,14,-1
 376 0 l 1,15,-1
 25 1515 l 25,0,-1
EndSplineSet
EndChar

StartChar: Y
Encoding: 89 89 43
AltUni2: 0004ae.ffffffff.0 0003d2.ffffffff.0 0003a5.ffffffff.0 0004ae.ffffffff.0 0003d2.ffffffff.0 0003a5.ffffffff.0 0004ae.ffffffff.0 0003d2.ffffffff.0 0003a5.ffffffff.0 0004ae.ffffffff.0 0003d2.ffffffff.0 0003a5.ffffffff.0 0004ae.ffffffff.0 0003d2.ffffffff.0 0003a5.ffffffff.0 0004ae.ffffffff.0 0003d2.ffffffff.0 0003a5.ffffffff.0 0004ae.ffffffff.0 0003d2.ffffffff.0 0003a5.ffffffff.0 0004ae.ffffffff.0 0003d2.ffffffff.0 0003a5.ffffffff.0 0004ae.ffffffff.0 0003d2.ffffffff.0 0003a5.ffffffff.0 0004ae.ffffffff.0 0003d2.ffffffff.0 0003a5.ffffffff.0 0003a5.ffffffff.0 0003d2.ffffffff.0 0004ae.ffffffff.0 0003a5.ffffffff.0 0003d2.ffffffff.0 0004ae.ffffffff.0 0003a5.ffffffff.0 0003d2.ffffffff.0 0004ae.ffffffff.0 0003a5.ffffffff.0 0003d2.ffffffff.0 0004ae.ffffffff.0 0003a5.ffffffff.0 0003d2.ffffffff.0 0004ae.ffffffff.0 0003a5.ffffffff.0 0003d2.ffffffff.0 0004ae.ffffffff.0 0003a5.ffffffff.0 0003d2.ffffffff.0 0004ae.ffffffff.0 0003a5.ffffffff.0 0003d2.ffffffff.0 0004ae.ffffffff.0 0003a5.ffffffff.0 0003d2.ffffffff.0 0004ae.ffffffff.0 0003a5.ffffffff.0 0003d2.ffffffff.0 0004ae.ffffffff.0 0003a5.ffffffff.0 0003d2.ffffffff.0 0004ae.ffffffff.0
Width: 1122
VWidth: 0
Flags: W
HStem: 0 21G<487 635> 1495 20G<25 189.715 932.285 1097>
VStem: 487 148<0 660>
DStem2: 179 1515 25 1515 0.475388 -0.879776<0 808.879> 561 802 635 660 0.475388 0.879776<0 808.879>
LayerCount: 2
Fore
SplineSet
25 1515 m 29,0,-1
 179 1515 l 1,1,-1
 561 802 l 1,2,-1
 943 1515 l 1,3,-1
 1097 1515 l 1,4,-1
 635 660 l 1,5,-1
 635 0 l 1,6,-1
 487 0 l 1,7,-1
 487 660 l 1,8,-1
 25 1515 l 29,0,-1
EndSplineSet
EndChar

StartChar: quotesingle
Encoding: 39 39 44
AltUni2: 002032.ffffffff.0 002019.ffffffff.0 0002c8.ffffffff.0 0002bc.ffffffff.0 0002b9.ffffffff.0 002032.ffffffff.0 002019.ffffffff.0 0002c8.ffffffff.0 0002bc.ffffffff.0 0002b9.ffffffff.0 002032.ffffffff.0 002019.ffffffff.0 0002c8.ffffffff.0 0002bc.ffffffff.0 0002b9.ffffffff.0 002032.ffffffff.0 002019.ffffffff.0 0002c8.ffffffff.0 0002bc.ffffffff.0 0002b9.ffffffff.0 002032.ffffffff.0 002019.ffffffff.0 0002c8.ffffffff.0 0002bc.ffffffff.0 0002b9.ffffffff.0 002032.ffffffff.0 002019.ffffffff.0 0002c8.ffffffff.0 0002bc.ffffffff.0 0002b9.ffffffff.0 002032.ffffffff.0 002019.ffffffff.0 0002c8.ffffffff.0 0002bc.ffffffff.0 0002b9.ffffffff.0 002032.ffffffff.0 002019.ffffffff.0 0002c8.ffffffff.0 0002bc.ffffffff.0 0002b9.ffffffff.0 002032.ffffffff.0 002019.ffffffff.0 0002c8.ffffffff.0 0002bc.ffffffff.0 0002b9.ffffffff.0 0002c8.ffffffff.0 0002bc.ffffffff.0 0002b9.ffffffff.0 0002b9.ffffffff.0 0002bc.ffffffff.0 0002c8.ffffffff.0 0002b9.ffffffff.0 0002bc.ffffffff.0 0002c8.ffffffff.0 002019.ffffffff.0 002032.ffffffff.0 0002b9.ffffffff.0 0002bc.ffffffff.0 0002c8.ffffffff.0 002019.ffffffff.0 002032.ffffffff.0 0002b9.ffffffff.0 0002bc.ffffffff.0 0002c8.ffffffff.0 002019.ffffffff.0 002032.ffffffff.0 0002b9.ffffffff.0 0002bc.ffffffff.0 0002c8.ffffffff.0 002019.ffffffff.0 002032.ffffffff.0 0002b9.ffffffff.0 0002bc.ffffffff.0 0002c8.ffffffff.0 002019.ffffffff.0 002032.ffffffff.0 0002b9.ffffffff.0 0002bc.ffffffff.0 0002c8.ffffffff.0 002019.ffffffff.0 002032.ffffffff.0 0002b9.ffffffff.0 0002bc.ffffffff.0 0002c8.ffffffff.0 002019.ffffffff.0 002032.ffffffff.0 0002b9.ffffffff.0 0002bc.ffffffff.0 0002c8.ffffffff.0 002019.ffffffff.0 002032.ffffffff.0 0002b9.ffffffff.0 0002bc.ffffffff.0 0002c8.ffffffff.0 002019.ffffffff.0 002032.ffffffff.0 0002b9.ffffffff.0 0002bc.ffffffff.0 0002c8.ffffffff.0 002019.ffffffff.0 002032.ffffffff.0
Width: 334
VWidth: 0
Flags: W
HStem: 1296 150<92 157>
VStem: 92 150<1296 1446>
LayerCount: 2
Back
SplineSet
242 1296 m 1,0,1
 215 1239 215 1239 166 1144 c 0
 117 1049 117 1049 114 1046 c 1,2,-1
 70 1046 l 1,3,-1
 157 1296 l 1,4,-1
 92 1296 l 1,5,-1
 92 1446 l 1,6,-1
 242 1446 l 1,7,-1
 242 1296 l 1,0,1
EndSplineSet
Fore
Refer: 70 44 S 1 0 0 1 0 1296 2
EndChar

StartChar: f
Encoding: 102 102 45
AltUni2: 001da0.ffffffff.0 001da0.ffffffff.0 001da0.ffffffff.0 001da0.ffffffff.0 001da0.ffffffff.0 001da0.ffffffff.0 001da0.ffffffff.0 001da0.ffffffff.0 001da0.ffffffff.0 001da0.ffffffff.0 001da0.ffffffff.0 001da0.ffffffff.0 001da0.ffffffff.0 001da0.ffffffff.0 001da0.ffffffff.0 001da0.ffffffff.0 001da0.ffffffff.0 001da0.ffffffff.0 001da0.ffffffff.0
Width: 570
VWidth: 0
Flags: W
HStem: 0 21G<186 318> 943 112<13 186 318 557> 1404 120<343.68 557>
VStem: 186 132<0 943 1055 1377.99>
LayerCount: 2
Fore
SplineSet
557 1515 m 1,0,-1
 557 1404 l 1,1,-1
 468 1404 l 2,2,3
 318 1404 318 1404 318 1278 c 2,4,-1
 318 1055 l 1,5,-1
 557 1055 l 1,6,-1
 557 943 l 1,7,-1
 318 943 l 1,8,-1
 318 0 l 1,9,-1
 186 0 l 1,10,-1
 186 943 l 1,11,-1
 13 943 l 25,12,-1
 13 1055 l 1,13,-1
 186 1055 l 1,14,-1
 186 1278 l 2,15,16
 186 1442 186 1442 327 1498 c 0,17,18
 393 1524 393 1524 470.5 1524 c 128,-1,19
 548 1524 548 1524 557 1515 c 1,0,-1
EndSplineSet
EndChar

StartChar: g
Encoding: 103 103 46
Width: 1005
VWidth: 0
Flags: W
HStem: -445 112.5<249.521 763.712> 10.5 125.5<395.354 739.602> 305 112<346.007 645.9> 954 112<349.422 649.921 801.636 973>
VStem: 42 132<-268.184 -70.5535> 98 132<168.499 294.848 540.945 831.713> 744 132<522.527 853.082> 838 132<-265.92 -67.1977>
LayerCount: 2
Fore
SplineSet
82.5 -297.5 m 128,-1,1
 42 -242 42 -242 42 -188 c 159,-1,2
 42 -134 42 -134 57 -104 c 128,-1,3
 72 -74 72 -74 102.5 -50 c 128,-1,4
 133 -26 133 -26 155.5 -11.5 c 128,-1,5
 178 3 178 3 217 22.5 c 128,-1,6
 256 42 256 42 264 47 c 1,7,8
 182 64 182 64 140 107 c 128,-1,9
 98 150 98 150 98 186 c 0,10,11
 98 255 98 255 147 299 c 128,-1,12
 196 343 196 343 225 361 c 128,-1,13
 254 379 254 379 257 381 c 1,14,15
 197 432 197 432 151.5 514.5 c 128,-1,16
 106 597 106 597 106 695.5 c 128,-1,17
 106 794 106 794 160.5 881 c 128,-1,18
 215 968 215 968 306.5 1017 c 128,-1,19
 398 1066 398 1066 484 1066 c 128,-1,20
 570 1066 570 1066 622.5 1045 c 128,-1,21
 675 1024 675 1024 735 983 c 1,22,23
 811 1045 811 1045 866 1056 c 128,-1,24
 921 1067 921 1067 973 1068 c 1,25,-1
 973 948 l 1,26,-1
 971 948 l 2,27,28
 800 948 800 948 800 917 c 1,29,30
 851 823 851 823 863.5 778.5 c 128,-1,31
 876 734 876 734 876 689 c 0,32,33
 876 528 876 528 772.5 416.5 c 128,-1,34
 669 305 669 305 504 305 c 0,35,36
 417 305 417 305 326 343 c 1,37,38
 318 336 318 336 290 316 c 0,39,40
 230 274 230 274 230 230 c 128,-1,41
 230 186 230 186 267 171 c 128,-1,42
 304 156 304 156 351 149 c 0,43,44
 432 137 432 137 514 136 c 128,-1,45
 596 135 596 135 750 98 c 0,46,47
 847 75 847 75 908.5 6 c 128,-1,48
 970 -63 970 -63 970 -159 c 0,49,50
 970 -445 970 -445 491 -445 c 0,51,52
 322 -445 322 -445 190 -384 c 0,53,0
 123 -353 123 -353 82.5 -297.5 c 128,-1,1
174 -169 m 7,54,55
 174 -266 174 -266 280 -302 c 0,56,57
 371 -332 371 -332 450.5 -332.5 c 128,-1,58
 530 -333 530 -333 556 -332.5 c 128,-1,59
 582 -332 582 -332 623 -328.5 c 0,60,61
 664 -324 664 -324 690 -318 c 0,62,63
 838 -281 838 -281 838 -166 c 0,64,65
 838 -106 838 -106 798 -70.5 c 128,-1,66
 758 -35 758 -35 696.5 -20 c 128,-1,67
 635 -5 635 -5 575 1.5 c 128,-1,68
 515 8 515 8 460.5 10.5 c 128,-1,69
 406 13 406 13 395 16 c 1,70,71
 288 -24 288 -24 256 -43 c 0,72,73
 174 -91 174 -91 174 -169 c 7,54,55
238 689 m 135,-1,75
 238 572 238 572 308 494.5 c 128,-1,76
 378 417 378 417 498.5 417 c 128,-1,77
 619 417 619 417 681.5 496 c 128,-1,78
 744 575 744 575 744 688 c 128,-1,79
 744 801 744 801 682.5 877.5 c 128,-1,80
 621 954 621 954 504 954 c 128,-1,81
 387 954 387 954 312.5 880 c 128,-1,74
 238 806 238 806 238 689 c 135,-1,75
EndSplineSet
EndChar

StartChar: k
Encoding: 107 107 47
Width: 911
VWidth: 0
Flags: W
HStem: 0 21G<130 271 730.309 886> 1035 20G<650.54 824> 1495 20G<130 271>
VStem: 130 141<0 350 544 1515>
DStem2: 271 544 458 582 0.617181 0.786822<0 145.312 290.556 645.852> 548 696 458 582 0.436844 -0.899537<63.2313 709.952>
LayerCount: 2
Back
SplineSet
546 693 m 29,0,-1
 884 -3 l 1
271 544 m 25,2,-1
 680 1073 l 1,3,-1
 838 1073 l 1,4,-1
 548 696 l 1
458 582 m 25,6,-1
 271 350 l 1
EndSplineSet
Fore
SplineSet
130 0 m 29,0,-1
 130 1515 l 1,1,-1
 271 1515 l 1,2,-1
 271 544 l 1,3,-1
 666 1055 l 1,4,-1
 824 1055 l 1,5,-1
 548 696 l 1,6,-1
 886 0 l 1,7,-1
 740 0 l 1,8,-1
 458 582 l 1,9,-1
 271 350 l 1,10,-1
 271 0 l 1,11,-1
 130 0 l 29,0,-1
EndSplineSet
EndChar

StartChar: l
Encoding: 108 108 48
AltUni2: 0002e1.ffffffff.0 0002e1.ffffffff.0 0002e1.ffffffff.0 0002e1.ffffffff.0 0002e1.ffffffff.0 0002e1.ffffffff.0 0002e1.ffffffff.0 0002e1.ffffffff.0 0002e1.ffffffff.0 0002e1.ffffffff.0 0002e1.ffffffff.0 0002e1.ffffffff.0 0002e1.ffffffff.0 0002e1.ffffffff.0 0002e1.ffffffff.0 0002e1.ffffffff.0 0002e1.ffffffff.0 0002e1.ffffffff.0 0002e1.ffffffff.0 0002e1.ffffffff.0 0002e1.ffffffff.0
Width: 392
VWidth: 0
Flags: W
HStem: -2 21G<129 261> 1495 20G<129 261>
VStem: 129 132<-2 1515>
LayerCount: 2
Fore
SplineSet
129 -2 m 5,0,-1
 129 1515 l 1,1,-1
 261 1515 l 1,2,-1
 261 -2 l 1,3,-1
 129 -2 l 5,0,-1
EndSplineSet
EndChar

StartChar: m
Encoding: 109 109 49
Width: 1577
VWidth: 0
Flags: W
HStem: 0 21G<120 252 728 860 1335 1467> 954 112<428.571 671.937 1034.86 1278.18>
VStem: 120 132<0 826.235 881 1055> 728 132<0 825.933> 1335 132<0 898.502>
LayerCount: 2
Back
SplineSet
900 786 m 1,0,1
 900 926 900 926 826 996 c 0
 752 1066 752 1066 637 1066 c 0,2,3
 612 1066 612 1066 587 1061.5 c 0
 562 1057 562 1057 542.5 1053 c 0
 523 1049 523 1049 497.5 1036 c 0
 472 1023 472 1023 458.5 1017 c 0
 445 1011 445 1011 419 991 c 0
 393 971 393 971 384 965.5 c 0
 375 960 375 960 347.5 934.5 c 0
 320 909 320 909 316 905 c 0
 312 901 312 901 282.5 872 c 0
 253 843 253 843 252 842 c 2,4,-1
 292 865 l 1,5,-1
 292 1055 l 1,6,-1
 160 1055 l 1,7,-1
 160 0 l 1,8,-1
 292 0 l 1,9,-1
 292 781 l 1,10,11
 451 954 451 954 599 954 c 0,12,13
 661 954 661 954 714.5 907.5 c 0
 768 861 768 861 768 786 c 2,14,-1
 768 0 l 1,15,-1
 900 0 l 1,16,-1
 900 781 l 1,17,18
 1059 954 1059 954 1206 954 c 0,19,20
 1268 954 1268 954 1321.5 907.5 c 0
 1375 861 1375 861 1375 786 c 2,21,-1
 1375 0 l 1,22,-1
 1507 0 l 1,23,-1
 1507 786 l 2,24,25
 1507 926 1507 926 1433 996 c 0
 1359 1066 1359 1066 1244 1066 c 0,26,27
 1219 1066 1219 1066 1194 1061.5 c 0
 1169 1057 1169 1057 1149.5 1053 c 0
 1130 1049 1130 1049 1104.5 1036 c 0
 1079 1023 1079 1023 1065.5 1017 c 0
 1052 1011 1052 1011 1026 991 c 0
 1000 971 1000 971 991 965.5 c 0
 982 960 982 960 954.5 934.5 c 0
 927 909 927 909 923 905 c 0
 919 901 919 901 889.5 872 c 0
 860 843 860 843 859 842 c 1,28,-1
 900 786 l 1,0,1
EndSplineSet
Fore
SplineSet
120 0 m 1,0,-1
 120 1055 l 1,1,-1
 252 1055 l 1,2,-1
 252 881 l 1,3,4
 390 1019 390 1019 495 1051 c 0,5,6
 544 1066 544 1066 618 1066 c 128,-1,7
 692 1066 692 1066 760.5 1018 c 128,-1,8
 829 970 829 970 851 873 c 1,9,10
 996 1018 996 1018 1100 1050 c 0,11,12
 1150 1066 1150 1066 1204 1066 c 0,13,14
 1319 1066 1319 1066 1393 996 c 128,-1,15
 1467 926 1467 926 1467 786 c 2,16,-1
 1467 0 l 1,17,-1
 1335 0 l 1,18,-1
 1335 786 l 2,19,20
 1335 861 1335 861 1281.5 907.5 c 128,-1,21
 1228 954 1228 954 1166 954 c 0,22,23
 1019 954 1019 954 860 781 c 1,24,-1
 860 0 l 1,25,-1
 728 0 l 1,26,-1
 728 786 l 2,27,28
 728 861 728 861 674.5 907.5 c 128,-1,29
 621 954 621 954 559 954 c 0,30,31
 411 954 411 954 252 781 c 1,32,-1
 252 0 l 1,33,-1
 120 0 l 1,0,-1
EndSplineSet
EndChar

StartChar: p
Encoding: 112 112 50
AltUni2: 000440.ffffffff.0 0003f1.ffffffff.0 0003c1.ffffffff.0 000440.ffffffff.0 0003f1.ffffffff.0 0003c1.ffffffff.0 000440.ffffffff.0 0003f1.ffffffff.0 0003c1.ffffffff.0 000440.ffffffff.0 0003f1.ffffffff.0 0003c1.ffffffff.0 000440.ffffffff.0 0003f1.ffffffff.0 0003c1.ffffffff.0 000440.ffffffff.0 0003f1.ffffffff.0 0003c1.ffffffff.0 000440.ffffffff.0 0003f1.ffffffff.0 0003c1.ffffffff.0 000440.ffffffff.0 0003f1.ffffffff.0 0003c1.ffffffff.0 000440.ffffffff.0 0003f1.ffffffff.0 0003c1.ffffffff.0 000440.ffffffff.0 0003f1.ffffffff.0 0003c1.ffffffff.0 000440.ffffffff.0 0003c1.ffffffff.0 0003f1.ffffffff.0 0003c1.ffffffff.0 0003f1.ffffffff.0 000440.ffffffff.0 0003c1.ffffffff.0 0003f1.ffffffff.0 000440.ffffffff.0 0003c1.ffffffff.0 0003f1.ffffffff.0 000440.ffffffff.0 0003c1.ffffffff.0 0003f1.ffffffff.0 000440.ffffffff.0 0003c1.ffffffff.0 0003f1.ffffffff.0 000440.ffffffff.0 0003c1.ffffffff.0 0003f1.ffffffff.0 000440.ffffffff.0 0003c1.ffffffff.0 0003f1.ffffffff.0 000440.ffffffff.0 0003c1.ffffffff.0 0003f1.ffffffff.0 000440.ffffffff.0 0003c1.ffffffff.0 0003f1.ffffffff.0 000440.ffffffff.0 0003c1.ffffffff.0 0003f1.ffffffff.0 000440.ffffffff.0
Width: 1015
VWidth: 0
Flags: W
HStem: -411 21G<129 261> -11 112<384.884 665.71> 954 112<398.232 678.27>
VStem: 129 132<-411 140 200.461 836.089 891 1055> 808 132<269.928 792.919>
LayerCount: 2
Back
SplineSet
272 -411 m 5,0,-1
 140 -411 l 1,1,-1
 140 1055 l 1,2,-1
 260 1055 l 1,3,-1
 272 891.001 l 1,4,5
 284.854 913.376 284.854 913.376 307.59 939.629 c 0
 330.327 965.882 330.327 965.882 367.097 997.575 c 0
 403.868 1029.27 403.868 1029.27 457.09 1050.28 c 0
 510.313 1071.3 510.313 1071.3 568 1072 c 1,6,7
 648 1070 648 1070 713.5 1035.5 c 0
 779 1001 779 1001 821.5 947.5 c 0
 864 894 864 894 893.5 824 c 0
 923 754 923 754 936.5 685 c 0
 950 616 950 616 951 547 c 1,8,9
 951 299 951 299 843 142 c 0
 735 -15 735 -15 555 -15 c 0,10,11
 506 -15 506 -15 455 3.5 c 0
 404 22 404 22 367 48.5 c 0
 330 75 330 75 304.5 99.5 c 0
 279 124 279 124 272 140 c 1,12,-1
 272 -411 l 5,0,-1
521 97.001 m 7,13,14
 568.387 97.001 568.387 97.001 609.12 108.874 c 0
 649.853 120.748 649.853 120.748 689.531 152.082 c 0
 729.209 183.417 729.209 183.417 757.019 232.709 c 0
 784.829 282.002 784.829 282.002 801.91 362.32 c 0
 818.99 442.639 818.99 442.639 818.99 547 c 0,15,16
 818.99 635.505 818.99 635.505 803.559 708.578 c 0
 788.128 781.651 788.128 781.651 756.474 838.934 c 0
 724.821 896.217 724.821 896.217 671.41 928.106 c 0
 617.999 959.995 617.999 959.995 547 959.995 c 0,17,18
 499.666 959.995 499.666 959.995 459.623 946.467 c 0
 419.581 932.938 419.581 932.938 385.684 904.96 c 0
 351.787 876.982 351.787 876.982 327.508 849.422 c 0
 303.228 821.862 303.228 821.862 272 779 c 1,19,-1
 272 254 l 1,20,21
 318.678 187.317 318.678 187.317 384.477 142.159 c 0
 450.276 97.001 450.276 97.001 521 97.001 c 7,13,14
EndSplineSet
Fore
SplineSet
129 -411 m 1,0,-1
 129 1055 l 1,1,-1
 261 1055 l 1,2,-1
 261 891 l 1,3,4
 285 936 285 936 340 981 c 0,5,6
 443 1066 443 1066 557 1066 c 0,7,8
 767 1066 767 1066 877 836 c 0,9,10
 940 704 940 704 940 547 c 0,11,12
 940 272 940 272 805 108 c 0,13,14
 707 -11 707 -11 544 -11 c 0,15,16
 452 -11 452 -11 366 44.5 c 128,-1,17
 280 100 280 100 261 140 c 1,18,-1
 261 -411 l 1,19,-1
 129 -411 l 1,0,-1
261 254 m 1,20,21
 307 188 307 188 373 144 c 0,22,23
 438 100 438 100 498 101 c 0,24,25
 558 100 558 100 598 112 c 0,26,27
 691 138 691 138 749.5 240 c 128,-1,28
 808 342 808 342 808 547 c 0,29,30
 808 797 808 797 692 899 c 0,31,32
 630 954 630 954 536 954 c 0,33,34
 410 954 410 954 316 848 c 0,35,36
 292 820 292 820 261 779 c 1,37,-1
 261 254 l 1,20,21
EndSplineSet
EndChar

StartChar: r
Encoding: 114 114 51
AltUni2: 0002b3.ffffffff.0 0002b3.ffffffff.0 0002b3.ffffffff.0 0002b3.ffffffff.0 0002b3.ffffffff.0 0002b3.ffffffff.0 0002b3.ffffffff.0 0002b3.ffffffff.0 0002b3.ffffffff.0 0002b3.ffffffff.0 0002b3.ffffffff.0 0002b3.ffffffff.0 0002b3.ffffffff.0 0002b3.ffffffff.0 0002b3.ffffffff.0 0002b3.ffffffff.0 0002b3.ffffffff.0 0002b3.ffffffff.0 0002b3.ffffffff.0 0002b3.ffffffff.0 0002b3.ffffffff.0
Width: 639
VWidth: 0
Flags: W
HStem: 0 21G<120 252> 952 112<578.378 614>
VStem: 120 132<0 716.603 771 1055>
LayerCount: 2
Back
SplineSet
160 1055 m 1,0,-1
 292 1055 l 1,1,-1
 292 753 l 1,2,3
 277.956 727.485 l 1
 277 727 l 1,4,5
 284.247 739.135 284.247 739.135 300.184 775.132 c 0
 316.121 811.129 316.121 811.129 331.488 844.846 c 0
 346.855 878.562 346.855 878.562 374.865 919.735 c 0
 402.875 960.908 402.875 960.908 434.391 990.914 c 0
 465.906 1020.92 465.906 1020.92 514.011 1041.47 c 0
 562.115 1062.03 562.115 1062.03 617.793 1062.03 c 0,6,7
 635.481 1062.03 635.481 1062.03 654 1060 c 1,8,-1
 654 948 l 1,9,10
 566 936 566 936 509 905 c 0
 452 874 452 874 401.5 806.5 c 0
 351 739 351 739 293 613 c 1,11,-1
 292 0 l 1,12,-1
 160 0 l 1,13,14
 160 1055 l 1,0,-1
EndSplineSet
Fore
SplineSet
120 0 m 1,0,1
 120 1055 l 1,2,-1
 252 1055 l 1,3,-1
 252 771 l 1,4,5
 299 875 299 875 324 914 c 0,6,7
 422 1066 422 1066 578 1066 c 0,8,9
 590 1066 590 1066 614 1064 c 1,10,-1
 614 952 l 1,11,12
 546 943 546 943 501 926.5 c 128,-1,13
 456 910 456 910 413 874 c 0,14,15
 338 812 338 812 252 627 c 1,16,-1
 252 0 l 1,17,-1
 120 0 l 1,0,1
EndSplineSet
EndChar

StartChar: t
Encoding: 116 116 52
Width: 606
VWidth: 0
Flags: W
HStem: -13 112<374.9 586.964> 11 93<479.909 587.99> 943 112<36 214 346 588>
VStem: 214 132<137.172 943 1055 1440>
LayerCount: 2
Fore
SplineSet
36 943 m 1,0,-1
 36 1055 l 1,1,-1
 214 1055 l 1,2,-1
 214 1440 l 1,3,-1
 346 1440 l 1,4,-1
 346 1055 l 1,5,-1
 588 1055 l 1,6,-1
 588 943 l 1,7,-1
 346 943 l 1,8,-1
 346 274 l 2,9,10
 346 173 346 173 377 136 c 128,-1,11
 408 99 408 99 479 99 c 0,12,13
 508 99 508 99 548 104 c 128,-1,14
 588 109 588 109 588 110 c 2,15,-1
 588 11 l 1,16,17
 522 -13 522 -13 459.5 -13 c 128,-1,18
 397 -13 397 -13 374 -10 c 128,-1,19
 351 -7 351 -7 318 9 c 0,20,21
 214 59 214 59 214 274 c 2,22,-1
 214 943 l 1,23,-1
 36 943 l 1,0,-1
EndSplineSet
EndChar

StartChar: u
Encoding: 117 117 53
Width: 979
VWidth: 0
Flags: W
HStem: -11 112<317.817 561.582> 1035 20G<129 261 737 869>
VStem: 129 132<156.498 1055> 737 132<0 174 228.765 1055>
LayerCount: 2
Back
SplineSet
900 0 m 1,0,-1
 768 0 l 1,1,-1
 768 190 l 1,2,-1
 808 213 l 1,3,4
 709.28 116.197 709.28 116.197 672.33 86.8209 c 0
 549.286 -11 549.286 -11 423 -11 c 0,5,6
 308 -11 308 -11 234 59 c 0
 160 129 160 129 160 269 c 2,7,-1
 160 1055 l 1,8,-1
 292 1055 l 1,9,-1
 292 269 l 2,10,11
 292 194 292 194 345.5 147.5 c 0
 399 101 399 101 461 101 c 0,12,13
 609 101 609 101 768 274 c 1,14,-1
 768 1055 l 1,15,-1
 900 1055 l 1,16,-1
 900 0 l 1,0,-1
EndSplineSet
Fore
SplineSet
129 269 m 6,0,-1
 129 1055 l 1,1,-1
 261 1055 l 1,2,-1
 261 269 l 2,3,4
 261 194 261 194 314.5 147.5 c 128,-1,5
 368 101 368 101 430 101 c 0,6,7
 578 101 578 101 737 274 c 1,8,-1
 737 1055 l 1,9,-1
 869 1055 l 1,10,-1
 869 0 l 1,11,-1
 737 0 l 1,12,-1
 737 174 l 1,13,14
 596 35 596 35 494 4 c 0,15,16
 446 -11 446 -11 392 -11 c 0,17,18
 277 -11 277 -11 203 59 c 128,-1,19
 129 129 129 129 129 269 c 6,0,-1
EndSplineSet
EndChar

StartChar: v
Encoding: 118 118 54
Width: 901
VWidth: 0
Flags: W
HStem: 0 21G<342.858 558.142> 1035 20G<25 169.117 731.883 876>
DStem2: 163 1055 25 1055 0.293576 -0.955936<0 950.56> 460 146 552 0 0.293576 0.955936<0 950.56>
LayerCount: 2
Back
SplineSet
652 0 m 25,0,-1
 449 0 l 1,1,-1
 125 1055 l 1,2,-1
 263 1055 l 1,3,-1
 541 146 l 1,4,-1
 560 146 l 1,5,-1
 838 1055 l 1,6,-1
 976 1055 l 1,7,-1
 652 0 l 25,0,-1
EndSplineSet
Fore
SplineSet
25 1055 m 25,0,-1
 163 1055 l 1,1,-1
 441 146 l 1,2,-1
 460 146 l 1,3,-1
 738 1055 l 1,4,-1
 876 1055 l 1,5,-1
 552 0 l 1,6,-1
 349 0 l 1,7,-1
 25 1055 l 25,0,-1
EndSplineSet
EndChar

StartChar: y
Encoding: 121 121 55
AltUni2: 000443.ffffffff.0 0002b8.ffffffff.0 000443.ffffffff.0 0002b8.ffffffff.0 000443.ffffffff.0 0002b8.ffffffff.0 000443.ffffffff.0 0002b8.ffffffff.0 000443.ffffffff.0 0002b8.ffffffff.0 000443.ffffffff.0 0002b8.ffffffff.0 000443.ffffffff.0 0002b8.ffffffff.0 000443.ffffffff.0 0002b8.ffffffff.0 000443.ffffffff.0 0002b8.ffffffff.0 000443.ffffffff.0 0002b8.ffffffff.0 000443.ffffffff.0 0002b8.ffffffff.0 0002b8.ffffffff.0 000443.ffffffff.0 0002b8.ffffffff.0 000443.ffffffff.0 0002b8.ffffffff.0 000443.ffffffff.0 0002b8.ffffffff.0 000443.ffffffff.0 0002b8.ffffffff.0 000443.ffffffff.0 0002b8.ffffffff.0 000443.ffffffff.0 0002b8.ffffffff.0 000443.ffffffff.0 0002b8.ffffffff.0 000443.ffffffff.0 0002b8.ffffffff.0 000443.ffffffff.0 0002b8.ffffffff.0 000443.ffffffff.0
Width: 905
VWidth: 0
Flags: W
HStem: -393 112<35.3812 283.959> 1035 20G<25 173.962 739.481 880>
DStem2: 167 1055 25 1055 0.337238 -0.941419<0 909.513> 466 196 512 -64 0.312405 0.949949<0 903.48>
LayerCount: 2
Back
SplineSet
25 1055 m 29,0,-1
 167 1055 l 1,1,-1
 466 196 l 1,2,-1
 746 1055 l 1,3,-1
 880 1055 l 1,4,-1
 512 -64 l 2,5,6
 491 -128 491 -128 471.5 -174.5 c 0
 452 -221 452 -221 421 -271.5 c 0
 390 -322 390 -322 355 -353 c 0
 320 -384 320 -384 268 -404.5 c 0
 216 -425 216 -425 154 -425 c 0,7,8
 135 -425 135 -425 115 -424 c 0
 95 -423 95 -423 79.5 -422 c 0
 64 -421 64 -421 51.5 -420 c 0
 39 -419 39 -419 31.5 -418 c 2
 24 -417 l 1,9,-1
 34 -296 l 1,10,11
 69 -313 69 -313 145 -313 c 0,12,13
 204 -313 204 -313 252 -281 c 0
 300 -249 300 -249 327 -203.5 c 0
 354 -158 354 -158 372.5 -112.5 c 0
 391 -67 391 -67 397.5 -35 c 2
 404 -3 l 1,14,-1
 25 1055 l 29,0,-1
EndSplineSet
Fore
SplineSet
150 -393 m 128,-1,1
 87 -393 87 -393 27 -385 c 1,2,-1
 37 -264 l 1,3,4
 73 -281 73 -281 133 -281 c 128,-1,5
 193 -281 193 -281 232 -265.5 c 128,-1,6
 271 -250 271 -250 296 -226 c 0,7,8
 382 -142 382 -142 404 -3 c 1,9,-1
 25 1055 l 29,10,-1
 167 1055 l 1,11,-1
 466 196 l 1,12,-1
 746 1055 l 1,13,-1
 880 1055 l 1,14,-1
 512 -64 l 2,15,16
 455 -235 455 -235 395 -298.5 c 128,-1,17
 335 -362 335 -362 274 -377.5 c 128,-1,0
 213 -393 213 -393 150 -393 c 128,-1,1
EndSplineSet
EndChar

StartChar: z
Encoding: 122 122 56
AltUni2: 001dbb.ffffffff.0 001dbb.ffffffff.0 001dbb.ffffffff.0 001dbb.ffffffff.0 001dbb.ffffffff.0 001dbb.ffffffff.0 001dbb.ffffffff.0 001dbb.ffffffff.0 001dbb.ffffffff.0 001dbb.ffffffff.0 001dbb.ffffffff.0 001dbb.ffffffff.0 001dbb.ffffffff.0 001dbb.ffffffff.0 001dbb.ffffffff.0 001dbb.ffffffff.0 001dbb.ffffffff.0 001dbb.ffffffff.0 001dbb.ffffffff.0
Width: 779
VWidth: 0
Flags: W
HStem: 0 120<186 754> 943 112<78 585>
DStem2: 25 85 186 120 0.550667 0.834725<117.873 1024.57>
LayerCount: 2
Back
SplineSet
919 1048 m 25,0,-1
 367 195 l 1
716 964 m 25,2,-1
 164 111 l 1
EndSplineSet
Fore
SplineSet
25 0 m 25,0,-1
 25 85 l 1,1,-1
 585 943 l 1,2,-1
 78 943 l 1,3,-1
 78 1055 l 1,4,-1
 754 1055 l 1,5,-1
 754 981 l 1,6,-1
 186 120 l 1,7,-1
 754 120 l 1,8,-1
 754 0 l 1,9,-1
 25 0 l 25,0,-1
EndSplineSet
EndChar

StartChar: x
Encoding: 120 120 57
AltUni2: 000445.ffffffff.0 0003c7.ffffffff.0 0002e3.ffffffff.0 000445.ffffffff.0 0003c7.ffffffff.0 0002e3.ffffffff.0 000445.ffffffff.0 0003c7.ffffffff.0 0002e3.ffffffff.0 000445.ffffffff.0 0003c7.ffffffff.0 0002e3.ffffffff.0 000445.ffffffff.0 0003c7.ffffffff.0 0002e3.ffffffff.0 000445.ffffffff.0 0003c7.ffffffff.0 0002e3.ffffffff.0 000445.ffffffff.0 0003c7.ffffffff.0 0002e3.ffffffff.0 000445.ffffffff.0 0003c7.ffffffff.0 0002e3.ffffffff.0 000445.ffffffff.0 0003c7.ffffffff.0 0002e3.ffffffff.0 000445.ffffffff.0 0003c7.ffffffff.0 0002e3.ffffffff.0 000445.ffffffff.0 0002e3.ffffffff.0 0003c7.ffffffff.0 0002e3.ffffffff.0 0003c7.ffffffff.0 000445.ffffffff.0 0002e3.ffffffff.0 0003c7.ffffffff.0 000445.ffffffff.0 0002e3.ffffffff.0 0003c7.ffffffff.0 000445.ffffffff.0 0002e3.ffffffff.0 0003c7.ffffffff.0 000445.ffffffff.0 0002e3.ffffffff.0 0003c7.ffffffff.0 000445.ffffffff.0 0002e3.ffffffff.0 0003c7.ffffffff.0 000445.ffffffff.0 0002e3.ffffffff.0 0003c7.ffffffff.0 000445.ffffffff.0 0002e3.ffffffff.0 0003c7.ffffffff.0 000445.ffffffff.0 0002e3.ffffffff.0 0003c7.ffffffff.0 000445.ffffffff.0 0002e3.ffffffff.0 0003c7.ffffffff.0 000445.ffffffff.0
Width: 870
VWidth: 0
Flags: W
HStem: 0 21G<25 185.094 684.435 845> 1035 20G<35 195.564 670.872 832>
DStem2: 25 0 173 0 0.529782 0.848134<78.4078 575.019 777.511 1243.91> 183 1055 35 1055 0.531514 -0.84705<0 460.57 664.925 1166.84>
LayerCount: 2
Back
SplineSet
65 0 m 25,0,-1
 398 549 l 1,1,-1
 462 656 l 1,2,-1
 724 1055 l 1,3,-1
 872 1055 l 1,4,-1
 535 542 l 1,5,-1
 478 438 l 1,6,-1
 213 0 l 1,7,-1
 65 0 l 25,0,-1
75 1055 m 25,8,-1
 223 1055 l 1,9,-1
 885 0 l 1,10,-1
 737 0 l 1,11,-1
 75 1055 l 25,8,-1
604 647 m 25,12,-1
 866 1046 l 1
159 -88 m 25,14,-1
 492 461 l 1,15,-1
 548 568 l 1
EndSplineSet
Fore
SplineSet
25 0 m 25,0,-1
 355 544 l 1,1,-1
 35 1055 l 1,2,-1
 183 1055 l 1,3,-1
 428 665 l 1,4,-1
 684 1055 l 1,5,-1
 832 1055 l 1,6,-1
 500 550 l 1,7,-1
 845 0 l 1,8,-1
 697 0 l 1,9,-1
 430 425 l 1,10,-1
 173 0 l 1,11,-1
 25 0 l 25,0,-1
EndSplineSet
EndChar

StartChar: b
Encoding: 98 98 58
Width: 994
VWidth: 0
Flags: W
HStem: -11 112.5<382.166 658.248> 954 112<367.032 647.012> 1495 20G<120 252>
VStem: 120 132<1.72754 166 222.984 858.114 917 1515> 787 132<265.535 781.59>
LayerCount: 2
Fore
SplineSet
252 166 m 1,0,1
 252 12 252 12 227 0 c 1,2,-1
 94 0 l 1,3,4
 120 55 120 55 120 146 c 2,5,-1
 120 1515 l 1,6,-1
 252 1515 l 1,7,-1
 252 917 l 1,8,9
 271 958 271 958 351 1012 c 128,-1,10
 431 1066 431 1066 523 1066 c 0,11,12
 703 1066 703 1066 811 911.5 c 128,-1,13
 919 757 919 757 919 510 c 1,14,15
 918 364 918 364 862 234 c 0,16,17
 760 -6 760 -6 536 -11 c 1,18,19
 389 -8 389 -8 286 118 c 0,20,21
 266 142 266 142 252 166 c 1,0,1
252 278 m 1,22,23
 353 140 353 140 430 114 c 0,24,25
 468 102 468 102 527 101.5 c 128,-1,26
 586 101 586 101 639.5 132.5 c 0,27,28
 692 164 692 164 724 220 c 0,29,30
 786 332 786 332 787 510 c 0,31,32
 787 954 787 954 489 954 c 0,33,34
 358 954 358 954 252 803 c 1,35,-1
 252 278 l 1,22,23
EndSplineSet
EndChar

StartChar: c
Encoding: 99 99 59
AltUni2: 001d9c.ffffffff.0 000441.ffffffff.0 001d9c.ffffffff.0 000441.ffffffff.0 001d9c.ffffffff.0 000441.ffffffff.0 001d9c.ffffffff.0 000441.ffffffff.0 001d9c.ffffffff.0 000441.ffffffff.0 001d9c.ffffffff.0 000441.ffffffff.0 001d9c.ffffffff.0 000441.ffffffff.0 001d9c.ffffffff.0 000441.ffffffff.0 001d9c.ffffffff.0 000441.ffffffff.0 000441.ffffffff.0 000441.ffffffff.0 000441.ffffffff.0 001d9c.ffffffff.0 000441.ffffffff.0 001d9c.ffffffff.0 000441.ffffffff.0 001d9c.ffffffff.0 000441.ffffffff.0 001d9c.ffffffff.0 000441.ffffffff.0 001d9c.ffffffff.0 000441.ffffffff.0 001d9c.ffffffff.0 000441.ffffffff.0 001d9c.ffffffff.0 000441.ffffffff.0 001d9c.ffffffff.0 000441.ffffffff.0 001d9c.ffffffff.0 000441.ffffffff.0 001d9c.ffffffff.0
Width: 926
VWidth: 0
Flags: W
HStem: -11 112<351.867 630.093> 954 112<345.184 633.695>
VStem: 75 132<272.767 796.124> 720 106<806.508 862.166>
LayerCount: 2
Fore
SplineSet
75 520 m 7,0,1
 75 1066 75 1066 500 1066 c 0,2,3
 605 1066 605 1066 676 1016 c 0,4,5
 785 939 785 939 826 813 c 1,6,-1
 720 765 l 1,7,8
 718 785 718 785 698.5 824 c 128,-1,9
 679 863 679 863 657 888 c 128,-1,10
 635 913 635 913 593.5 933.5 c 128,-1,11
 552 954 552 954 500 954 c 0,12,13
 207 954 207 954 207 529 c 0,14,15
 207 323 207 323 284.5 212 c 128,-1,16
 362 101 362 101 500 101 c 0,17,18
 595 101 595 101 654 169 c 0,19,20
 712 236 712 236 732 286 c 2,21,-1
 741 308 l 1,22,-1
 845 258 l 1,23,24
 845 237 845 237 806.5 179.5 c 128,-1,25
 768 122 768 122 730.5 83.5 c 128,-1,26
 693 45 693 45 631.5 17 c 128,-1,27
 570 -11 570 -11 500 -11 c 0,28,29
 282 -11 282 -11 178.5 128.5 c 128,-1,30
 75 268 75 268 75 520 c 7,0,1
EndSplineSet
EndChar

StartChar: j
Encoding: 106 106 60
AltUni2: 000458.ffffffff.0 0002b2.ffffffff.0 000458.ffffffff.0 0002b2.ffffffff.0 000458.ffffffff.0 0002b2.ffffffff.0 000458.ffffffff.0 0002b2.ffffffff.0 000458.ffffffff.0 0002b2.ffffffff.0 000458.ffffffff.0 0002b2.ffffffff.0 000458.ffffffff.0 0002b2.ffffffff.0 000458.ffffffff.0 0002b2.ffffffff.0 000458.ffffffff.0 0002b2.ffffffff.0 000458.ffffffff.0 0002b2.ffffffff.0 000458.ffffffff.0 0002b2.ffffffff.0 0002b2.ffffffff.0 000458.ffffffff.0 0002b2.ffffffff.0 000458.ffffffff.0 0002b2.ffffffff.0 000458.ffffffff.0 0002b2.ffffffff.0 000458.ffffffff.0 0002b2.ffffffff.0 000458.ffffffff.0 0002b2.ffffffff.0 000458.ffffffff.0 0002b2.ffffffff.0 000458.ffffffff.0 0002b2.ffffffff.0 000458.ffffffff.0 0002b2.ffffffff.0 000458.ffffffff.0 0002b2.ffffffff.0 000458.ffffffff.0
Width: 362
VWidth: 0
Flags: HW
HStem: -337 112<-55 85.5508> 1035 20<120 252> 1188 150<111 261>
VStem: 111 150<1188 1338> 120 132<-191.812 1055>
LayerCount: 2
Back
SplineSet
293 1515 m 1,0,-1
 293 1365 l 1,1,-1
 143 1365 l 1,2,-1
 143 1515 l 1,3,-1
 293 1515 l 1,0,-1
284 0 m 2,4,-1
 284 1055 l 1,5,-1
 152 1055 l 1,6,-1
 152 0 l 2,7,8
 152 -31 152 -31 152 -44.5 c 0
 152 -58 152 -58 151 -82 c 0
 150 -106 150 -106 147.5 -116 c 0
 145 -126 145 -126 140.5 -143.5 c 0
 136 -161 136 -161 129.5 -168 c 0
 123 -175 123 -175 113 -186.5 c 0
 103 -198 103 -198 89.5 -202.5 c 0
 76 -207 76 -207 58.5 -213 c 0
 41 -219 41 -219 19 -221.5 c 0
 -3 -224 -3 -224 -31 -225 c 1,9,-1
 -23 -337 l 1,10,11
 9 -338 9 -338 39.5 -337 c 0
 70 -336 70 -336 97.5 -333.5 c 0
 125 -331 125 -331 149.5 -321.5 c 0
 174 -312 174 -312 195 -297.5 c 0
 216 -283 216 -283 232.5 -257.5 c 0
 249 -232 249 -232 260.5 -197.5 c 0
 272 -163 272 -163 278 -113 c 0
 284 -63 284 -63 284 0 c 2,4,-1
EndSplineSet
Fore
Refer: 254 729 N 1 0 0 1 186 1066 2
Refer: 213 567 N 1 0 0 1 0 0 3
EndChar

StartChar: q
Encoding: 113 113 61
Width: 996
VWidth: 0
Flags: W
HStem: -411 21G<754 886> -11 112<350.115 630.405> 954 112<336.13 618.208>
VStem: 75 132<273.023 795.929> 754 132<-411 140 202.004 835.586> 771 115<916.7 1055>
LayerCount: 2
Back
SplineSet
811 -410 m 1,0,-1
 943 -410 l 1,1,-1
 943 1055 l 1,2,-1
 823 1055 l 1,3,-1
 811 891.001 l 1,4,5
 798.146 913.376 798.146 913.376 775.41 939.629 c 0
 752.673 965.882 752.673 965.882 715.903 997.575 c 0
 679.132 1029.27 679.132 1029.27 625.91 1050.28 c 0
 572.687 1071.3 572.687 1071.3 515 1072 c 1,6,7
 435 1070 435 1070 369.5 1035.5 c 0
 304 1001 304 1001 261.5 947.5 c 0
 219 894 219 894 189.5 824 c 0
 160 754 160 754 146.5 685 c 0
 133 616 133 616 132 547 c 1,8,9
 132 299 132 299 240 142 c 0
 348 -15 348 -15 528 -15 c 0,10,11
 577 -15 577 -15 628 3.5 c 0
 679 22 679 22 716 48.5 c 0
 753 75 753 75 778.5 99.5 c 0
 804 124 804 124 811 140 c 1,12,-1
 811 -410 l 1,0,-1
562 97.001 m 3,13,14
 514.613 97.001 514.613 97.001 473.88 108.874 c 0
 433.147 120.748 433.147 120.748 393.469 152.082 c 0
 353.791 183.417 353.791 183.417 325.981 232.709 c 0
 298.171 282.002 298.171 282.002 281.09 362.32 c 0
 264.01 442.639 264.01 442.639 264.01 547 c 0,15,16
 264.01 635.505 264.01 635.505 279.441 708.578 c 0
 294.872 781.651 294.872 781.651 326.526 838.934 c 0
 358.179 896.217 358.179 896.217 411.59 928.106 c 0
 465.001 959.995 465.001 959.995 536 959.995 c 0,17,18
 583.334 959.995 583.334 959.995 623.377 946.466 c 0
 663.419 932.938 663.419 932.938 697.316 904.96 c 0
 731.213 876.982 731.213 876.982 755.492 849.422 c 0
 779.772 821.862 779.772 821.862 811 779 c 1,19,-1
 811 254 l 1,20,21
 764.322 187.317 764.322 187.317 698.523 142.159 c 0
 632.724 97.001 632.724 97.001 562 97.001 c 3,13,14
EndSplineSet
Fore
SplineSet
89 385.5 m 128,-1,1
 75 464 75 464 75 543 c 7,2,3
 74 622 74 622 90 696 c 0,4,5
 122 849 122 849 217 957.5 c 128,-1,6
 312 1066 312 1066 456.5 1066 c 128,-1,7
 601 1066 601 1066 718 939 c 0,8,9
 742 913 742 913 754 891 c 1,10,-1
 771 1055 l 1,11,-1
 886 1055 l 1,12,-1
 886 -411 l 1,13,-1
 754 -411 l 1,14,-1
 754 140 l 1,15,16
 735 100 735 100 649 44.5 c 128,-1,17
 563 -11 563 -11 476.5 -11 c 128,-1,18
 390 -11 390 -11 322.5 21 c 128,-1,19
 255 53 255 53 210 107.5 c 128,-1,20
 165 162 165 162 134 234.5 c 128,-1,0
 103 307 103 307 89 385.5 c 128,-1,1
233.5 755 m 128,-1,22
 207 666 207 666 207 554.5 c 135,-1,23
 207 443 207 443 224 363 c 0,24,25
 255 217 255 217 330.5 159 c 128,-1,26
 406 101 406 101 491 101 c 0,27,28
 647 101 647 101 754 254 c 1,29,-1
 754 779 l 1,30,31
 694 861 694 861 650 894 c 0,32,33
 573 954 573 954 479 954 c 128,-1,34
 385 954 385 954 322.5 899 c 128,-1,21
 260 844 260 844 233.5 755 c 128,-1,22
EndSplineSet
EndChar

StartChar: J
Encoding: 74 74 62
AltUni2: 000408.ffffffff.0 000408.ffffffff.0 000408.ffffffff.0 000408.ffffffff.0 000408.ffffffff.0 000408.ffffffff.0 000408.ffffffff.0 000408.ffffffff.0 000408.ffffffff.0 000408.ffffffff.0 000408.ffffffff.0 000408.ffffffff.0 000408.ffffffff.0 000408.ffffffff.0 000408.ffffffff.0 000408.ffffffff.0 000408.ffffffff.0 000408.ffffffff.0 000408.ffffffff.0 000408.ffffffff.0 000408.ffffffff.0
Width: 896
VWidth: 0
Flags: W
HStem: -16 124<245.697 527.224> 1495 20G<613 761>
VStem: 613 148<209.695 1515>
LayerCount: 2
Back
SplineSet
166 303 m 17,0,1
 166.778 301.331 l 2
 173 288 173 288 180.5 273.5 c 0
 188 259 188 259 212 226 c 0
 236 193 236 193 263 169.5 c 0
 290 146 290 146 334 127 c 0
 378 108 378 108 427 108 c 0,2,3
 549 108 549 108 601.5 191.5 c 0
 654 275 654 275 654 429 c 2,4,-1
 654 1515 l 1,5,-1
 802 1515 l 1,6,-1
 802 429 l 2,7,8
 802 366 802 366 793 308.5 c 0
 784 251 784 251 758.5 190 c 0
 733 129 733 129 693 85 c 0
 653 41 653 41 584.5 12.5 c 0
 516 -16 516 -16 427 -16 c 0,9,10
 348 -16 348 -16 282 10 c 0
 216 36 216 36 178.5 72.5 c 0
 141 109 141 109 115 145.5 c 0
 89 182 89 182 79.5 208 c 2
 70 234 l 1,11,-1
 166 303 l 17,0,1
EndSplineSet
Fore
SplineSet
25 244 m 9,0,-1
 128 297 l 1,1,2
 142 268 l 1,3,4
 192 170 192 170 294 126 c 0,5,6
 338 108 338 108 386 108 c 0,7,8
 508 108 508 108 560.5 191.5 c 128,-1,9
 613 275 613 275 613 429 c 2,10,-1
 613 1515 l 1,11,-1
 761 1515 l 1,12,-1
 761 429 l 2,13,14
 762 102 762 102 544 12 c 0,15,16
 476 -16 476 -16 391.5 -16 c 128,-1,17
 307 -16 307 -16 241 10.5 c 128,-1,18
 175 37 175 37 138 70.5 c 128,-1,19
 101 104 101 104 67 156 c 128,-1,20
 33 208 33 208 25 244 c 9,0,-1
EndSplineSet
EndChar

StartChar: Z
Encoding: 90 90 63
AltUni2: 000396.ffffffff.0 000396.ffffffff.0 000396.ffffffff.0 000396.ffffffff.0 000396.ffffffff.0 000396.ffffffff.0 000396.ffffffff.0 000396.ffffffff.0 000396.ffffffff.0 000396.ffffffff.0 000396.ffffffff.0 000396.ffffffff.0 000396.ffffffff.0 000396.ffffffff.0 000396.ffffffff.0 000396.ffffffff.0 000396.ffffffff.0 000396.ffffffff.0 000396.ffffffff.0 000396.ffffffff.0 000396.ffffffff.0
Width: 1142
VWidth: 0
Flags: W
HStem: 0 142<280 1068> 1387 128<122 893>
DStem2: 68 107 280 142 0.541753 0.840538<144.27 1522.83>
LayerCount: 2
Back
SplineSet
1190 1515.17 m 29,0,-1
 227 0.000976562 l 1
52 23 m 25,2,-1
 1019 1523.17 l 1
EndSplineSet
Fore
SplineSet
68 0 m 25,0,-1
 68 107 l 1,1,-1
 893 1387 l 1,2,-1
 122 1387 l 1,3,-1
 122 1519 l 1,4,-1
 1074 1515 l 1,5,-1
 1074 1392 l 1,6,-1
 280 142 l 1,7,-1
 1068 142 l 1,8,-1
 1068 0 l 1,9,-1
 68 0 l 25,0,-1
EndSplineSet
EndChar

StartChar: w
Encoding: 119 119 64
AltUni2: 0002b7.ffffffff.0 0002b7.ffffffff.0 0002b7.ffffffff.0 0002b7.ffffffff.0 0002b7.ffffffff.0 0002b7.ffffffff.0 0002b7.ffffffff.0 0002b7.ffffffff.0 0002b7.ffffffff.0 0002b7.ffffffff.0 0002b7.ffffffff.0 0002b7.ffffffff.0 0002b7.ffffffff.0 0002b7.ffffffff.0 0002b7.ffffffff.0 0002b7.ffffffff.0 0002b7.ffffffff.0 0002b7.ffffffff.0 0002b7.ffffffff.0 0002b7.ffffffff.0 0002b7.ffffffff.0
Width: 1316
VWidth: 0
Flags: W
HStem: 0 21G<306.559 451.969 866.462 995.706> 1035 20G<25 153.836 582.767 713.65 1150.45 1291>
DStem2: 148 1055 25 1055 0.262498 -0.964933<0 828.021> 380 260 447 0 0.241124 0.970494<0 597.423> 708 1055 648 809 0.266845 -0.963739<221.069 831.299> 934 255 990 0 0.27436 0.961627<0 830.21>
LayerCount: 2
Back
SplineSet
132 1060.73 m 25,0,-1
 255.199 1060.73 l 1,1,-1
 487.6 260.4 l 1,2,-1
 694.8 1060.73 l 1,3,-1
 815.199 1060.73 l 1,4,-1
 1042 254.8 l 1,5,-1
 1263.2 1060.73 l 1,6,-1
 1397.6 1060.73 l 1,7,-1
 1098 0 l 1,8,-1
 980.399 0 l 1,9,-1
 756.399 809.2 l 1,10,-1
 554.8 0 l 1,11,-1
 420.399 0 l 1,12,-1
 132 1060.73 l 25,0,-1
EndSplineSet
Fore
SplineSet
25 1055 m 25,0,-1
 148 1055 l 1,1,-1
 380 260 l 1,2,-1
 588 1055 l 1,3,-1
 708 1055 l 1,4,-1
 934 255 l 1,5,-1
 1156 1055 l 1,6,-1
 1291 1055 l 1,7,-1
 990 0 l 1,8,-1
 872 0 l 1,9,-1
 648 809 l 1,10,-1
 447 0 l 1,11,-1
 312 0 l 1,12,-1
 25 1055 l 25,0,-1
EndSplineSet
EndChar

StartChar: four
Encoding: 52 52 65
AltUni2: 002074.ffffffff.0 002074.ffffffff.0 002074.ffffffff.0 002074.ffffffff.0 002074.ffffffff.0 002074.ffffffff.0 002074.ffffffff.0 002074.ffffffff.0 002074.ffffffff.0 002074.ffffffff.0 002074.ffffffff.0 002074.ffffffff.0 002074.ffffffff.0 002074.ffffffff.0 002074.ffffffff.0 002074.ffffffff.0 002074.ffffffff.0 002074.ffffffff.0 002074.ffffffff.0
Width: 1225
VWidth: 0
Flags: W
HStem: 0 21G<756 904> 390 124<221 756 904 1135> 1495 20G<712.945 904>
VStem: 756 148<0 390 514 1340>
DStem2: 70 510 221 514 0.546598 0.837395<85.8859 1070>
LayerCount: 2
Back
SplineSet
786 1340 m 25,0,-1
 262 530 l 1
-51 411 m 25,2,-1
 670 1515.15 l 1
700 1340 m 25,4,-1
 159 504 l 1
EndSplineSet
Fore
SplineSet
70 390 m 25,0,-1
 70 510 l 1,1,-1
 726 1515 l 1,2,-1
 904 1515 l 1,3,-1
 904 514 l 1,4,-1
 1135 514 l 1,5,-1
 1135 390 l 1,6,-1
 904 390 l 1,7,-1
 904 0 l 1,8,-1
 756 0 l 1,9,-1
 756 390 l 1,10,-1
 70 390 l 25,0,-1
221 514 m 25,11,-1
 756 514 l 1,12,-1
 756 1340 l 1,13,-1
 221 514 l 25,11,-1
EndSplineSet
EndChar

StartChar: Eth
Encoding: 208 208 66
AltUni2: 000189.ffffffff.0 000189.ffffffff.0 000189.ffffffff.0 000189.ffffffff.0 000189.ffffffff.0 000189.ffffffff.0 000189.ffffffff.0 000189.ffffffff.0 000189.ffffffff.0 000189.ffffffff.0 000189.ffffffff.0 000189.ffffffff.0 000189.ffffffff.0 000189.ffffffff.0 000189.ffffffff.0 000189.ffffffff.0 000189.ffffffff.0 000189.ffffffff.0 000189.ffffffff.0 000189.ffffffff.0 000189.ffffffff.0 000189.ffffffff.0 000189.ffffffff.0
Width: 1284
VWidth: 0
Flags: W
HStem: 0 124<285 726.12> 676 136<9 137 285 609> 1391 124<285 735.5>
VStem: 137 148<124 676 812 1391> 1008 148<450.03 1071.47>
LayerCount: 2
Back
SplineSet
144 676 m 5,0,-1
 9 676 l 1,1,-1
 9 811 l 1,2,-1
 144 811 l 1
284 811 m 5,4,-1
 609 811 l 1,5,-1
 609 676 l 1,6,-1
 284 676 l 1
EndSplineSet
Fore
SplineSet
9 676 m 25,0,-1
 9 812 l 1,1,-1
 137 812 l 1,2,-1
 137 1515 l 1,3,-1
 498 1515 l 2,4,5
 653 1515 653 1515 771 1472 c 0,6,7
 889 1428 889 1428 961 1358 c 0,8,9
 1156 1167 1156 1167 1156 759 c 128,-1,10
 1156 351 1156 351 938 150 c 0,11,12
 776 0 776 0 498 0 c 2,13,-1
 137 0 l 1,14,-1
 137 676 l 1,15,-1
 9 676 l 25,0,-1
285 124 m 9,16,-1
 498 124 l 2,17,18
 754 124 754 124 881 292.5 c 128,-1,19
 1008 461 1008 461 1008 745 c 0,20,21
 1008 1179 1008 1179 788 1319 c 0,22,23
 675 1391 675 1391 498 1391 c 2,24,-1
 285 1391 l 1,25,-1
 285 812 l 1,26,-1
 609 812 l 1,27,-1
 609 676 l 1,28,-1
 285 676 l 1,29,-1
 285 124 l 9,16,-1
EndSplineSet
EndChar

StartChar: parenright
Encoding: 41 41 67
Width: 546
VWidth: 0
Flags: W
VStem: 387 148.5<355.296 1018.19>
LayerCount: 2
Fore
SplineSet
92 1575 m 9,0,-1
 208 1653 l 1,1,2
 228 1626 l 2,3,4
 320 1500 320 1500 382.5 1352.5 c 0,5,6
 446 1205 446 1205 472 1117 c 0,7,8
 536 906 536 906 535.5 729.5 c 128,-1,9
 535 553 535 553 500.5 398 c 128,-1,10
 466 243 466 243 424 133 c 128,-1,11
 382 23 382 23 326 -87 c 128,-1,12
 270 -197 270 -197 248 -232 c 2,13,-1
 213 -288 l 1,14,-1
 97 -210 l 1,15,-1
 98 -209 l 2,16,17
 210 -36 210 -36 298.5 209.5 c 128,-1,18
 387 455 387 455 387 693 c 0,19,20
 388 822 388 822 356 962 c 0,21,22
 306 1188 306 1188 198 1394 c 0,23,24
 136 1512 136 1512 92 1575 c 9,0,-1
EndSplineSet
EndChar

StartChar: at
Encoding: 64 64 68
Width: 1609
VWidth: 0
Flags: W
HStem: -111 114<577.131 1032.64> 154 112<1155.96 1322.02> 249 112<647.954 885.72> 866 119<704.076 970.213> 1232 102<579.521 1050.5>
VStem: 80 119<380.615 863.378> 451.5 131.5<429.946 735.581> 994 131<295.912 407 459.068 838.314> 1015 110<946.117 998> 1412 117<392.17 875.749>
LayerCount: 2
Back
SplineSet
506 716 m 5,0,-1
 518.922 746.558 l 1,1,-1
 534.966 775.598 l 1,2,-1
 553.959 802.801 l 1,3,-1
 575.691 827.87 l 1,4,-1
 599.924 850.531 l 1,5,-1
 626.394 870.534 l 1,6,-1
 654.809 887.661 l 1,7,-1
 684.859 901.723 l 1,8,-1
 716.214 912.568 l 1,9,-1
 748.531 920.076 l 1,10,-1
 781.455 924.164 l 1,11,-1
 814.627 924.789 l 1,12,-1
 847.682 921.942 l 1,13,-1
 880.259 915.657 l 1,14,-1
 912 906 l 1,15,-1
 942.558 893.078 l 1,16,-1
 971.598 877.034 l 1,17,-1
 998.801 858.041 l 1,18,-1
 1023.87 836.309 l 1,19,-1
 1046.53 812.076 l 1,20,-1
 1066.53 785.606 l 1,21,-1
 1083.66 757.191 l 1,22,-1
 1097.72 727.141 l 1,23,-1
 1108.57 695.786 l 1,24,-1
 1116.08 663.469 l 1,25,-1
 1120.16 630.545 l 1,26,-1
 1120.79 597.373 l 1,27,-1
 1117.94 564.318 l 1,28,-1
 1111.66 531.741 l 1,29,-1
 1102 500 l 1,30,-1
 1089.08 469.442 l 1,31,-1
 1073.03 440.402 l 1,32,-1
 1054.04 413.199 l 1,33,-1
 1032.31 388.13 l 1,34,-1
 1008.08 365.469 l 1,35,-1
 981.606 345.466 l 1,36,-1
 953.191 328.339 l 1,37,-1
 923.141 314.277 l 1,38,-1
 891.786 303.432 l 1,39,-1
 859.469 295.924 l 1,40,-1
 826.545 291.836 l 1,41,-1
 793.373 291.211 l 1,42,-1
 760.318 294.058 l 1,43,-1
 727.741 300.343 l 1,44,-1
 696 310 l 1,45,-1
 665.442 322.922 l 1,46,-1
 636.402 338.966 l 1,47,-1
 609.199 357.959 l 1,48,-1
 584.13 379.691 l 1,49,-1
 561.469 403.924 l 1,50,-1
 541.466 430.394 l 1,51,-1
 524.339 458.809 l 1,52,-1
 510.277 488.859 l 1,53,-1
 499.432 520.214 l 1,54,-1
 491.924 552.531 l 1,55,-1
 487.836 585.455 l 1,56,-1
 487.211 618.627 l 1,57,-1
 490.058 651.682 l 1,58,-1
 496.343 684.259 l 1,59,-1
 506 716 l 5,0,-1
384.353 1138.58 m 5,60,-1
 441.228 1179.83 l 1,61,-1
 502.104 1214.91 l 1,62,-1
 566.313 1243.44 l 1,63,-1
 633.152 1265.09 l 1,64,-1
 701.89 1279.65 l 1,65,-1
 771.771 1286.93 l 1,66,-1
 842.031 1286.88 l 1,67,-1
 911.9 1279.47 l 1,68,-1
 980.614 1264.81 l 1,69,-1
 1047.42 1243.04 l 1,70,-1
 1111.58 1214.41 l 1,71,-1
 1172.4 1179.23 l 1,72,-1
 1229.21 1137.89 l 1,73,-1
 1281.38 1090.83 l 1,74,-1
 1328.35 1038.58 l 1,75,-1
 1369.6 981.705 l 1,76,-1
 1404.68 920.83 l 1,77,-1
 1433.21 856.62 l 1,78,-1
 1454.87 789.781 l 1,79,-1
 1469.42 721.044 l 1,80,-1
 1476.71 651.162 l 1,81,-1
 1476.65 580.902 l 1,82,-1
 1469.25 511.032 l 1,83,-1
 1454.58 442.319 l 1,84,-1
 1432.82 375.516 l 1,85,-1
 1404.19 311.354 l 1,86,-1
 1369 250.535 l 1,87,-1
 1327.66 193.727 l 1,88,-1
 1280.6 141.552 l 1,89,-1
 1228.35 94.5811 l 1,90,-1
 1171.48 53.3301 l 1,91,-1
 1110.6 18.249 l 1,92,-1
 1046.39 -10.2754 l 1,93,-1
 979.552 -31.9326 l 1,94,-1
 910.814 -46.4844 l 1,95,-1
 840.934 -53.7715 l 1,96,-1
 770.673 -53.7139 l 1,97,-1
 700.804 -46.3125 l 1,98,-1
 632.091 -31.6475 l 1,99,-1
 565.287 -9.88184 l 1,100,-1
 501.124 18.748 l 1,101,-1
 440.306 53.9287 l 1,102,-1
 383.498 95.2734 l 1,103,-1
 331.323 142.329 l 1,104,-1
 284.353 194.581 l 1,105,-1
 243.101 251.457 l 1,106,-1
 208.021 312.333 l 1,107,-1
 179.495 376.542 l 1,108,-1
 157.839 443.382 l 1,109,-1
 143.287 512.118 l 1,110,-1
 136 582 l 1,111,-1
 136.058 652.261 l 1,112,-1
 143.459 722.13 l 1,113,-1
 158.123 790.843 l 1,114,-1
 179.89 857.646 l 1,115,-1
 208.52 921.81 l 1,116,-1
 243.699 982.628 l 1,117,-1
 285.044 1039.44 l 1,118,-1
 332.101 1091.61 l 1,119,-1
 384.353 1138.58 l 5,60,-1
EndSplineSet
Fore
SplineSet
93.5 468 m 128,-1,1
 80 541 80 541 80 631 c 131,-1,2
 80 721 80 721 103.5 815 c 128,-1,3
 127 909 127 909 168.5 980.5 c 128,-1,4
 210 1052 210 1052 267 1112 c 0,5,6
 371 1221 371 1221 519 1277.5 c 128,-1,7
 667 1334 667 1334 811.5 1334 c 128,-1,8
 956 1334 956 1334 1086.5 1280.5 c 128,-1,9
 1217 1227 1217 1227 1314.5 1137 c 128,-1,10
 1412 1047 1412 1047 1470.5 920.5 c 128,-1,11
 1529 794 1529 794 1529 656 c 0,12,13
 1529 246 1529 246 1313 170 c 0,14,15
 1268 154 1268 154 1212 154 c 0,16,17
 1101 154 1101 154 1047.5 229.5 c 128,-1,18
 994 305 994 305 994 407 c 1,19,20
 993 407 993 407 983 388 c 0,21,22
 959 345 959 345 902 297 c 128,-1,23
 845 249 845 249 757 249 c 128,-1,24
 669 249 669 249 616 272 c 0,25,26
 525 311 525 311 484 406 c 0,27,28
 452 481 452 481 451.5 563 c 128,-1,29
 451 645 451 645 483.5 722.5 c 128,-1,30
 516 800 516 800 568 857 c 128,-1,31
 620 914 620 914 688.5 949.5 c 128,-1,32
 757 985 757 985 837.5 985 c 128,-1,33
 918 985 918 985 994 922 c 1,34,-1
 1015 998 l 1,35,-1
 1125 998 l 1,36,-1
 1125 375 l 2,37,38
 1125 324 1125 324 1162.5 295 c 128,-1,39
 1200 266 1200 266 1242 266 c 128,-1,40
 1284 266 1284 266 1318 302.5 c 128,-1,41
 1352 339 1352 339 1382 427.5 c 128,-1,42
 1412 516 1412 516 1412 645.5 c 128,-1,43
 1412 775 1412 775 1365.5 881.5 c 128,-1,44
 1319 988 1319 988 1240 1065 c 128,-1,45
 1161 1142 1161 1142 1051.5 1187 c 128,-1,46
 942 1232 942 1232 821 1232 c 0,47,48
 648 1232 648 1232 490 1147 c 0,49,50
 286 1037 286 1037 223 799 c 0,51,52
 199 709 199 709 199 610.5 c 128,-1,53
 199 512 199 512 227 425 c 0,54,55
 282 249 282 249 439 126 c 128,-1,56
 596 3 596 3 824 3 c 0,57,58
 978 3 978 3 1067 69 c 1,59,-1
 1127 -21 l 1,60,61
 1132 -24 1132 -24 1095 -45 c 0,62,63
 1040 -77 1040 -77 982 -94 c 128,-1,64
 924 -111 924 -111 830.5 -111 c 128,-1,65
 737 -111 737 -111 636.5 -88.5 c 128,-1,66
 536 -66 536 -66 459 -26.5 c 128,-1,67
 382 13 382 13 318.5 68 c 128,-1,68
 255 123 255 123 211 187 c 128,-1,69
 167 251 167 251 137 323 c 128,-1,0
 107 395 107 395 93.5 468 c 128,-1,1
617 717 m 128,-1,71
 583 649 583 649 583 568 c 131,-1,72
 583 487 583 487 631.5 424 c 128,-1,73
 680 361 680 361 756 361 c 0,74,75
 871 361 871 361 994 504 c 1,76,-1
 994 810 l 1,77,78
 918 866 918 866 843.5 866 c 128,-1,79
 769 866 769 866 710 825.5 c 128,-1,70
 651 785 651 785 617 717 c 128,-1,71
EndSplineSet
EndChar

StartChar: period
Encoding: 46 46 69
AltUni2: 002024.ffffffff.0 002024.ffffffff.0 002024.ffffffff.0 002024.ffffffff.0 002024.ffffffff.0 002024.ffffffff.0 002024.ffffffff.0 002024.ffffffff.0 002024.ffffffff.0 002024.ffffffff.0 002024.ffffffff.0 002024.ffffffff.0 002024.ffffffff.0 002024.ffffffff.0 002024.ffffffff.0 002024.ffffffff.0 002024.ffffffff.0 002024.ffffffff.0 002024.ffffffff.0
Width: 334
VWidth: 0
Flags: W
HStem: 0 150<92 242>
VStem: 92 150<0 150>
LayerCount: 2
Fore
SplineSet
92 0 m 5,0,-1
 92 150 l 1,1,-1
 242 150 l 1,2,-1
 242 0 l 1,3,-1
 92 0 l 5,0,-1
EndSplineSet
EndChar

StartChar: comma
Encoding: 44 44 70
Width: 334
VWidth: 0
Flags: W
HStem: 0 150<92 157>
VStem: 92 150<0 150>
LayerCount: 2
Fore
SplineSet
70 -250 m 21,0,-1
 157 0 l 1,1,-1
 92 0 l 1,2,-1
 92 150 l 1,3,-1
 242 150 l 1,4,-1
 242 0 l 1,5,6
 215 -57 215 -57 166 -152 c 128,-1,7
 117 -247 117 -247 114 -250 c 1,8,-1
 70 -250 l 21,0,-1
EndSplineSet
EndChar

StartChar: semicolon
Encoding: 59 59 71
AltUni2: 00037e.ffffffff.0 00037e.ffffffff.0 00037e.ffffffff.0 00037e.ffffffff.0 00037e.ffffffff.0 00037e.ffffffff.0 00037e.ffffffff.0 00037e.ffffffff.0 00037e.ffffffff.0 00037e.ffffffff.0 00037e.ffffffff.0 00037e.ffffffff.0 00037e.ffffffff.0 00037e.ffffffff.0 00037e.ffffffff.0 00037e.ffffffff.0 00037e.ffffffff.0 00037e.ffffffff.0 00037e.ffffffff.0 00037e.ffffffff.0 00037e.ffffffff.0
Width: 334
VWidth: 0
Flags: W
HStem: 0 150<92 157> 905 150<92 242>
VStem: 92 150<0 150 905 1055>
LayerCount: 2
Fore
SplineSet
70 -250 m 21,0,-1
 157 0 l 1,1,-1
 92 0 l 1,2,-1
 92 150 l 1,3,-1
 242 150 l 1,4,-1
 242 0 l 1,5,6
 215 -57 215 -57 166 -152 c 128,-1,7
 117 -247 117 -247 114 -250 c 1,8,-1
 70 -250 l 21,0,-1
92 905 m 5,9,-1
 92 1055 l 1,10,-1
 242 1055 l 1,11,-1
 242 905 l 1,12,-1
 92 905 l 5,9,-1
EndSplineSet
EndChar

StartChar: colon
Encoding: 58 58 72
Width: 334
VWidth: 0
Flags: W
HStem: 0 150<92 242> 905 150<92 242>
VStem: 92 150<0 150 905 1055>
LayerCount: 2
Fore
SplineSet
92 0 m 1,0,-1
 92 150 l 1,1,-1
 242 150 l 1,2,-1
 242 0 l 1,3,-1
 92 0 l 1,0,-1
92 905 m 1,4,-1
 92 1055 l 1,5,-1
 242 1055 l 1,6,-1
 242 905 l 1,7,-1
 92 905 l 1,4,-1
EndSplineSet
EndChar

StartChar: acute
Encoding: 180 180 73
AltUni2: 001ffd.ffffffff.0 000341.ffffffff.0 000301.ffffffff.0 001ffd.ffffffff.0 000341.ffffffff.0 000301.ffffffff.0 001ffd.ffffffff.0 000341.ffffffff.0 000301.ffffffff.0 001ffd.ffffffff.0 000341.ffffffff.0 000301.ffffffff.0 001ffd.ffffffff.0 000341.ffffffff.0 000301.ffffffff.0 001ffd.ffffffff.0 000341.ffffffff.0 000301.ffffffff.0 001ffd.ffffffff.0 000341.ffffffff.0 000301.ffffffff.0 001ffd.ffffffff.0 000341.ffffffff.0 000301.ffffffff.0 001ffd.ffffffff.0 000341.ffffffff.0 000301.ffffffff.0 000341.ffffffff.0 000301.ffffffff.0 000301.ffffffff.0 000341.ffffffff.0 000301.ffffffff.0 000341.ffffffff.0 001ffd.ffffffff.0 000301.ffffffff.0 000341.ffffffff.0 001ffd.ffffffff.0 000301.ffffffff.0 000341.ffffffff.0 001ffd.ffffffff.0 000301.ffffffff.0 000341.ffffffff.0 001ffd.ffffffff.0 000301.ffffffff.0 000341.ffffffff.0 001ffd.ffffffff.0 000301.ffffffff.0 000341.ffffffff.0 001ffd.ffffffff.0 000301.ffffffff.0 000341.ffffffff.0 001ffd.ffffffff.0 000301.ffffffff.0 000341.ffffffff.0 001ffd.ffffffff.0 000301.ffffffff.0 000341.ffffffff.0 001ffd.ffffffff.0 000301.ffffffff.0 000341.ffffffff.0 001ffd.ffffffff.0
Width: 683
VWidth: 0
Flags: W
HStem: 1095 360
VStem: 122 382
LayerCount: 2
Back
SplineSet
188 1095 m 1,0,-1
 122 1160 l 1,1,-1
 417 1455 l 1,2,-1
 483 1390 l 1,3,-1
 188 1095 l 1,0,-1
188 1095 m 5,4,-1
 122 1160 l 1,5,-1
 495 1533 l 1,6,-1
 561 1468 l 1,7,-1
 188 1095 l 5,4,-1
278 1393 m 5,8,-1
 324 1313 l 1,9,-1
 54 1157 l 1,10,-1
 8 1237 l 1,11,-1
 278 1393 l 5,8,-1
EndSplineSet
Fore
SplineSet
122 1160 m 1,0,-1
 417 1455 l 1,1,-1
 504 1368 l 1,2,-1
 188 1095 l 1,3,-1
 122 1160 l 1,0,-1
EndSplineSet
EndChar

StartChar: grave
Encoding: 96 96 74
AltUni2: 002035.ffffffff.0 002018.ffffffff.0 001fef.ffffffff.0 002035.ffffffff.0 002018.ffffffff.0 001fef.ffffffff.0 002035.ffffffff.0 002018.ffffffff.0 001fef.ffffffff.0 002035.ffffffff.0 002018.ffffffff.0 001fef.ffffffff.0 002035.ffffffff.0 002018.ffffffff.0 001fef.ffffffff.0 002035.ffffffff.0 002018.ffffffff.0 001fef.ffffffff.0 002035.ffffffff.0 002018.ffffffff.0 001fef.ffffffff.0 002035.ffffffff.0 002018.ffffffff.0 001fef.ffffffff.0 002035.ffffffff.0 002018.ffffffff.0 001fef.ffffffff.0 002018.ffffffff.0 002035.ffffffff.0 001fef.ffffffff.0 001fef.ffffffff.0 002018.ffffffff.0 002035.ffffffff.0 001fef.ffffffff.0 002018.ffffffff.0 002035.ffffffff.0 001fef.ffffffff.0 002018.ffffffff.0 002035.ffffffff.0 001fef.ffffffff.0 002018.ffffffff.0 002035.ffffffff.0 001fef.ffffffff.0 002018.ffffffff.0 002035.ffffffff.0 001fef.ffffffff.0 002018.ffffffff.0 002035.ffffffff.0 001fef.ffffffff.0 002018.ffffffff.0 002035.ffffffff.0 001fef.ffffffff.0 002018.ffffffff.0 002035.ffffffff.0 001fef.ffffffff.0 002018.ffffffff.0 002035.ffffffff.0
Width: 683
VWidth: 0
Flags: W
HStem: 1095 360
VStem: 179 382
LayerCount: 2
Back
SplineSet
178 1367 m 29,0,-1
 266 1455 l 1
EndSplineSet
Fore
SplineSet
179 1368 m 5,0,-1
 266 1455 l 1,1,-1
 561 1160 l 1,2,-1
 495 1095 l 1,3,-1
 179 1368 l 5,0,-1
EndSplineSet
EndChar

StartChar: dieresis
Encoding: 168 168 75
AltUni2: 000308.ffffffff.0 000308.ffffffff.0 000308.ffffffff.0 000308.ffffffff.0 000308.ffffffff.0 000308.ffffffff.0 000308.ffffffff.0 000308.ffffffff.0 000308.ffffffff.0 000308.ffffffff.0 000308.ffffffff.0 000308.ffffffff.0 000308.ffffffff.0 000308.ffffffff.0 000308.ffffffff.0 000308.ffffffff.0 000308.ffffffff.0 000308.ffffffff.0 000308.ffffffff.0 000308.ffffffff.0 000308.ffffffff.0
Width: 653
VWidth: 0
Flags: W
HStem: 1203 150<92 242 411 561>
VStem: 92 150<1203 1353> 411 150<1203 1353>
LayerCount: 2
Fore
SplineSet
92 1203 m 5,0,-1
 92 1353 l 1,1,-1
 242 1353 l 1,2,-1
 242 1203 l 1,3,-1
 92 1203 l 5,0,-1
411 1203 m 5,4,-1
 411 1353 l 1,5,-1
 561 1353 l 1,6,-1
 561 1203 l 1,7,-1
 411 1203 l 5,4,-1
EndSplineSet
EndChar

StartChar: exclam
Encoding: 33 33 76
Width: 334
VWidth: 0
Flags: W
HStem: 0 150<92 242>
VStem: 92 150<0 150 731.693 1446> 115 104<300 1014.31>
LayerCount: 2
Back
SplineSet
92 300 m 1,0,-1
 92 1446 l 1
EndSplineSet
Fore
SplineSet
92 0 m 5,0,-1
 92 150 l 1,1,-1
 242 150 l 1,2,-1
 242 0 l 1,3,-1
 92 0 l 5,0,-1
92 1446 m 5,4,-1
 242 1446 l 1,5,-1
 219 300 l 1,6,-1
 115 300 l 1,7,-1
 92 1446 l 5,4,-1
EndSplineSet
EndChar

StartChar: question
Encoding: 63 63 77
Width: 863
VWidth: 0
Flags: W
HStem: 0 150<273 423> 1386 129<264.341 534.983>
VStem: 273 150<0 150> 288 132<320 597.194> 636 136<971.142 1278.6>
DStem2: 411 738 544 704 0.648734 0.761015<-179.175 386.168>
LayerCount: 2
Fore
SplineSet
93 1314 m 1,0,1
 174 1467 174 1467 306 1501 c 0,2,3
 358 1515 358 1515 442 1515 c 128,-1,4
 526 1515 526 1515 606.5 1460 c 128,-1,5
 687 1405 687 1405 729.5 1317 c 128,-1,6
 772 1229 772 1229 772 1138 c 0,7,8
 772 978 772 978 648 826 c 1,9,-1
 544 704 l 1,10,11
 420 563 420 563 420 469 c 2,12,-1
 420 320 l 1,13,-1
 288 320 l 1,14,-1
 288 469 l 2,15,16
 288 592 288 592 411 738 c 2,17,-1
 513 859 l 2,18,19
 636 1004 636 1004 636 1120 c 128,-1,20
 636 1236 636 1236 567 1311 c 128,-1,21
 498 1386 498 1386 427.5 1386 c 128,-1,22
 357 1386 357 1386 315 1370.5 c 128,-1,23
 273 1355 273 1355 250 1329 c 128,-1,24
 227 1303 227 1303 193 1246 c 1,25,-1
 93 1314 l 1,0,1
273 0 m 1,26,-1
 273 150 l 1,27,-1
 423 150 l 1,28,-1
 423 0 l 1,29,-1
 273 0 l 1,26,-1
EndSplineSet
EndChar

StartChar: asciitilde
Encoding: 126 126 78
AltUni2: 000303.ffffffff.0 000303.ffffffff.0 000303.ffffffff.0 000303.ffffffff.0 000303.ffffffff.0 000303.ffffffff.0 000303.ffffffff.0 000303.ffffffff.0 000303.ffffffff.0 000303.ffffffff.0 000303.ffffffff.0 000303.ffffffff.0 000303.ffffffff.0 000303.ffffffff.0 000303.ffffffff.0 000303.ffffffff.0 000303.ffffffff.0 000303.ffffffff.0 000303.ffffffff.0 000303.ffffffff.0 000303.ffffffff.0
Width: 789
VWidth: 0
Flags: W
HStem: 1115 84<423.583 602.418> 1228 84<186.32 364.998>
VStem: 92 605
LayerCount: 2
Back
SplineSet
408.213 1254.79 m 5,0,1
 340.288 1312 340.288 1312 267 1312 c 0,2,3
 214.319 1312 214.319 1312 168.58 1279.77 c 0
 122.84 1247.55 122.84 1247.55 92 1182.09 c 1,4,-1
 161.193 1142 l 1,5,6
 178.703 1183.73 178.703 1183.73 206.175 1205.86 c 0
 233.647 1228 233.647 1228 267 1228 c 0,7,8
 320.198 1228 320.198 1228 380.886 1172.65 c 1,9,10
 448.511 1115.44 448.511 1115.44 522.099 1115.44 c 0,11,12
 574.779 1115.44 574.779 1115.44 620.519 1147.67 c 0
 666.259 1179.89 666.259 1179.89 697.099 1245.35 c 1,13,-1
 627.905 1285.44 l 1,14,15
 610.395 1243.71 610.395 1243.71 582.923 1221.58 c 0
 555.452 1199.44 555.452 1199.44 522.099 1199.44 c 0,16,17
 468.376 1199.44 468.376 1199.44 408.213 1254.79 c 5,0,1
EndSplineSet
Fore
SplineSet
92 1182 m 5,0,1
 153 1312 153 1312 267 1312 c 0,2,3
 349 1312 349 1312 407 1255.5 c 128,-1,4
 465 1199 465 1199 528 1199 c 128,-1,5
 591 1199 591 1199 628 1285 c 1,6,-1
 697 1245 l 1,7,8
 635 1115 635 1115 522 1115 c 0,9,10
 442 1115 442 1115 382.5 1171.5 c 128,-1,11
 323 1228 323 1228 260.5 1228 c 128,-1,12
 198 1228 198 1228 161 1142 c 1,13,-1
 92 1182 l 5,0,1
EndSplineSet
EndChar

StartChar: macron
Encoding: 175 175 79
Width: 707
VWidth: 0
Flags: W
HStem: 1231 92<90 617>
VStem: 90 527<1231 1323>
LayerCount: 2
Back
SplineSet
92 1321 m 5,0,-1
 405 1321 l 1,1,-1
 405 1229 l 1,2,-1
 92 1229 l 1,3,-1
 92 1321 l 5,0,-1
EndSplineSet
Fore
SplineSet
90 1231 m 1,0,-1
 90 1323 l 1,1,-1
 617 1323 l 1,2,-1
 617 1231 l 1,3,-1
 90 1231 l 1,0,-1
EndSplineSet
EndChar

StartChar: periodcentered
Encoding: 183 183 80
AltUni2: 000387.ffffffff.0 000387.ffffffff.0 000387.ffffffff.0 000387.ffffffff.0 000387.ffffffff.0 000387.ffffffff.0 000387.ffffffff.0 000387.ffffffff.0 000387.ffffffff.0 000387.ffffffff.0 000387.ffffffff.0 000387.ffffffff.0 000387.ffffffff.0 000387.ffffffff.0 000387.ffffffff.0 000387.ffffffff.0 000387.ffffffff.0 000387.ffffffff.0 000387.ffffffff.0 000387.ffffffff.0 000387.ffffffff.0
Width: 653
VWidth: 0
Flags: W
HStem: 786 150<92 242>
VStem: 92 150<786 936>
LayerCount: 2
Fore
SplineSet
92 786 m 5,0,-1
 92 936 l 1,1,-1
 242 936 l 1,2,-1
 242 786 l 1,3,-1
 92 786 l 5,0,-1
EndSplineSet
EndChar

StartChar: questiondown
Encoding: 191 191 81
Width: 863
VWidth: 0
Flags: W
HStem: 0 115<319.7 603.348> 1347 150<442 592>
VStem: 93.5 135.5<212.51 525.601> 442 150<1347 1497> 445 132<899.368 1177>
DStem2: 218 672 352 642 0.641421 0.767189<-170.781 403.932>
LayerCount: 2
Fore
SplineSet
218 672 m 1,0,-1
 320 792 l 1,1,2
 444 933 444 933 445 1028 c 2,3,-1
 445 1177 l 1,4,-1
 577 1177 l 1,5,-1
 577 1028 l 2,6,7
 577 911 577 911 454 764 c 2,8,-1
 352 642 l 2,9,10
 229 494 229 494 229 377 c 128,-1,11
 229 260 229 260 291 187.5 c 128,-1,12
 353 115 353 115 425 115 c 0,13,14
 528 115 528 115 585.5 147.5 c 128,-1,15
 643 180 643 180 682 258 c 1,16,-1
 772 201 l 1,17,18
 722 108 722 108 631 54 c 128,-1,19
 540 0 540 0 425 0 c 0,20,21
 275 0 275 0 184 109 c 128,-1,22
 93 218 93 218 93.5 369.5 c 159,-1,23
 94 521 94 521 218 672 c 1,0,-1
442 1347 m 5,24,-1
 442 1497 l 1,25,-1
 592 1497 l 1,26,-1
 592 1347 l 1,27,-1
 442 1347 l 5,24,-1
EndSplineSet
EndChar

StartChar: uni2011
Encoding: 8209 8209 82
AltUni2: 002015.ffffffff.0 002014.ffffffff.0 002013.ffffffff.0 002012.ffffffff.0 002010.ffffffff.0 002015.ffffffff.0 002014.ffffffff.0 002013.ffffffff.0 002012.ffffffff.0 002010.ffffffff.0 002015.ffffffff.0 002014.ffffffff.0 002013.ffffffff.0 002012.ffffffff.0 002011.ffffffff.0 002010.ffffffff.0 002015.ffffffff.0 002014.ffffffff.0 002013.ffffffff.0 002012.ffffffff.0 002011.ffffffff.0 002010.ffffffff.0 002015.ffffffff.0 002014.ffffffff.0 002013.ffffffff.0 002012.ffffffff.0 002011.ffffffff.0 002010.ffffffff.0 002015.ffffffff.0 002014.ffffffff.0 002013.ffffffff.0 002012.ffffffff.0 002011.ffffffff.0 002010.ffffffff.0 002015.ffffffff.0 002014.ffffffff.0 002013.ffffffff.0 002012.ffffffff.0 002011.ffffffff.0 002010.ffffffff.0 002015.ffffffff.0 002014.ffffffff.0 002013.ffffffff.0 002012.ffffffff.0 002011.ffffffff.0 002010.ffffffff.0 002015.ffffffff.0 002014.ffffffff.0 002013.ffffffff.0 002012.ffffffff.0 002011.ffffffff.0 002010.ffffffff.0 002014.ffffffff.0 002013.ffffffff.0 002013.ffffffff.0 002014.ffffffff.0 002013.ffffffff.0 002014.ffffffff.0 002013.ffffffff.0 002014.ffffffff.0 002010.ffffffff.0 002011.ffffffff.0 002012.ffffffff.0 002015.ffffffff.0 002010.ffffffff.0 002011.ffffffff.0 002012.ffffffff.0 002013.ffffffff.0 002014.ffffffff.0 002015.ffffffff.0 002010.ffffffff.0 002011.ffffffff.0 002012.ffffffff.0 002013.ffffffff.0 002014.ffffffff.0 002015.ffffffff.0 002010.ffffffff.0 002011.ffffffff.0 002012.ffffffff.0 002013.ffffffff.0 002014.ffffffff.0 002015.ffffffff.0 002010.ffffffff.0 002011.ffffffff.0 002012.ffffffff.0 002013.ffffffff.0 002014.ffffffff.0 002015.ffffffff.0 002010.ffffffff.0 002011.ffffffff.0 002012.ffffffff.0 002013.ffffffff.0 002014.ffffffff.0 002015.ffffffff.0 002010.ffffffff.0 002011.ffffffff.0 002012.ffffffff.0 002013.ffffffff.0 002014.ffffffff.0 002015.ffffffff.0 002010.ffffffff.0 002011.ffffffff.0 002012.ffffffff.0 002013.ffffffff.0 002014.ffffffff.0 002015.ffffffff.0 002011.ffffffff.0 002012.ffffffff.0 002013.ffffffff.0 002014.ffffffff.0 002015.ffffffff.0 002010.ffffffff.0 002012.ffffffff.0 002013.ffffffff.0 002014.ffffffff.0 002015.ffffffff.0
Width: 708
VWidth: 0
Flags: W
HStem: 694 92<92 616>
VStem: 92 524<694 786>
LayerCount: 2
Back
SplineSet
92 636 m 1,0,-1
 405 636 l 1,1,-1
 405 544 l 1,2,-1
 92 544 l 1,3,-1
 92 636 l 1,0,-1
EndSplineSet
Fore
SplineSet
92 694 m 5,0,-1
 92 786 l 1,1,-1
 616 786 l 1,2,-1
 616 694 l 1,3,-1
 92 694 l 5,0,-1
EndSplineSet
EndChar

StartChar: underscore
Encoding: 95 95 83
Width: 1112
VWidth: 0
Flags: W
HStem: 0 92<92 1020>
LayerCount: 2
Fore
SplineSet
92 0 m 1,0,-1
 92 92 l 1,1,-1
 1020 92 l 1,2,-1
 1020 0 l 1,3,-1
 92 0 l 1,0,-1
EndSplineSet
EndChar

StartChar: parenleft
Encoding: 40 40 84
Width: 546
VWidth: 0
Flags: W
VStem: 92 148<364.201 1016.78>
LayerCount: 2
Back
SplineSet
240 693 m 3,0,1
 240 566 240 566 270.5 426 c 0
 301 286 301 286 339.5 183 c 0
 378 80 378 80 427 -20 c 0
 476 -120 476 -120 500.5 -161 c 0
 525 -202 525 -202 539.112 -223.613 c 2
 540 -225 l 1,2,-1
 414 -288 l 1,3,4
 400 -267 400 -267 378.5 -232 c 0
 357 -197 357 -197 301 -87 c 0
 245 23 245 23 203 133 c 0
 161 243 161 243 126.5 398 c 0
 92 553 92 553 92 693 c 0,5,6
 92 803 92 803 110.5 916 c 0
 129 1029 129 1029 155.5 1117 c 0
 182 1205 182 1205 220.5 1295.5 c 0
 259 1386 259 1386 288.5 1442 c 0
 318 1498 318 1498 354 1555.5 c 0
 390 1613 390 1613 399.5 1626 c 0
 409 1639 409 1639 419 1653 c 1,7,-1
 545 1590 l 1,8,9
 530 1569 530 1569 509 1536 c 0
 488 1503 488 1503 436 1403.5 c 0
 384 1304 384 1304 344.5 1204.5 c 0
 305 1105 305 1105 272.5 963.5 c 0
 240 822 240 822 240 693 c 3,0,1
EndSplineSet
Fore
SplineSet
126.5 398 m 128,-1,1
 92 553 92 553 92 678 c 135,-1,2
 92 803 92 803 110.5 916 c 128,-1,3
 129 1029 129 1029 155.5 1117 c 128,-1,4
 182 1205 182 1205 220.5 1295.5 c 0,5,6
 258 1386 258 1386 288 1442 c 0,7,8
 350 1557 350 1557 400 1626 c 2,9,-1
 419 1653 l 1,10,-1
 535 1575 l 1,11,12
 491 1512 491 1512 435 1404.5 c 128,-1,13
 379 1297 379 1297 341 1199.5 c 128,-1,14
 303 1102 303 1102 271.5 962 c 128,-1,15
 240 822 240 822 240 694 c 128,-1,16
 240 566 240 566 270 428 c 0,17,18
 343 83 343 83 530 -210 c 1,19,-1
 414 -288 l 1,20,-1
 378 -232 l 2,21,22
 356 -197 356 -197 300.5 -87 c 128,-1,23
 245 23 245 23 203 133 c 128,-1,0
 161 243 161 243 126.5 398 c 128,-1,1
EndSplineSet
EndChar

StartChar: sterling
Encoding: 163 163 85
Width: 1153
VWidth: 0
Flags: W
HStem: 0 138<285 882.562> 633 135<42 177 317 642> 1405 120<455.012 750>
VStem: 177 140<138.898 633 768 1239.21>
LayerCount: 2
Back
SplineSet
317 633 m 1,0,-1
 317 138 l 1,1,-1
 590 138 l 2,2,3
 672 138 672 138 736 146.5 c 0
 800 155 800 155 833.5 166.5 c 0
 867 178 867 178 888.5 191.5 c 0
 910 205 910 205 916 212 c 0
 922 219 922 219 922 221 c 1,4,-1
 1000 133 l 1,5,6
 998.414 130.376 l 2
 992 119 992 119 984 108.5 c 0
 976 98 976 98 945.5 76.5 c 0
 915 55 915 55 875 40 c 0
 835 25 835 25 759.5 12.5 c 0
 684 0 684 0 590 0 c 2,7,-1
 177 0 l 1,8,-1
 177 633 l 1,9,-1
 42 633 l 1,10,-1
 42 768 l 1,11,-1
 177 768 l 1,12,-1
 177 879 l 2,13,14
 177 977 177 977 183.5 1053 c 0
 190 1129 190 1129 207 1206 c 0
 224 1283 224 1283 256.5 1338 c 0
 289 1393 289 1393 337.5 1437 c 0
 386 1481 386 1481 459 1503 c 0
 532 1525 532 1525 627 1525 c 0,15,16
 657 1525 657 1525 703 1521.5 c 0
 749 1518 749 1518 750 1515 c 1,17,-1
 750 1403 l 1,18,19
 682 1405 682 1405 647 1405 c 0,20,21
 546 1405 546 1405 482 1376.5 c 0
 418 1348 418 1348 381.5 1281.5 c 0
 345 1215 345 1215 331 1121 c 0
 317 1027 317 1027 317 879 c 2,22,-1
 317 768 l 1,23,-1
 642 768 l 1,24,-1
 642 633 l 1,25,-1
 317 633 l 1,0,-1
42 767.999 m 1,26,-1
 42 633 l 1,27,-1
 642 633 l 1,28,-1
 641.999 768 l 1,29,-1
 42 767.999 l 1,26,-1
EndSplineSet
Fore
SplineSet
1000 133 m 1,0,1
 939 0 939 0 612 0 c 2,2,-1
 145 0 l 1,3,-1
 145 138 l 1,4,5
 158 172 158 172 167.5 292.5 c 128,-1,6
 177 413 177 413 177 507 c 2,7,-1
 177 633 l 1,8,-1
 42 633 l 5,9,-1
 42 768 l 1,10,-1
 177 768 l 1,11,-1
 177 879 l 2,12,13
 177 1203 177 1203 254 1334 c 128,-1,14
 331 1465 331 1465 459 1503 c 0,15,16
 532 1525 532 1525 639 1525 c 128,-1,17
 746 1525 746 1525 750 1515 c 1,18,-1
 750 1403 l 1,19,20
 682 1405 682 1405 614 1405 c 128,-1,21
 546 1405 546 1405 482 1376.5 c 128,-1,22
 418 1348 418 1348 381.5 1281.5 c 128,-1,23
 345 1215 345 1215 331 1121 c 128,-1,24
 317 1027 317 1027 317 879 c 2,25,-1
 317 768 l 1,26,-1
 642 768 l 1,27,-1
 642 633 l 1,28,-1
 317 633 l 1,29,-1
 317 507 l 2,30,31
 317 410 317 410 308.5 288 c 128,-1,32
 300 166 300 166 285 138 c 1,33,-1
 612 138 l 2,34,35
 850 138 850 138 912 204 c 0,36,37
 922 215 922 215 922 221 c 1,38,-1
 1000 133 l 1,0,1
EndSplineSet
EndChar

StartChar: germandbls
Encoding: 223 223 89
Width: 1226
VWidth: 0
Flags: W
HStem: -11 112<631.262 931.963> 1405 120<418.857 727.516>
VStem: 160 140<0 1263.88> 422 128<697.7 894.705> 795 125<1102.59 1341.44> 994 132<160.591 393.707>
DStem2: 756 618 770.5 482 0.948683 -0.316228<-210.055 278.205>
LayerCount: 2
Back
SplineSet
160 0 m 17,0,-1
 160 879 l 2,1,2
 160 973 160 973 162 1029.5 c 0
 164 1086 164 1086 172 1163 c 0
 180 1240 180 1240 196.5 1285.5 c 0
 213 1331 213 1331 243.5 1382.5 c 0
 274 1434 274 1434 318 1461 c 0
 362 1488 362 1488 428 1506.5 c 0
 494 1525 494 1525 580 1525 c 0,3,4
 733.249 1525 733.249 1525 826.695 1441.05 c 0
 920.142 1357.1 920.142 1357.1 920.142 1232 c 0,5,6
 920.142 1132.65 920.142 1132.65 869.159 1055.91 c 0
 818.177 979.164 818.177 979.164 739.518 948.713 c 0,7,8
 717.883 940.337 717.883 940.337 684.287 928.593 c 0
 650.691 916.849 650.691 916.849 635.686 911.147 c 0
 620.68 905.445 620.68 905.445 600.202 894.645 c 0
 579.723 883.846 579.723 883.846 571.353 872.976 c 0
 562.983 862.105 562.983 862.105 556.491 844.701 c 0
 550 827.296 550 827.296 550 804 c 0,9,10
 550 763 550 763 568 731.5 c 0
 586 700 586 700 622.5 677 c 0
 659 654 659 654 695.5 639.5 c 0
 732 625 732 625 788 608 c 0,11,12
 832 595 832 595 856.5 587 c 0
 881 579 881 579 922.5 562.5 c 0
 964 546 964 546 987.5 531 c 0
 1011 516 1011 516 1041 491.5 c 0
 1071 467 1071 467 1087 439.5 c 0
 1103 412 1103 412 1114.5 374 c 0
 1126 336 1126 336 1126 292 c 0,13,14
 1126 160 1126 160 1025 76.5 c 0
 924 -7 924 -7 786 -7 c 0,15,16
 665 -7 665 -7 587.5 30.5 c 0
 510 68 510 68 444 173 c 1,17,-1
 543 237 l 1,18,19
 595 157 595 157 641.5 131 c 0
 688 105 688 105 784 105 c 0,20,21
 818 105 818 105 851 112.5 c 0
 884 120 884 120 918 138 c 0
 952 156 952 156 973 191.5 c 0
 994 227 994 227 994 277 c 0,22,23
 994 326 994 326 972 364 c 0
 950 402 950 402 909.5 425.5 c 0
 869 449 869 449 831.5 462.5 c 0
 794 476 794 476 744 488 c 0,24,25
 698 499 698 499 656.5 513.5 c 0
 615 528 615 528 571 553 c 0
 527 578 527 578 495 609 c 0
 463 640 463 640 442.5 685.5 c 0
 422 731 422 731 422 784 c 0,26,27
 422 848.751 422 848.751 436.471 895.654 c 0
 450.942 942.558 450.942 942.558 482.087 975.17 c 0
 513.231 1007.78 513.231 1007.78 554.457 1028.84 c 0
 595.683 1049.91 595.683 1049.91 656.621 1067.11 c 0,28,29
 680.192 1073.76 680.192 1073.76 694.331 1079.11 c 0
 708.47 1084.46 708.47 1084.46 726.889 1096.65 c 0
 745.307 1108.84 745.307 1108.84 755.365 1124.89 c 0
 765.423 1140.93 765.423 1140.93 772.712 1168.28 c 0
 780 1195.63 780 1195.63 780 1232 c 0,30,31
 780 1315 780 1315 721 1360 c 0
 662 1405 662 1405 580 1405 c 0,32,33
 510 1405 510 1405 461 1385.5 c 0
 412 1366 412 1366 380.5 1329 c 0
 349 1292 349 1292 331.5 1225.5 c 0
 314 1159 314 1159 307 1078.5 c 0
 300 998 300 998 300 879 c 2,34,-1
 300 0 l 1,35,-1
 160 0 l 17,0,-1
EndSplineSet
Fore
SplineSet
160 0 m 21,0,-1
 160 879 l 2,1,2
 160 1185 160 1185 202 1300 c 128,-1,3
 244 1415 244 1415 318 1461 c 0,4,5
 422 1525 422 1525 577.5 1525 c 128,-1,6
 733 1525 733 1525 826.5 1440 c 128,-1,7
 920 1355 920 1355 920 1243.5 c 128,-1,8
 920 1132 920 1132 866 1058 c 128,-1,9
 812 984 812 984 732 953 c 0,10,11
 715 946 715 946 684.5 935 c 128,-1,12
 654 924 654 924 642 919 c 128,-1,13
 630 914 630 914 610 904 c 0,14,15
 550 876 550 876 550 805 c 0,16,17
 550 723 550 723 615 682 c 128,-1,18
 680 641 680 641 756 618 c 128,-1,19
 832 595 832 595 856.5 587 c 128,-1,20
 881 579 881 579 922.5 562.5 c 128,-1,21
 964 546 964 546 988 531 c 0,22,23
 1062 484 1062 484 1094 428 c 128,-1,24
 1126 372 1126 372 1126 292 c 0,25,26
 1126 159 1126 159 1025 74 c 128,-1,27
 924 -11 924 -11 795 -11 c 128,-1,28
 666 -11 666 -11 588 28 c 128,-1,29
 510 67 510 67 444 173 c 1,30,-1
 543 237 l 1,31,32
 595 156 595 156 642 128.5 c 128,-1,33
 689 101 689 101 785.5 101 c 128,-1,34
 882 101 882 101 938 149.5 c 128,-1,35
 994 198 994 198 994 262 c 0,36,37
 994 376 994 376 910 426 c 0,38,39
 843 465 843 465 770.5 482 c 0,40,41
 698 500 698 500 656 514 c 0,42,43
 558 548 558 548 490 614 c 128,-1,44
 422 680 422 680 422 795.5 c 128,-1,45
 422 911 422 911 487.5 970 c 128,-1,46
 553 1029 553 1029 659 1058 c 0,47,48
 766 1087 766 1087 786 1153 c 0,49,50
 796 1184 796 1184 795 1229 c 0,51,52
 795 1312 795 1312 731.5 1358.5 c 128,-1,53
 668 1405 668 1405 589 1405 c 0,54,55
 510 1406 510 1406 462 1386 c 0,56,57
 364 1347 364 1347 332 1226.5 c 128,-1,58
 300 1106 300 1106 300 879 c 2,59,-1
 300 0 l 1,60,-1
 160 0 l 21,0,-1
EndSplineSet
EndChar

StartChar: thorn
Encoding: 254 254 90
Width: 1081
VWidth: 0
Flags: W
HStem: -411 21G<160 292> -11 112<415.884 696.71> 954 112<429.649 709.764> 1495 20G<160 292>
VStem: 160 132<-411 140 200.557 834.161 891 1515> 839 132<272.746 791.699>
LayerCount: 2
Fore
SplineSet
160 -411 m 1,0,-1
 160 1515 l 1,1,-1
 292 1515 l 1,2,-1
 292 891 l 1,3,4
 316 936 316 936 371 981 c 0,5,6
 474 1066 474 1066 588 1066 c 0,7,8
 798 1066 798 1066 908 836 c 0,9,10
 971 704 971 704 971 547 c 0,11,12
 971 272 971 272 836 108 c 0,13,14
 738 -11 738 -11 575 -11 c 0,15,16
 483 -11 483 -11 397 44.5 c 128,-1,17
 311 100 311 100 292 140 c 1,18,-1
 292 -411 l 1,19,-1
 160 -411 l 1,0,-1
292 254 m 1,20,21
 338 188 338 188 404 144.5 c 128,-1,22
 470 101 470 101 529.5 101 c 0,23,24
 590 100 590 100 630 112 c 0,25,26
 723 138 723 138 781 240 c 128,-1,27
 839 342 839 342 839 547 c 0,28,29
 840 797 840 797 724 899 c 0,30,31
 662 954 662 954 567 954 c 0,32,33
 442 954 442 954 348 848 c 0,34,35
 324 820 324 820 292 779 c 1,36,-1
 292 254 l 1,20,21
EndSplineSet
EndChar

StartChar: eth
Encoding: 240 240 91
AltUni2: 001d9e.ffffffff.0 001d9e.ffffffff.0 001d9e.ffffffff.0 001d9e.ffffffff.0 001d9e.ffffffff.0 001d9e.ffffffff.0 001d9e.ffffffff.0 001d9e.ffffffff.0 001d9e.ffffffff.0 001d9e.ffffffff.0 001d9e.ffffffff.0 001d9e.ffffffff.0 001d9e.ffffffff.0 001d9e.ffffffff.0 001d9e.ffffffff.0 001d9e.ffffffff.0 001d9e.ffffffff.0 001d9e.ffffffff.0 001d9e.ffffffff.0
Width: 1022
VWidth: 0
Flags: W
HStem: -11 112<368.403 655.375> 954 112<363.367 659.688> 1495 20G<418 582>
VStem: 100 132<264.462 797.139> 790 132<261.449 797.854>
DStem2: 387 1222 433 1142 0.865902 0.500214<0 229.339 348.354 527.588>
LayerCount: 2
Back
SplineSet
748 1430 m 5,0,-1
 794 1350 l 1,1,-1
 524 1194 l 1,2,-1
 478 1274 l 1,3,-1
 748 1430 l 5,0,-1
800 942 m 5,4,5
 800 942 800 942 788.593 914 c 1
 783.667 906.222 783.667 906.222 781 912 c 0,6,7
 761 955 761 955 746.5 990.5 c 0
 732 1026 732 1026 712 1080 c 0
 692 1134 692 1134 675 1176 c 0,8,9
 647 1247 647 1247 603.5 1311.5 c 0
 560 1376 560 1376 529 1409 c 0
 498 1442 498 1442 457.5 1478.5 c 2
 417 1515 l 1,10,-1
 558 1515 l 1,11,12
 572 1505 572 1505 593.5 1486 c 0
 615 1467 615 1467 654 1426 c 0
 693 1385 693 1385 734.5 1319 c 0
 776 1253 776 1253 807 1176 c 0,13,14
 874 1010 874 1010 898 859.5 c 0
 922 709 922 709 922 527 c 0,15,16
 922 369 922 369 875.5 247.5 c 0
 829 126 829 126 735 55 c 0
 641 -16 641 -16 512 -16 c 0,17,18
 383 -16 383 -16 288 56.5 c 0
 193 129 193 129 146.5 250.5 c 0
 100 372 100 372 100 528 c 0,19,20
 100 777 100 777 208 924 c 0
 316 1071 316 1071 512 1071 c 0,21,22
 626 1071 626 1071 713 1018 c 1,23,24
 765 985 765 985 800 942 c 5,4,5
790 527 m 7,25,26
 790 959 790 959 512 959 c 0,27,28
 232 959 232 959 232 528 c 0,29,30
 232 464 232 464 239 407 c 0
 246 350 246 350 265.5 291.5 c 0
 285 233 285 233 315.5 191 c 0
 346 149 346 149 396.5 122.5 c 0
 447 96 447 96 512 96 c 0,31,32
 577 96 577 96 627.5 122.5 c 0
 678 149 678 149 708 190.5 c 0
 738 232 738 232 757 290.5 c 0
 776 349 776 349 783 406 c 0
 790 463 790 463 790 527 c 7,25,26
EndSplineSet
Fore
SplineSet
557 1515 m 1,0,1
 607 1484 607 1484 682 1392 c 1,2,-1
 844 1486 l 1,3,-1
 890 1406 l 1,4,-1
 735 1316 l 1,5,6
 922 1015 922 1015 922 527 c 0,7,8
 922 198 922 198 734 58 c 0,9,10
 640 -12 640 -12 512 -11 c 0,11,12
 318 -11 318 -11 209 139.5 c 128,-1,13
 100 290 100 290 100 533 c 131,-1,14
 100 776 100 776 208.5 921 c 128,-1,15
 317 1066 317 1066 512 1066 c 0,16,17
 659 1066 659 1066 744 996 c 1,18,19
 665 1202 665 1202 653 1224 c 2,20,-1
 636 1258 l 1,21,-1
 433 1142 l 1,22,-1
 387 1222 l 1,23,-1
 586 1336 l 1,24,25
 529 1413 529 1413 474.5 1463 c 128,-1,26
 420 1513 420 1513 418 1515 c 1,27,-1
 557 1515 l 1,0,1
232 528 m 3,28,29
 232 212 232 212 396 127 c 0,30,31
 446 101 446 101 512 101 c 128,-1,32
 578 101 578 101 628 127 c 0,33,34
 790 211 790 211 790 527 c 0,35,36
 790 954 790 954 511 954 c 128,-1,37
 232 954 232 954 232 528 c 3,28,29
EndSplineSet
EndChar

StartChar: Oslash
Encoding: 216 216 92
Width: 1251
VWidth: 0
Flags: W
HStem: -16 124<457.36 799.087> 1408 124<452.412 799.074>
VStem: 70 148<439.5 1085.87> 1033 148<421.918 1074.02>
DStem2: 132 28 247 -38 0.500363 0.865816<0.397897 152.713 340.112 1410.31 1608.01 1756.62>
LayerCount: 2
Back
SplineSet
952 1447 m 5,0,-1
 1066 1381 l 1,1,-1
 308 67 l 1,2,-1
 193 133 l 1,3,-1
 952 1447 l 5,0,-1
70 752 m 27,4,5
 70 868 70 868 89 977 c 0
 108 1086 108 1086 151 1188 c 0
 194 1290 194 1290 257.5 1365.5 c 0
 321 1441 321 1441 417 1486.5 c 0
 513 1532 513 1532 631 1532 c 0,6,7
 744 1532 744 1532 837.5 1485.5 c 0
 931 1439 931 1439 993.5 1362.5 c 0
 1056 1286 1056 1286 1099 1184 c 0
 1142 1082 1142 1082 1161.5 973.5 c 0
 1181 865 1181 865 1181 752 c 0,8,9
 1181 636 1181 636 1162 528 c 0
 1143 420 1143 420 1100 320 c 0
 1057 220 1057 220 994.5 146 c 0
 932 72 932 72 838.5 28 c 0
 745 -16 745 -16 631 -16 c 0,10,11
 520 -16 520 -16 426 28.5 c 0
 332 73 332 73 267.5 147.5 c 0
 203 222 203 222 157.5 321.5 c 0
 112 421 112 421 91 529.5 c 0
 70 638 70 638 70 752 c 27,4,5
1033 752 m 3,12,13
 1033 846 1033 846 1021.5 934 c 0
 1010 1022 1010 1022 981 1110 c 0
 952 1198 952 1198 907.5 1262.5 c 0
 863 1327 863 1327 792 1367.5 c 0
 721 1408 721 1408 631 1408 c 0,14,15
 541 1408 541 1408 469.5 1372 c 0
 398 1336 398 1336 351.5 1275.5 c 0
 305 1215 305 1215 274.5 1130 c 0
 244 1045 244 1045 231 951.5 c 0
 218 858 218 858 218 752 c 0,16,17
 218 620 218 620 241.5 507.5 c 0
 265 395 265 395 312.5 304 c 0
 360 213 360 213 441.5 160.5 c 0
 523 108 523 108 631 108 c 0,18,19
 720 108 720 108 791 147.5 c 0
 862 187 862 187 906.5 250 c 0
 951 313 951 313 980.5 399 c 0
 1010 485 1010 485 1021.5 572 c 0
 1033 659 1033 659 1033 752 c 3,12,13
EndSplineSet
Fore
SplineSet
110.5 451.5 m 128,-1,1
 70 598 70 598 70 733 c 139,-1,2
 70 868 70 868 89 977 c 128,-1,3
 108 1086 108 1086 151 1188 c 128,-1,4
 194 1290 194 1290 257.5 1365.5 c 128,-1,5
 321 1441 321 1441 417 1486.5 c 128,-1,6
 513 1532 513 1532 631 1532 c 0,7,8
 805 1532 805 1532 937 1420 c 1,9,-1
 1011 1549 l 1,10,-1
 1125 1483 l 1,11,-1
 1028 1316 l 1,12,13
 1103 1205 1103 1205 1142 1055.5 c 128,-1,14
 1181 906 1181 906 1181 771 c 128,-1,15
 1181 636 1181 636 1162 528 c 128,-1,16
 1143 420 1143 420 1100 320 c 128,-1,17
 1057 220 1057 220 994.5 146 c 128,-1,18
 932 72 932 72 838.5 28 c 128,-1,19
 745 -16 745 -16 631 -16 c 0,20,21
 456 -16 456 -16 323 94 c 1,22,-1
 247 -38 l 1,23,-1
 132 28 l 1,24,-1
 229 196 l 1,25,0
 151 305 151 305 110.5 451.5 c 128,-1,1
303 322 m 1,26,-1
 871 1306 l 1,27,28
 774 1408 774 1408 631 1408 c 0,29,30
 374 1408 374 1408 274 1130 c 0,31,32
 218 973 218 973 218 732.5 c 131,-1,33
 218 492 218 492 303 322 c 1,26,-1
387 204 m 1,34,35
 488 108 488 108 631 108 c 0,36,37
 720 108 720 108 791 148 c 0,38,39
 1033 283 1033 283 1033 780 c 0,40,41
 1033 1007 1033 1007 952 1183 c 1,42,-1
 387 204 l 1,34,35
EndSplineSet
EndChar

StartChar: uni00B5
Encoding: 181 181 93
Width: 979
VWidth: 0
Flags: W
HStem: -411 21G<129 265> -11 112<317.767 561.582> 1035 20G<129 261 737 869>
VStem: 129 132<-411 15 156.469 1055> 737 132<0 174 228.765 1055>
LayerCount: 2
Back
SplineSet
247.43 46.5762 m 5,0,1
 315.902 -11 315.902 -11 423 -11 c 0,2,3
 476 -11 476 -11 524.5 4 c 0
 573 19 573 19 618 49 c 0
 663 79 663 79 694 105.5 c 0
 725 132 725 132 768 174 c 1,4,-1
 768 0 l 1,5,-1
 900 0 l 1,6,-1
 900 1055 l 1,7,-1
 768 1055 l 1,8,-1
 768 274 l 1,9,10
 609 101 609 101 461 101 c 0,11,12
 399 101 399 101 345.5 147.5 c 0
 292 194 292 194 292 269 c 2,13,-1
 292 1055 l 1,14,-1
 160 1055 l 1,15,-1
 160 269 l 1,16,-1
 160 -411 l 1,17,-1
 296 -411 l 1,18,-1
 296 63 l 1,19,-1
 247.43 46.5762 l 5,0,1
EndSplineSet
Fore
SplineSet
129 -411 m 1,0,-1
 129 1055 l 1,1,-1
 261 1055 l 1,2,-1
 261 269 l 2,3,4
 261 194 261 194 314.5 147.5 c 128,-1,5
 368 101 368 101 430 101 c 0,6,7
 578 101 578 101 737 274 c 1,8,-1
 737 1055 l 1,9,-1
 869 1055 l 1,10,-1
 869 0 l 1,11,-1
 737 0 l 1,12,-1
 737 174 l 1,13,14
 596 35 596 35 494 4 c 0,15,16
 446 -11 446 -11 384 -11 c 128,-1,17
 322 -11 322 -11 265 15 c 1,18,-1
 265 -411 l 1,19,-1
 129 -411 l 1,0,-1
EndSplineSet
EndChar

StartChar: Thorn
Encoding: 222 222 94
Width: 1113
VWidth: 0
Flags: W
HStem: 0 21G<90 238> 357 124<238 731.757> 1056 124<238 734.588> 1495 20G<90 238>
VStem: 90 148<0 357 481 1056 1180 1515> 875 147.5<606.669 929.741>
LayerCount: 2
Back
SplineSet
238 1515.12 m 5,0,-1
 90 1515.12 l 1
247.526 1180 m 5,2,-1
 619 1180 l 2,3,4
 703 1180 703 1180 773 1154.5 c 0
 843 1129 843 1129 888 1088 c 0
 933 1047 933 1047 964.5 994 c 0
 996 941 996 941 1009.5 887.5 c 0
 1023 834 1023 834 1023 782 c 0,5,6
 1023 701 1023 701 1001 628.5 c 0
 979 556 979 556 933.5 493.5 c 0
 888 431 888 431 807 394 c 0
 726 357 726 357 619 357 c 2,7,-1
 238 357 l 1,8,-1
 238 0 l 1,9,-1
 90 0 l 1,10,-1
 90 1180 l 1,11,-1
 247.526 1180 l 5,2,-1
875 775 m 4,12,13
 875 915 875 915 777 985.5 c 0
 679 1056 679 1056 518 1056 c 2,14,-1
 238 1056 l 1,15,-1
 238 481 l 1,16,17
 518 481 l 2,18,19
 680 481 680 481 777.5 552 c 0
 875 623 875 623 875 775 c 4,12,13
EndSplineSet
Fore
SplineSet
90 0 m 1,0,-1
 90 1515 l 1,1,-1
 238 1515 l 1,2,-1
 238 1180 l 1,3,-1
 619 1180 l 2,4,5
 854 1180 854 1180 964 994 c 0,6,7
 1022 896 1022 896 1022.5 798.5 c 128,-1,8
 1023 701 1023 701 1001 628.5 c 128,-1,9
 979 556 979 556 933.5 493.5 c 128,-1,10
 888 431 888 431 807 394 c 128,-1,11
 726 357 726 357 619 357 c 2,12,-1
 238 357 l 1,13,-1
 238 0 l 1,14,-1
 90 0 l 1,0,-1
238 481 m 1,15,-1
 518 481 l 2,16,17
 680 481 680 481 777.5 552 c 128,-1,18
 875 623 875 623 875 769 c 128,-1,19
 875 915 875 915 777 985.5 c 128,-1,20
 679 1056 679 1056 518 1056 c 2,21,-1
 238 1056 l 1,22,-1
 238 481 l 1,15,-1
EndSplineSet
EndChar

StartChar: oslash
Encoding: 248 248 95
Width: 1022
VWidth: 0
Flags: W
HStem: -12 112<366.906 656.104> 954 112<363.604 646.242>
VStem: 100 132<273.115 797.35> 790 132<261.182 800.332>
DStem2: 134 30 249 -36 0.500049 0.865997<0.349788 100.694 278.212 982.837 1138.01 1237.73>
LayerCount: 2
Back
SplineSet
808.382 928 m 0,0,1
 922 783.623 922 783.623 922 527 c 0,2,3
 922 286 922 286 813.5 137 c 0
 705 -12 705 -12 512 -12 c 0,4,5
 414 -12 414 -12 335.5 29 c 0
 257 70 257 70 206 142.5 c 0
 155 215 155 215 127.5 313.5 c 0
 100 412 100 412 100 528 c 0,6,7
 100 776 100 776 208.5 921 c 0
 317 1066 317 1066 512 1066 c 0,8,9
 618.56 1066 618.56 1066 701.417 1020 c 0
645 921.803 m 0,11,12
 589.394 954 589.394 954 512 954 c 0,13,14
 232 954 232 954 232 528 c 0,15,16
 232 465 232 465 239 408 c 0
 246 351 246 351 265.5 293 c 0
 285 235 285 235 315.5 193.5 c 0
 346 152 346 152 396.5 126 c 0
 447 100 447 100 512 100 c 0,17,18
 577 100 577 100 627.5 126 c 0
 678 152 678 152 708 193 c 0
 738 234 738 234 757 292 c 0
 776 350 776 350 783 406.5 c 0
 790 463 790 463 790 527 c 0,19,20
 790 709.68 790 709.68 740.76 813 c 0
706.229 1021 m 1,22,-1
 753 1102 l 1,23,-1
 867 1036 l 1,24,-1
 808.198 934 l 1
737.866 812 m 1,26,-1
 249 -36 l 1,27,-1
 134 30 l 1,28,-1
 646.754 918 l 1
753 1102 m 5,30,-1
 867 1036 l 1,31,-1
 249 -36 l 1,32,-1
 134 30 l 1,33,-1
 753 1102 l 5,30,-1
922 527 m 7,34,35
 922 369 922 369 875.5 247.5 c 0
 829 126 829 126 735 55 c 0
 641 -16 641 -16 512 -16 c 0,36,37
 383 -16 383 -16 288 56.5 c 0
 193 129 193 129 146.5 250.5 c 0
 100 372 100 372 100 528 c 0,38,39
 100 777 100 777 208 924 c 0
 316 1071 316 1071 512 1071 c 0,40,41
 708 1071 708 1071 815 923 c 0
 922 775 922 775 922 527 c 7,34,35
790 527 m 7,42,43
 790 959 790 959 512 959 c 0,44,45
 232 959 232 959 232 528 c 0,46,47
 232 464 232 464 239 407 c 0
 246 350 246 350 265.5 291.5 c 0
 285 233 285 233 315.5 191 c 0
 346 149 346 149 396.5 122.5 c 0
 447 96 447 96 512 96 c 0,48,49
 577 96 577 96 627.5 122.5 c 0
 678 149 678 149 708 190.5 c 0
 738 232 738 232 757 290.5 c 0
 776 349 776 349 783 406 c 0
 790 463 790 463 790 527 c 7,42,43
EndSplineSet
Fore
SplineSet
202 148 m 1,0,1
 100 296 100 296 100 536 c 131,-1,2
 100 776 100 776 208.5 921 c 128,-1,3
 317 1066 317 1066 512 1066 c 0,4,5
 619 1066 619 1066 705 1018 c 1,6,-1
 753 1102 l 1,7,-1
 867 1036 l 1,8,-1
 807 930 l 1,9,10
 922 782 922 782 922 534 c 128,-1,11
 922 286 922 286 813.5 137 c 128,-1,12
 705 -12 705 -12 512 -12 c 0,13,14
 393 -12 393 -12 299 51 c 1,15,-1
 249 -36 l 1,16,-1
 134 30 l 1,17,-1
 202 148 l 1,0,1
232 528 m 3,18,19
 232 376 232 376 273 271 c 1,20,-1
 648 920 l 1,21,22
 590 954 590 954 512 954 c 0,23,24
 232 954 232 954 232 528 c 3,18,19
357 152 m 1,25,26
 422 100 422 100 499.5 100 c 0,27,28
 578 100 578 100 628 126 c 0,29,30
 718 173 718 173 754 283 c 128,-1,31
 790 393 790 393 790 551 c 128,-1,32
 790 709 790 709 740 815 c 1,33,-1
 357 152 l 1,25,26
EndSplineSet
EndChar

StartChar: ae
Encoding: 230 230 96
AltUni2: 0004d5.ffffffff.0 0004d5.ffffffff.0 0004d5.ffffffff.0 0004d5.ffffffff.0 0004d5.ffffffff.0 0004d5.ffffffff.0 0004d5.ffffffff.0 0004d5.ffffffff.0 0004d5.ffffffff.0 0004d5.ffffffff.0 0004d5.ffffffff.0 0004d5.ffffffff.0 0004d5.ffffffff.0 0004d5.ffffffff.0 0004d5.ffffffff.0 0004d5.ffffffff.0 0004d5.ffffffff.0 0004d5.ffffffff.0 0004d5.ffffffff.0 0004d5.ffffffff.0 0004d5.ffffffff.0
Width: 1527
VWidth: 0
Flags: W
HStem: -11 112<254.601 532.336 950.048 1236.36> 513 112<815 1311> 954 112<310.179 614.389 928.784 1205.58>
VStem: 72 132<146.574 401.92> 678 131<296.157 513 686.359 813.578> 1311 132<625 827.843>
DStem2: 357 611 456 524 0.967674 0.252204<-123.81 306.717>
LayerCount: 2
Back
SplineSet
1385 295 m 5,0,-1
 1476 232 l 1
1105 1073 m 3,2,3
 1188 1073 1188 1073 1253.5 1039 c 0
 1319 1005 1319 1005 1359 951.5 c 0
 1399 898 1399 898 1425 826 c 0
 1451 754 1451 754 1461 683.5 c 0
 1471 613 1471 613 1471 539 c 2,4,5
 1471 513 l 1,6,-1
 837 513 l 1,7,8
 837 416 837 416 856 341 c 0
 875 266 875 266 904 222.5 c 0
 933 179 933 179 972.5 151.5 c 0
 1012 124 1012 124 1047.5 114 c 0
 1083 104 1083 104 1121 104 c 0,9,10
 1175 104 1175 104 1224.5 125.5 c 0
 1274 147 1274 147 1307 179 c 0
 1340 211 1340 211 1360.5 238.5 c 0
 1381 266 1381 266 1390 287 c 1,11,-1
 1474 229 l 1,12,13
 1456 194 1456 194 1426 156.5 c 0
 1396 119 1396 119 1352.5 80 c 0
 1309 41 1309 41 1248 16.5 c 0
 1187 -8 1187 -8 1121 -8 c 0,14,15
 1017 -8 1017 -8 935.5 34.5 c 0
 854 77 854 77 805 149.5 c 0
 756 222 756 222 730.5 311.5 c 0
 705 401 705 401 705 502 c 0,16,17
 705 599 705 599 719 680.5 c 0
 733 762 733 762 756 820 c 0
 779 878 779 878 812 923 c 0
 845 968 845 968 880 996 c 0
 915 1024 915 1024 955.5 1041.5 c 0
 996 1059 996 1059 1032 1066 c 0
 1068 1073 1068 1073 1105 1073 c 3,2,3
1339 625 m 1,18,19
 1338 676 1338 676 1327.5 727.5 c 0
 1317 779 1317 779 1293 835 c 0
 1269 891 1269 891 1220.5 926 c 0
 1172 961 1172 961 1105 961 c 0,20,21
 1041 961 1041 961 992.5 937 c 0
 944 913 944 913 917 878.5 c 0
 890 844 890 844 873 795 c 0
 856 746 856 746 850 707 c 0
 844 668 844 668 843 625 c 1,22,-1
 1339 625 l 1,18,19
100 265 m 3,23,24
 100 331 100 331 118 384.5 c 0
 136 438 136 438 174.5 479.5 c 0
 213 521 213 521 262 553 c 0
 311 585 311 585 384 611 c 0
 457 637 457 637 532 656.5 c 0
 607 676 607 676 709 696 c 1,25,26
 709 758 709 758 700.5 800.5 c 0
 692 843 692 843 670 880 c 0
 648 917 648 917 603.5 935 c 0
 559 953 559 953 491 953 c 0,27,28
 433 953 433 953 381 932 c 0
 329 911 329 911 296.5 880 c 0
 264 849 264 849 246 826.5 c 0
 228 804 228 804 220 788 c 1,29,-1
 125 851 l 1,30,31
 236 1065 236 1065 506 1065 c 0,32,33
 562 1065 562 1065 608 1056 c 0
 654 1047 654 1047 698.5 1022 c 0
 743 997 743 997 773.5 957 c 0
 804 917 804 917 822.5 851.5 c 0
 841 786 841 786 841 699 c 2,34,-1
 841 150 l 2,35,36
 841 145 841 145 844 119.5 c 0
 847 94 847 94 855 57.5 c 0
 863 21 863 21 872 2 c 1,37,-1
 739 2 l 1,38,39
 709 17 709 17 709 170 c 1,40,41
 696.5 154 l 2
 684 138 684 138 667.5 119 c 0
 651 100 651 100 622.5 76 c 0
 594 52 594 52 562.5 32.5 c 0
 531 13 531 13 487.5 0 c 0
 444 -13 444 -13 398 -13 c 0,42,43
 314 -13 314 -13 252 14.5 c 0
 190 42 190 42 159 86 c 0
 128 130 128 130 114 174.5 c 0
 100 219 100 219 100 265 c 3,23,24
417 99 m 27,44,45
 463 99 463 99 511.5 118.5 c 0
 560 138 560 138 600 168 c 0
 640 198 640 198 665.5 222 c 0
 691 246 691 246 709 267 c 1,46,-1
 709 584 l 1,47,48
 519.461 535.357 519.461 535.357 483.554 523.678 c 0
 308.449 466.722 308.449 466.722 257.416 373.965 c 0
 232 327.77 232 327.77 232 269 c 0,49,50
 232 180 232 180 283.5 139.5 c 0
 335 99 335 99 417 99 c 27,44,45
EndSplineSet
Fore
SplineSet
357 611 m 128,-1,1
 489 658 489 658 681 696 c 1,2,3
 681 854 681 854 623.5 904 c 128,-1,4
 566 954 566 954 452 954 c 128,-1,5
 338 954 338 954 246 858 c 0,6,7
 208 818 208 818 192 788 c 1,8,-1
 97 851 l 1,9,10
 209 1066 209 1066 478 1066 c 0,11,12
 699 1066 699 1066 774 909 c 1,13,14
 878 1066 878 1066 1069 1066 c 0,15,16
 1443 1066 1443 1066 1443 513 c 1,17,-1
 809 513 l 1,18,19
 808 248 808 248 944 150 c 0,20,21
 1011 102 1011 102 1079 101 c 0,22,23
 1202 101 1202 101 1270 174 c 128,-1,24
 1338 247 1338 247 1356 292 c 1,25,-1
 1446 229 l 1,26,27
 1409 155 1409 155 1345 97 c 0,28,29
 1226 -11 1226 -11 1097 -11 c 128,-1,30
 968 -11 968 -11 875 53.5 c 128,-1,31
 782 118 782 118 730 232 c 1,32,33
 567 -11 567 -11 374.5 -11 c 128,-1,34
 182 -11 182 -11 109 121 c 0,35,36
 72 188 72 188 72 259 c 3,37,38
 72 399 72 399 148.5 481.5 c 128,-1,0
 225 564 225 564 357 611 c 128,-1,1
229 374 m 0,39,40
 204 328 204 328 204 254 c 131,-1,41
 204 180 204 180 256 140.5 c 128,-1,42
 308 101 308 101 369 101 c 0,43,44
 430 102 430 102 474 118 c 0,45,46
 593 163 593 163 704 294 c 1,47,48
 678 363 678 363 678 433.5 c 128,-1,49
 678 504 678 504 679.5 538 c 128,-1,50
 681 572 681 572 681 584 c 1,51,52
 491 535 491 535 456 524 c 0,53,54
 280 467 280 467 229 374 c 0,39,40
815 625 m 1,55,-1
 1311 625 l 1,56,57
 1309 732 1309 732 1265 832 c 0,58,59
 1241 886 1241 886 1192.5 920 c 128,-1,60
 1144 954 1144 954 1078 954 c 128,-1,61
 1012 954 1012 954 964 930 c 0,62,63
 879 889 879 889 848 801.5 c 128,-1,64
 817 714 817 714 815 625 c 1,55,-1
EndSplineSet
EndChar

StartChar: AE
Encoding: 198 198 97
AltUni2: 0004d4.ffffffff.0 0004d4.ffffffff.0 0004d4.ffffffff.0 0004d4.ffffffff.0 0004d4.ffffffff.0 0004d4.ffffffff.0 0004d4.ffffffff.0 0004d4.ffffffff.0 0004d4.ffffffff.0 0004d4.ffffffff.0 0004d4.ffffffff.0 0004d4.ffffffff.0 0004d4.ffffffff.0 0004d4.ffffffff.0 0004d4.ffffffff.0 0004d4.ffffffff.0 0004d4.ffffffff.0 0004d4.ffffffff.0 0004d4.ffffffff.0 0004d4.ffffffff.0 0004d4.ffffffff.0
Width: 1600
VWidth: 0
Flags: W
HStem: 0 133<821 1532> 478 124<346 673> 734 124<821 1304> 1391 124<565 673 821 1494>
VStem: 673 148<133 478 602 734 858 1389>
DStem2: 25 0 179 0 0.274218 0.961668<42.2296 538.378 666.948 1483.83>
LayerCount: 2
Back
SplineSet
738 0 m 25,0,-1
 738 1515 l 1,1,-1
 1559 1515 l 1,2,-1
 1559 1391 l 1,3,-1
 886 1391 l 1,4,-1
 886 858 l 1,5,-1
 1369 858 l 1,6,-1
 1369 734 l 1,7,-1
 886 734 l 1,8,-1
 886 133 l 1,9,-1
 1597 133 l 1,10,-1
 1597 0 l 1,11,-1
 738 0 l 25,0,-1
851 602 m 25,12,-1
 630 1389 l 1,13,-1
 411 602 l 1,14,-1
 851 602 l 25,12,-1
886 478 m 25,15,-1
 377 478 l 1,16,-1
 244 0 l 1,17,-1
 90 0 l 1,18,-1
 522 1515 l 1,19,-1
 738 1515 l 1,20,-1
 1170 0 l 1,21,-1
 1016 0 l 1,22,-1
 886 478 l 25,15,-1
EndSplineSet
Fore
SplineSet
25 0 m 25,0,-1
 457 1515 l 1,1,-1
 1494 1515 l 1,2,-1
 1494 1391 l 1,3,-1
 821 1391 l 1,4,-1
 821 858 l 1,5,-1
 1304 858 l 1,6,-1
 1304 734 l 1,7,-1
 821 734 l 1,8,-1
 821 133 l 1,9,-1
 1532 133 l 1,10,-1
 1532 0 l 1,11,-1
 673 0 l 1,12,-1
 673 478 l 1,13,-1
 312 478 l 1,14,-1
 179 0 l 1,15,-1
 25 0 l 25,0,-1
346 602 m 17,16,-1
 673 602 l 1,17,-1
 673 1389 l 1,18,-1
 565 1389 l 1,19,-1
 346 602 l 17,16,-1
EndSplineSet
EndChar

StartChar: asciicircum
Encoding: 94 94 99
AltUni2: 000302.ffffffff.0 0002c6.ffffffff.0 0002c4.ffffffff.0 000302.ffffffff.0 0002c6.ffffffff.0 0002c4.ffffffff.0 000302.ffffffff.0 0002c6.ffffffff.0 0002c4.ffffffff.0 000302.ffffffff.0 0002c6.ffffffff.0 0002c4.ffffffff.0 000302.ffffffff.0 0002c6.ffffffff.0 0002c4.ffffffff.0 000302.ffffffff.0 0002c6.ffffffff.0 0002c4.ffffffff.0 000302.ffffffff.0 0002c6.ffffffff.0 0002c4.ffffffff.0 000302.ffffffff.0 0002c6.ffffffff.0 0002c4.ffffffff.0 000302.ffffffff.0 0002c6.ffffffff.0 0002c4.ffffffff.0 000302.ffffffff.0 0002c6.ffffffff.0 0002c4.ffffffff.0 0002c6.ffffffff.0 0002c6.ffffffff.0 000302.ffffffff.0 0002c4.ffffffff.0 0002c4.ffffffff.0 0002c6.ffffffff.0 000302.ffffffff.0 0002c4.ffffffff.0 0002c6.ffffffff.0 000302.ffffffff.0 0002c4.ffffffff.0 0002c6.ffffffff.0 000302.ffffffff.0 0002c4.ffffffff.0 0002c6.ffffffff.0 000302.ffffffff.0 0002c4.ffffffff.0 0002c6.ffffffff.0 000302.ffffffff.0 0002c4.ffffffff.0 0002c6.ffffffff.0 000302.ffffffff.0 0002c4.ffffffff.0 0002c6.ffffffff.0 000302.ffffffff.0 0002c4.ffffffff.0 0002c6.ffffffff.0 000302.ffffffff.0 0002c4.ffffffff.0 0002c6.ffffffff.0 000302.ffffffff.0 0002c4.ffffffff.0 0002c6.ffffffff.0 000302.ffffffff.0
Width: 624
VWidth: 0
Flags: W
HStem: 1133 286
VStem: 90 444
DStem2: 90 1197 155 1132 0.707107 0.707107<0 222.032> 312 1419 312 1289 0.707107 -0.707107<91.9239 312.541>
LayerCount: 2
Back
SplineSet
327 1419 m 1,0,-1
 549 1197 l 1,1,-1
 483 1133 l 1,2,-1
 263 1355 l 1,3,-1
 327 1419 l 1,0,-1
170 1132 m 1,4,-1
 105 1197 l 1
EndSplineSet
Fore
SplineSet
90 1197 m 5,0,-1
 312 1419 l 1,1,-1
 534 1197 l 1,2,-1
 468 1133 l 1,3,-1
 312 1289 l 1,4,-1
 155 1132 l 1,5,-1
 90 1197 l 5,0,-1
EndSplineSet
EndChar

StartChar: exclamdown
Encoding: 161 161 100
Width: 334
VWidth: 0
Flags: W
HStem: 1128 150<92 242>
VStem: 92 150<-168 546.307 1128 1278> 115 104<263.693 978>
LayerCount: 2
Fore
SplineSet
92 -168 m 5,0,-1
 115 978 l 1,1,-1
 219 978 l 1,2,-1
 242 -168 l 1,3,-1
 92 -168 l 5,0,-1
92 1128 m 5,4,-1
 92 1278 l 1,5,-1
 242 1278 l 1,6,-1
 242 1128 l 1,7,-1
 92 1128 l 5,4,-1
EndSplineSet
EndChar

StartChar: backslash
Encoding: 92 92 101
Width: 783
VWidth: 0
Flags: W
DStem2: -31 1579 -139 1528 0.423602 -0.905848<0.449224 1756.36>
LayerCount: 2
Fore
SplineSet
-139 1528 m 1,0,-1
 -31 1579 l 1,1,-1
 713 -12 l 1,2,-1
 604 -63 l 1,3,-1
 -139 1528 l 1,0,-1
EndSplineSet
EndChar

StartChar: bar
Encoding: 124 124 102
AltUni2: 0001c0.ffffffff.0 0001c0.ffffffff.0 0001c0.ffffffff.0 0001c0.ffffffff.0 0001c0.ffffffff.0 0001c0.ffffffff.0 0001c0.ffffffff.0 0001c0.ffffffff.0 0001c0.ffffffff.0 0001c0.ffffffff.0 0001c0.ffffffff.0 0001c0.ffffffff.0 0001c0.ffffffff.0 0001c0.ffffffff.0 0001c0.ffffffff.0 0001c0.ffffffff.0 0001c0.ffffffff.0 0001c0.ffffffff.0 0001c0.ffffffff.0 0001c0.ffffffff.0 0001c0.ffffffff.0
Width: 348
VWidth: 0
Flags: W
VStem: 100 148<-132 1563>
LayerCount: 2
Fore
SplineSet
100 -132 m 5,0,-1
 100 1563 l 1,1,-1
 248 1563 l 1,2,-1
 248 -132 l 1,3,-1
 100 -132 l 5,0,-1
EndSplineSet
EndChar

StartChar: slash
Encoding: 47 47 103
Width: 1003
VWidth: 0
Flags: W
DStem2: 70 -12 179 -63 0.423602 0.905848<0 1755.92>
LayerCount: 2
Back
SplineSet
814 1579 m 1,0,-1
 933 1523 l 1,1,-1
 190 -68 l 1,2,-1
 70 -12 l 1,3,-1
 814 1579 l 1,0,-1
EndSplineSet
Fore
SplineSet
70 -12 m 5,0,-1
 814 1579 l 1,1,-1
 922 1528 l 1,2,-1
 179 -63 l 1,3,-1
 70 -12 l 5,0,-1
EndSplineSet
EndChar

StartChar: equal
Encoding: 61 61 104
Width: 797
VWidth: 0
Flags: W
HStem: 542 92<90 707> 808 92<90 707>
VStem: 90 617<542 634 808 900>
LayerCount: 2
Back
SplineSet
90 900 m 1,0,-1
 707 900 l 1,1,-1
 707 808 l 1,2,-1
 90 808 l 1,3,-1
 90 900 l 1,0,-1
90 634 m 1,4,-1
 707 634 l 1,5,-1
 707 542 l 1,6,-1
 90 542 l 1,7,-1
 90 634 l 1,4,-1
EndSplineSet
Fore
SplineSet
90 542 m 5,0,-1
 90 634 l 1,1,-1
 707 634 l 1,2,-1
 707 542 l 1,3,-1
 90 542 l 5,0,-1
90 808 m 5,4,-1
 90 900 l 1,5,-1
 707 900 l 1,6,-1
 707 808 l 1,7,-1
 90 808 l 5,4,-1
EndSplineSet
EndChar

StartChar: percent
Encoding: 37 37 105
Width: 1075
VWidth: 0
Flags: W
HStem: 0 21G<147.152 193.539> 12 97<657.571 874.046> 425 97<657.571 874.046> 987 97<226.571 443.046> 1400 97<226.571 443.046> 1495 20G<892.447 938.545>
VStem: 81 96<1133.07 1350.93> 493 98<1133.07 1350.93> 512 96<158.071 375.929> 924 98<158.071 375.929>
DStem2: 67 66 182 0 0.500188 0.865917<0.371107 1673.24>
LayerCount: 2
Back
SplineSet
613 270 m 7,0,1
 613 200 613 200 655.5 153 c 0
 698 106 698 106 773 106 c 0,2,3
 842 106 842 106 879.5 153.5 c 0
 917 201 917 201 917 270 c 0,4,5
 917 337 917 337 880 383 c 0
 843 429 843 429 773 429 c 0,6,7
 703 429 703 429 658 384.5 c 0
 613 340 613 340 613 270 c 7,0,1
511 270 m 31,8,9
 511 374 511 374 589 446.5 c 0
 667 519 667 519 774 519 c 0,10,11
 873 519 873 519 946 444 c 0
 1019 369 1019 369 1019 270 c 0,12,13
 1019 164 1019 164 950.5 90 c 0
 882 16 882 16 774 16 c 0,14,15
 711 16 711 16 659 40 c 0
 607 64 607 64 575.5 102.5 c 0
 544 141 544 141 527.5 184.5 c 0
 511 228 511 228 511 270 c 31,8,9
178 1244 m 7,16,17
 178 1174 178 1174 220.5 1127 c 0
 263 1080 263 1080 338 1080 c 0,18,19
 407 1080 407 1080 444.5 1127.5 c 0
 482 1175 482 1175 482 1244 c 0,20,21
 482 1311 482 1311 445 1357 c 0
 408 1403 408 1403 338 1403 c 0,22,23
 268 1403 268 1403 223 1358.5 c 0
 178 1314 178 1314 178 1244 c 7,16,17
76 1244 m 31,24,25
 76 1348 76 1348 154 1420.5 c 0
 232 1493 232 1493 339 1493 c 0,26,27
 438 1493 438 1493 511 1418 c 0
 584 1343 584 1343 584 1244 c 0,28,29
 584 1138 584 1138 515.5 1064 c 0
 447 990 447 990 339 990 c 0,30,31
 276 990 276 990 224 1014 c 0
 172 1038 172 1038 140.5 1076.5 c 0
 109 1115 109 1115 92.5 1158.5 c 0
 76 1202 76 1202 76 1244 c 31,24,25
923 1548 m 1,32,-1
 1037 1482 l 1,33,-1
 159 -39 l 1,34,-1
 44 27 l 1,35,-1
 923 1548 l 1,32,-1
274.746 898.41 m 1,36,-1
 297.12 923.336 l 1,37,-1
 321.978 945.787 l 1,38,-1
 349.046 965.518 l 1,39,-1
 378.027 982.31 l 1,40,-1
 408.605 995.981 l 1,41,-1
 440.445 1006.38 l 1,42,-1
 473.198 1013.4 l 1,43,-1
 506.505 1016.95 l 1,44,-1
 540 1017 l 1,45,-1
 573.317 1013.55 l 1,46,-1
 606.092 1006.64 l 1,47,-1
 637.963 996.335 l 1,48,-1
 668.584 982.759 l 1,49,-1
 697.617 966.056 l 1,50,-1
 724.746 946.41 l 1,51,-1
 749.673 924.035 l 1,52,-1
 772.124 899.179 l 1,53,-1
 791.854 872.11 l 1,54,-1
 808.646 843.129 l 1,55,-1
 822.317 812.55 l 1,56,-1
 832.717 780.71 l 1,57,-1
 839.731 747.958 l 1,58,-1
 843.284 714.651 l 1,59,-1
 843.336 681.156 l 1,60,-1
 839.887 647.839 l 1,61,-1
 832.973 615.064 l 1,62,-1
 822.672 583.192 l 1,63,-1
 809.095 552.572 l 1,64,-1
 792.393 523.539 l 1,65,-1
 772.746 496.41 l 1,66,-1
 750.372 471.483 l 1,67,-1
 725.515 449.032 l 1,68,-1
 698.446 429.303 l 1,69,-1
 669.465 412.51 l 1,70,-1
 638.887 398.839 l 1,71,-1
 607.047 388.438 l 1,72,-1
 574.294 381.424 l 1,73,-1
 540.987 377.871 l 1,74,-1
 507.492 377.82 l 1,75,-1
 474.175 381.27 l 1,76,-1
 441.4 388.183 l 1,77,-1
 409.529 398.484 l 1,78,-1
 378.908 412.061 l 1,79,-1
 349.875 428.764 l 1,80,-1
 322.746 448.41 l 1,81,-1
 297.819 470.784 l 1,82,-1
 275.368 495.642 l 1,83,-1
 255.639 522.709 l 1,84,-1
 238.846 551.691 l 1,85,-1
 225.175 582.27 l 1,86,-1
 214.775 614.109 l 1,87,-1
 207.761 646.862 l 1,88,-1
 204.208 680.169 l 1,89,-1
 204.156 713.664 l 1,90,-1
 207.605 746.981 l 1,91,-1
 214.52 779.755 l 1,92,-1
 224.82 811.627 l 1,93,-1
 238.397 842.248 l 1,94,-1
 255.1 871.281 l 1,95,-1
 274.746 898.41 l 1,36,-1
EndSplineSet
Fore
SplineSet
81 1242 m 128,-1,1
 81 1348 81 1348 155.5 1422.5 c 128,-1,2
 230 1497 230 1497 336 1497 c 128,-1,3
 442 1497 442 1497 516.5 1422.5 c 128,-1,4
 591 1348 591 1348 591 1242 c 128,-1,5
 591 1136 591 1136 516.5 1061.5 c 128,-1,6
 442 987 442 987 336 987 c 128,-1,7
 230 987 230 987 155.5 1061.5 c 128,-1,0
 81 1136 81 1136 81 1242 c 128,-1,1
177 1242 m 128,-1,9
 177 1177 177 1177 223.5 1130.5 c 128,-1,10
 270 1084 270 1084 335 1084 c 128,-1,11
 400 1084 400 1084 446.5 1130.5 c 128,-1,12
 493 1177 493 1177 493 1242 c 128,-1,13
 493 1307 493 1307 446.5 1353.5 c 128,-1,14
 400 1400 400 1400 335 1400 c 128,-1,15
 270 1400 270 1400 223.5 1353.5 c 128,-1,8
 177 1307 177 1307 177 1242 c 128,-1,9
512 267 m 128,-1,17
 512 373 512 373 586.5 447.5 c 128,-1,18
 661 522 661 522 767 522 c 128,-1,19
 873 522 873 522 947.5 447.5 c 128,-1,20
 1022 373 1022 373 1022 267 c 128,-1,21
 1022 161 1022 161 947.5 86.5 c 128,-1,22
 873 12 873 12 767 12 c 128,-1,23
 661 12 661 12 586.5 86.5 c 128,-1,16
 512 161 512 161 512 267 c 128,-1,17
608 267 m 128,-1,25
 608 202 608 202 654.5 155.5 c 128,-1,26
 701 109 701 109 766 109 c 128,-1,27
 831 109 831 109 877.5 155.5 c 128,-1,28
 924 202 924 202 924 267 c 128,-1,29
 924 332 924 332 877.5 378.5 c 128,-1,30
 831 425 831 425 766 425 c 128,-1,31
 701 425 701 425 654.5 378.5 c 128,-1,24
 608 332 608 332 608 267 c 128,-1,25
67 66 m 1,32,-1
 904 1515 l 1,33,-1
 1018 1449 l 1,34,-1
 182 0 l 1,35,-1
 67 66 l 1,32,-1
EndSplineSet
EndChar

StartChar: plus
Encoding: 43 43 106
AltUni2: 00207a.ffffffff.0 00207a.ffffffff.0 00207a.ffffffff.0 00207a.ffffffff.0 00207a.ffffffff.0 00207a.ffffffff.0 00207a.ffffffff.0 00207a.ffffffff.0 00207a.ffffffff.0 00207a.ffffffff.0 00207a.ffffffff.0 00207a.ffffffff.0 00207a.ffffffff.0 00207a.ffffffff.0 00207a.ffffffff.0 00207a.ffffffff.0 00207a.ffffffff.0 00207a.ffffffff.0 00207a.ffffffff.0
Width: 707
VWidth: 0
Flags: W
HStem: 694 92<90 308 400 617>
VStem: 308 92<476 694 786 1004>
LayerCount: 2
Back
SplineSet
400 692 m 1,0,-1
 400 476 l 1,1,-1
 308 476 l 1,2,-1
 308 692 l 1
308 788 m 1,4,-1
 308 1004 l 1,5,-1
 400 1004 l 1,6,-1
 400 788 l 1
403 786 m 1,8,-1
 617 786 l 1,9,-1
 617 694 l 1,10,-1
 403 694 l 1
306 694 m 1,12,-1
 90 694 l 1,13,-1
 90 786 l 1,14,-1
 306 786 l 1
EndSplineSet
Fore
SplineSet
90 694 m 5,0,-1
 90 786 l 1,1,-1
 308 786 l 1,2,-1
 308 1004 l 1,3,-1
 400 1004 l 1,4,-1
 400 786 l 1,5,-1
 617 786 l 1,6,-1
 617 694 l 1,7,-1
 400 694 l 1,8,-1
 400 476 l 1,9,-1
 308 476 l 1,10,-1
 308 694 l 1,11,-1
 90 694 l 5,0,-1
EndSplineSet
EndChar

StartChar: numbersign
Encoding: 35 35 107
Width: 1328
VWidth: 0
Flags: W
HStem: 0 21G<384 516 798 930> 488 124<147 384 516 798 930 1176> 931 124<147 384 516 798 930 1176> 1497 20G<384 516 798 930>
VStem: 384 132<0 488 612 931 1055 1517> 798 132<0 488 612 931 1055 1517>
LayerCount: 2
Back
SplineSet
1176 612 m 1,0,-1
 1176 488 l 1,1,-1
 147 488 l 1,2,-1
 147 612 l 1,3,-1
 1176 612 l 1,0,-1
1176 1055 m 1,4,-1
 1176 931 l 1,5,-1
 147 931 l 1,6,-1
 147 1055 l 1,7,-1
 1176 1055 l 1,4,-1
798 1517 m 1,8,-1
 930 1517 l 1,9,-1
 930 0 l 1,10,-1
 798 0 l 1,11,-1
 798 1517 l 1,8,-1
384 1517 m 1,12,-1
 516 1517 l 1,13,-1
 516 0 l 1,14,-1
 384 0 l 1,15,-1
 384 1517 l 1,12,-1
EndSplineSet
Fore
SplineSet
147 488 m 1,0,-1
 147 612 l 1,1,-1
 384 612 l 1,2,-1
 384 931 l 1,3,-1
 147 931 l 1,4,-1
 147 1055 l 1,5,-1
 384 1055 l 1,6,-1
 384 1517 l 1,7,-1
 516 1517 l 1,8,-1
 516 1055 l 1,9,-1
 798 1055 l 1,10,-1
 798 1517 l 1,11,-1
 930 1517 l 1,12,-1
 930 1055 l 1,13,-1
 1176 1055 l 1,14,-1
 1176 931 l 1,15,-1
 930 931 l 1,16,-1
 930 612 l 1,17,-1
 1176 612 l 1,18,-1
 1176 488 l 1,19,-1
 930 488 l 1,20,-1
 930 0 l 1,21,-1
 798 0 l 1,22,-1
 798 488 l 1,23,-1
 516 488 l 1,24,-1
 516 0 l 1,25,-1
 384 0 l 1,26,-1
 384 488 l 1,27,-1
 147 488 l 1,0,-1
516 612 m 1,28,-1
 798 612 l 1,29,-1
 798 931 l 1,30,-1
 516 931 l 1,31,-1
 516 612 l 1,28,-1
EndSplineSet
EndChar

StartChar: asterisk
Encoding: 42 42 108
Width: 688
VWidth: 0
Flags: W
HStem: 712 88<114.276 134.244 553.756 573.724>
VStem: 298 92<742 930>
DStem2: 158 501 233 446 0.587228 0.809422<0 188.548> 298 742 269 654 0.951307 -0.308245<-188.162 -0.462365> 419 654 344 599 0.587228 -0.809422<0.476128 189.024> 390 742 419 654 0.951307 0.308245<0.462365 188.162>
LayerCount: 2
Back
SplineSet
125 879 m 5,0,-1
 304 821 l 1,1,-1
 275 733 l 1,2,-1
 96 791 l 1,3,-1
 125 879 l 5,0,-1
350 678 m 1,4,-1
 239 525 l 1,5,-1
 164 580 l 1,6,-1
 275 733 l 1,7,-1
 350 678 l 1,4,-1
461 525 m 1,8,-1
 350 678 l 1,9,-1
 425 733 l 1,10,-1
 536 580 l 1,11,-1
 461 525 l 1,8,-1
396 821 m 1,12,-1
 575 879 l 1,13,-1
 604 791 l 1,14,-1
 425 733 l 1,15,-1
 396 821 l 1,12,-1
396 1009 m 1,16,-1
 396 821 l 1,17,-1
 304 821 l 1,18,-1
 304 1009 l 1,19,-1
 396 1009 l 1,16,-1
EndSplineSet
Fore
SplineSet
90 712 m 1,0,-1
 119 800 l 1,1,-1
 298 742 l 1,2,-1
 298 930 l 1,3,-1
 390 930 l 1,4,-1
 390 742 l 1,5,-1
 569 800 l 1,6,-1
 598 712 l 1,7,-1
 419 654 l 1,8,-1
 530 501 l 1,9,-1
 455 446 l 1,10,-1
 344 599 l 1,11,-1
 233 446 l 1,12,-1
 158 501 l 1,13,-1
 269 654 l 1,14,-1
 90 712 l 1,0,-1
EndSplineSet
EndChar

StartChar: quotedbl
Encoding: 34 34 109
AltUni2: 00201d.ffffffff.0 00201c.ffffffff.0 00030e.ffffffff.0 00030b.ffffffff.0 0002ba.ffffffff.0 00201d.ffffffff.0 00201c.ffffffff.0 00030e.ffffffff.0 00030b.ffffffff.0 0002ba.ffffffff.0 00201d.ffffffff.0 00201c.ffffffff.0 00030e.ffffffff.0 00030b.ffffffff.0 0002ba.ffffffff.0 00201d.ffffffff.0 00201c.ffffffff.0 00030e.ffffffff.0 00030b.ffffffff.0 0002ba.ffffffff.0 00201d.ffffffff.0 00201c.ffffffff.0 00030e.ffffffff.0 00030b.ffffffff.0 0002ba.ffffffff.0 00201d.ffffffff.0 00201c.ffffffff.0 00030e.ffffffff.0 00030b.ffffffff.0 0002ba.ffffffff.0 00201d.ffffffff.0 00201c.ffffffff.0 00030e.ffffffff.0 00030b.ffffffff.0 0002ba.ffffffff.0 00201d.ffffffff.0 00201c.ffffffff.0 00030e.ffffffff.0 00030b.ffffffff.0 0002ba.ffffffff.0 00201d.ffffffff.0 00201c.ffffffff.0 00030e.ffffffff.0 00030b.ffffffff.0 0002ba.ffffffff.0 00030e.ffffffff.0 00030b.ffffffff.0 0002ba.ffffffff.0 00030b.ffffffff.0 00030e.ffffffff.0 0002ba.ffffffff.0 0002ba.ffffffff.0 00030b.ffffffff.0 00030e.ffffffff.0 00201c.ffffffff.0 00201d.ffffffff.0 0002ba.ffffffff.0 00030b.ffffffff.0 00030e.ffffffff.0 00201c.ffffffff.0 00201d.ffffffff.0 0002ba.ffffffff.0 00030b.ffffffff.0 00030e.ffffffff.0 00201c.ffffffff.0 00201d.ffffffff.0 0002ba.ffffffff.0 00030b.ffffffff.0 00030e.ffffffff.0 00201c.ffffffff.0 00201d.ffffffff.0 0002ba.ffffffff.0 00030b.ffffffff.0 00030e.ffffffff.0 00201c.ffffffff.0 00201d.ffffffff.0 0002ba.ffffffff.0 00030b.ffffffff.0 00030e.ffffffff.0 00201c.ffffffff.0 00201d.ffffffff.0 0002ba.ffffffff.0 00030b.ffffffff.0 00030e.ffffffff.0 00201c.ffffffff.0 00201d.ffffffff.0 0002ba.ffffffff.0 00030b.ffffffff.0 00030e.ffffffff.0 00201c.ffffffff.0 00201d.ffffffff.0 0002ba.ffffffff.0 00030b.ffffffff.0 00030e.ffffffff.0 00201c.ffffffff.0 00201d.ffffffff.0 0002ba.ffffffff.0 00030b.ffffffff.0 00030e.ffffffff.0 00201c.ffffffff.0 00201d.ffffffff.0
Width: 577
VWidth: 0
Flags: W
HStem: 1296 150<92 157 357 422>
VStem: 92 150<1296 1446> 357 150<1296 1446>
LayerCount: 2
Back
SplineSet
507 1296 m 1,0,1
 480 1239 480 1239 431 1144 c 0
 382 1049 382 1049 379 1046 c 1,2,-1
 335 1046 l 1,3,-1
 422 1296 l 1,4,-1
 357 1296 l 1,5,-1
 357 1446 l 1,6,-1
 507 1446 l 1,7,-1
 507 1296 l 1,0,1
242 1296 m 1,8,9
 215 1239 215 1239 166 1144 c 0
 117 1049 117 1049 114 1046 c 1,10,-1
 70 1046 l 1,11,-1
 157 1296 l 1,12,-1
 92 1296 l 1,13,-1
 92 1446 l 1,14,-1
 242 1446 l 1,15,-1
 242 1296 l 1,8,9
EndSplineSet
Fore
Refer: 70 44 N 1 0 0 1 265 1296 2
Refer: 70 44 N 1 0 0 1 0 1296 2
EndChar

StartChar: brokenbar
Encoding: 166 166 110
Width: 348
VWidth: 0
Flags: W
VStem: 100 148<-132 646 778 1563>
LayerCount: 2
Fore
SplineSet
100 -132 m 1,0,-1
 100 646 l 1,1,-1
 248 646 l 1,2,-1
 248 -132 l 1,3,-1
 100 -132 l 1,0,-1
100 778 m 5,4,-1
 100 1563 l 1,5,-1
 248 1563 l 1,6,-1
 248 778 l 1,7,-1
 100 778 l 5,4,-1
EndSplineSet
EndChar

StartChar: paragraph
Encoding: 182 182 111
Width: 1115
VWidth: 0
Flags: W
HStem: -0 21G<466 614 832 980> 692 124<614 832> 1391 124<614 832>
VStem: 68 148<943.157 1265.43> 466 148<0 692 825 1382> 832 148<0 692 816 1391>
LayerCount: 2
Back
SplineSet
488 1515 m 1,0,-1
 636 1515 l 1,1,-1
 636 -0.000976562 l 1,2,-1
 488 -0.000976562 l 1,3,-1
 488 1515 l 1,0,-1
494 692 m 2,4,-1
 830 692 l 1,5,-1
 830 0 l 1,6,-1
 978 0 l 1,7,-1
 978 1515 l 1,8,-1
 494 1515 l 2,9,10
 410 1515 410 1515 340 1489.5 c 0
 270 1464 270 1464 225 1423 c 0
 180 1382 180 1382 148.5 1329 c 0
 117 1276 117 1276 103.5 1222.5 c 0
 90 1169 90 1169 90 1117 c 0,11,12
 90 1036 90 1036 112 963.5 c 0
 134 891 134 891 179.5 828.5 c 0
 225 766 225 766 306 729 c 0
 387 692 387 692 494 692 c 2,4,-1
238 1110 m 4,13,14
 238 1250 238 1250 336 1320.5 c 0
 434 1391 434 1391 595 1391 c 2,15,-1
 830 1391 l 1,16,-1
 830 816 l 1,17,18
 595 816 l 2,19,20
 433 816 433 816 335.5 887 c 0
 238 958 238 958 238 1110 c 4,13,14
EndSplineSet
Fore
SplineSet
89 963.5 m 128,-1,1
 68 1036 68 1036 68 1102.5 c 0,2,3
 68 1168 68 1168 82 1222 c 0,4,5
 111 1339 111 1339 207.5 1427 c 128,-1,6
 304 1515 304 1515 472 1515 c 2,7,-1
 980 1515 l 1,8,-1
 980 0 l 1,9,-1
 832 0 l 1,10,-1
 832 692 l 1,11,-1
 614 692 l 1,12,-1
 614 -0 l 1,13,-1
 466 -0 l 1,14,-1
 466 692 l 1,15,16
 359 692 359 692 279 729 c 128,-1,17
 199 766 199 766 154.5 828.5 c 128,-1,0
 110 891 110 891 89 963.5 c 128,-1,1
283 1293.5 m 128,-1,19
 216 1225 216 1225 216 1105 c 128,-1,20
 216 985 216 985 282.5 915 c 128,-1,21
 349 845 349 845 466 825 c 1,22,-1
 466 1382 l 1,23,18
 350 1362 350 1362 283 1293.5 c 128,-1,19
614 816 m 1,24,-1
 832 816 l 1,25,-1
 832 1391 l 1,26,-1
 614 1391 l 1,27,-1
 614 816 l 1,24,-1
EndSplineSet
EndChar

StartChar: cedilla
Encoding: 184 184 112
AltUni2: 000327.ffffffff.0 000327.ffffffff.0 000327.ffffffff.0 000327.ffffffff.0 000327.ffffffff.0 000327.ffffffff.0 000327.ffffffff.0 000327.ffffffff.0 000327.ffffffff.0 000327.ffffffff.0 000327.ffffffff.0 000327.ffffffff.0 000327.ffffffff.0 000327.ffffffff.0 000327.ffffffff.0 000327.ffffffff.0 000327.ffffffff.0 000327.ffffffff.0 000327.ffffffff.0 000327.ffffffff.0 000327.ffffffff.0
Width: 350
VWidth: 0
Flags: W
HStem: -303 76<22 170.406> -20 20G<96 190>
VStem: 175 79<-215.188 -55.8846>
LayerCount: 2
Back
SplineSet
172 0 m 9,0,-1
 96 0 l 1,1,-1
 96 -121 l 1,2,3
 115 -121 l 2
 134 -121 134 -121 152.5 -124.5 c 0
 171 -128 171 -128 192.5 -135.5 c 0
 214 -143 214 -143 227 -161 c 0
 240 -179 240 -179 240 -206 c 0,4,5
 240 -232 240 -232 221.5 -248.5 c 0
 203 -265 203 -265 173.5 -271 c 0
 144 -277 144 -277 128.5 -278.5 c 0
 113 -280 113 -280 97 -280 c 1,6,-1
 98 -356 l 1,7,8
 114.5 -356 l 2
 131 -356 131 -356 140.5 -355 c 0
 150 -354 150 -354 171 -352.5 c 0
 192 -351 192 -351 205.5 -346 c 0
 219 -341 219 -341 238 -334.5 c 0
 257 -328 257 -328 270 -316.5 c 0
 283 -305 283 -305 295 -290 c 0
 307 -275 307 -275 313 -253.5 c 0
 319 -232 319 -232 319 -206 c 0,9,10
 319 -81 319 -81 172 -64 c 1,11,-1
 172 0 l 9,0,-1
EndSplineSet
Fore
SplineSet
254 -183 m 0,0,1
 254 -303 254 -303 40 -303 c 2,2,-1
 22 -303 l 1,3,-1
 22 -227 l 5,4,5
 175 -227 175 -227 175 -183 c 0,6,7
 175 -96 175 -96 96 0 c 1,8,-1
 186 0 l 1,9,10
 194 -14 194 -14 198 -18 c 0,11,12
 210 -33 210 -33 218 -49 c 2,13,-1
 229 -70 l 2,14,15
 254 -120 254 -120 254 -183 c 0,0,1
EndSplineSet
EndChar

StartChar: bracketleft
Encoding: 91 91 114
Width: 607
VWidth: 0
Flags: W
HStem: -285 92<248 537> 1546 92<248 537>
VStem: 100 148<-193 1546>
LayerCount: 2
Fore
SplineSet
100 -285 m 5,0,-1
 100 1638 l 1,1,-1
 537 1638 l 1,2,-1
 537 1546 l 1,3,-1
 248 1546 l 1,4,-1
 248 -193 l 1,5,-1
 537 -193 l 1,6,-1
 537 -285 l 1,7,-1
 100 -285 l 5,0,-1
EndSplineSet
EndChar

StartChar: bracketright
Encoding: 93 93 115
Width: 607
VWidth: 0
Flags: W
HStem: -285 92<100 389> 1546 92<100 389>
VStem: 389 148<-193 1546>
LayerCount: 2
Fore
SplineSet
100 -193 m 1,0,-1
 389 -193 l 1,1,-1
 389 1546 l 1,2,-1
 100 1546 l 1,3,-1
 100 1638 l 1,4,-1
 537 1638 l 1,5,-1
 537 -285 l 1,6,-1
 100 -285 l 1,7,-1
 100 -193 l 1,0,-1
EndSplineSet
EndChar

StartChar: braceleft
Encoding: 123 123 116
Width: 772
VWidth: 0
Flags: W
HStem: -288 105<445.544 594> 614 122<80 204.96> 1533 105<445.544 594>
VStem: 213 114<-68.6812 248.155 1102.08 1418.5> 273 114<205.329 546.357 803.643 1144.67>
CounterMasks: 1 e0
LayerCount: 2
Fore
SplineSet
80 614 m 5,0,-1
 80 736 l 1,1,2
 273 736 273 736 273 981 c 0,3,4
 273 1017 273 1017 258 1054 c 0,5,6
 213 1165 213 1165 213 1266 c 0,7,8
 213 1634 213 1634 594 1638 c 1,9,-1
 594 1533 l 1,10,11
 528 1533 528 1533 474.5 1508 c 0,12,13
 420 1482 420 1482 390 1444 c 0,14,15
 326 1364 326 1364 327 1283 c 0,16,17
 327 1262 327 1262 357 1159.5 c 128,-1,18
 387 1057 387 1057 387 951.5 c 128,-1,19
 387 846 387 846 345 777.5 c 128,-1,20
 303 709 303 709 207 675 c 1,21,22
 303 641 303 641 345 572.5 c 128,-1,23
 387 504 387 504 387 398.5 c 128,-1,24
 387 293 387 293 357 190.5 c 128,-1,25
 327 88 327 88 327 58 c 128,-1,26
 327 28 327 28 343.5 -14 c 128,-1,27
 360 -56 360 -56 390.5 -94.5 c 128,-1,28
 421 -133 421 -133 474.5 -158 c 128,-1,29
 528 -183 528 -183 594 -183 c 1,30,-1
 594 -288 l 1,31,32
 213 -284 213 -284 213 84 c 0,33,34
 213 185 213 185 258 296 c 0,35,36
 273 333 273 333 273 369 c 0,37,38
 273 614 273 614 80 614 c 5,0,-1
EndSplineSet
EndChar

StartChar: braceright
Encoding: 125 125 117
Width: 772
VWidth: 0
Flags: W
HStem: -288 105<80 228.456> 614 122<469.04 594> 1533 105<80 228.456>
VStem: 287 114<205.329 546.357 803.643 1144.67> 347 114<-68.5049 247.916 1101.85 1418.68>
CounterMasks: 1 e0
LayerCount: 2
Fore
SplineSet
80 -183 m 1,0,1
 146 -183 146 -183 199.5 -158 c 0,2,3
 254 -132 254 -132 284 -94 c 0,4,5
 348 -14 348 -14 347 67 c 0,6,7
 347 88 347 88 317 190.5 c 128,-1,8
 287 293 287 293 287 398.5 c 128,-1,9
 287 504 287 504 329 572.5 c 128,-1,10
 371 641 371 641 467 675 c 1,11,12
 371 709 371 709 329 777.5 c 128,-1,13
 287 846 287 846 287 951.5 c 128,-1,14
 287 1057 287 1057 317 1159.5 c 128,-1,15
 347 1262 347 1262 347 1292 c 128,-1,16
 347 1322 347 1322 330.5 1364 c 128,-1,17
 314 1406 314 1406 283.5 1444.5 c 128,-1,18
 253 1483 253 1483 199.5 1508 c 128,-1,19
 146 1533 146 1533 80 1533 c 1,20,-1
 80 1638 l 1,21,22
 461 1634 461 1634 461 1266 c 0,23,24
 461 1165 461 1165 416 1054 c 0,25,26
 401 1017 401 1017 401 981 c 0,27,28
 401 736 401 736 594 736 c 1,29,-1
 594 614 l 1,30,31
 401 614 401 614 401 369 c 0,32,33
 401 333 401 333 416 296 c 0,34,35
 461 185 461 185 461 84 c 0,36,37
 461 -284 461 -284 80 -288 c 1,38,-1
 80 -183 l 1,0,1
EndSplineSet
EndChar

StartChar: less
Encoding: 60 60 118
AltUni2: 002039.ffffffff.0 002039.ffffffff.0 002039.ffffffff.0 002039.ffffffff.0 002039.ffffffff.0 002039.ffffffff.0 002039.ffffffff.0 002039.ffffffff.0 002039.ffffffff.0 002039.ffffffff.0 002039.ffffffff.0 002039.ffffffff.0 002039.ffffffff.0 002039.ffffffff.0 002039.ffffffff.0 002039.ffffffff.0 002039.ffffffff.0 002039.ffffffff.0 002039.ffffffff.0 002039.ffffffff.0 002039.ffffffff.0 002039.ffffffff.0
Width: 960
VWidth: 0
Flags: W
DStem2: 232 744 64 744 0.765744 -0.643145<0 863.868> 64 744 232 744 0.765744 0.643145<128.645 992.513>
LayerCount: 2
Back
SplineSet
80 731 m 1,0,-1
 826 104 l 1,1,-1
 894 189 l 1,2,-1
 232 744 l 1,3,-1
 894 1299 l 1,4,-1
 826 1384 l 1,5,-1
 80 757 l 1
566 410 m 5,7,-1
 501 345 l 1,8,-1
 102 744 l 1,9,-1
 500 1142 l 1,10,-1
 564 1076 l 1,11,-1
 232 744 l 1,12,-1
 566 410 l 5,7,-1
EndSplineSet
Fore
SplineSet
64 744 m 5,0,-1
 826 1384 l 1,1,-1
 894 1299 l 1,2,-1
 232 744 l 1,3,-1
 894 189 l 1,4,-1
 826 104 l 1,5,-1
 64 744 l 5,0,-1
EndSplineSet
EndChar

StartChar: greater
Encoding: 62 62 119
AltUni2: 00203a.ffffffff.0 00203a.ffffffff.0 00203a.ffffffff.0 00203a.ffffffff.0 00203a.ffffffff.0 00203a.ffffffff.0 00203a.ffffffff.0 00203a.ffffffff.0 00203a.ffffffff.0 00203a.ffffffff.0 00203a.ffffffff.0 00203a.ffffffff.0 00203a.ffffffff.0 00203a.ffffffff.0 00203a.ffffffff.0 00203a.ffffffff.0 00203a.ffffffff.0 00203a.ffffffff.0 00203a.ffffffff.0 00203a.ffffffff.0 00203a.ffffffff.0 00203a.ffffffff.0
Width: 960
VWidth: 0
Flags: W
DStem2: 132 1384 64 1299 0.765744 -0.643145<2.5967 866.465> 64 189 132 104 0.765744 0.643145<0 863.868>
LayerCount: 2
Fore
SplineSet
64 189 m 1,0,-1
 726 744 l 1,1,-1
 64 1299 l 1,2,-1
 132 1384 l 1,3,-1
 894 744 l 1,4,-1
 132 104 l 1,5,-1
 64 189 l 1,0,-1
EndSplineSet
EndChar

StartChar: section
Encoding: 167 167 120
Width: 918
VWidth: 0
Flags: W
HStem: -11 112<310.755 623.581> 1248 112<296.582 599.166>
VStem: 114 128<697.232 852.991 992.213 1194.38> 686 132<160.591 393.45 530.363 686.649>
LayerCount: 2
Back
SplineSet
274 1022 m 3,0,1
 274 981 274 981 292 949.5 c 0
 310 918 310 918 346.5 895 c 0
 383 872 383 872 419.5 857.5 c 0
 456 843 456 843 512 826 c 0,2,3
 556 813 556 813 580.5 805 c 0
 605 797 605 797 646.5 780.5 c 0
 688 764 688 764 711.5 749 c 0
 735 734 735 734 765 709.5 c 0
 795 685 795 685 811 657.5 c 0
 827 630 827 630 838.5 592 c 0
 850 554 850 554 850 510 c 0,4,5
 850 377 850 377 749 292 c 0
 648 207 648 207 510 207 c 0,6,7
 382 207 382 207 291.5 257.5 c 0
 201 308 201 308 132 418 c 1,8,-1
 231 482 l 1,9,10
 284 400 284 400 349 359.5 c 0
 414 319 414 319 508 319 c 0,11,12
 534 319 534 319 560.5 323.5 c 0
 587 328 587 328 616 340.5 c 0
 645 353 645 353 667 372 c 0
 689 391 689 391 703.5 423 c 0
 718 455 718 455 718 495 c 0,13,14
 718 544 718 544 696 582 c 0
 674 620 674 620 633.5 643.5 c 0
 593 667 593 667 555.5 680.5 c 0
 518 694 518 694 468 706 c 0,15,16
 422 717 422 717 380.5 731.5 c 0
 339 746 339 746 295 771 c 0
 251 796 251 796 219 827 c 0
 187 858 187 858 166.5 903.5 c 0
 146 949 146 949 146 1002 c 0,17,18
 146 1131 146 1131 239.5 1207.5 c 0
 333 1284 333 1284 478 1284 c 0,19,20
 546 1284 546 1284 606 1264.5 c 0
 666 1245 666 1245 705.5 1214.5 c 0
 745 1184 745 1184 767 1161 c 0
 789 1138 789 1138 804 1116 c 1,21,-1
 713 1048 l 1,22,23
 706 1055 706 1055 685 1077.5 c 0
 664 1100 664 1100 657.5 1105.5 c 0
 651 1111 651 1111 632.5 1127 c 0
 614 1143 614 1143 602 1147.5 c 0
 590 1152 590 1152 568.5 1160 c 0
 547 1168 547 1168 523.5 1170 c 0
 500 1172 500 1172 470 1172 c 0,24,25
 384 1172 384 1172 329 1128.5 c 0
 274 1085 274 1085 274 1022 c 3,0,1
242 804 m 3,26,27
 242 763 242 763 260 731.5 c 0
 278 700 278 700 314.5 677 c 0
 351 654 351 654 387.5 639.5 c 0
 424 625 424 625 480 608 c 0,28,29
 524 595 524 595 548.5 587 c 0
 573 579 573 579 614.5 562.5 c 0
 656 546 656 546 679.5 531 c 0
 703 516 703 516 733 491.5 c 0
 763 467 763 467 779 439.5 c 0
 795 412 795 412 806.5 374 c 0
 818 336 818 336 818 292 c 0,30,31
 818 159 818 159 717 74 c 0
 616 -11 616 -11 478 -11 c 0,32,33
 350 -11 350 -11 259.5 39.5 c 0
 169 90 169 90 100 200 c 1,34,-1
 199 264 l 1,35,36
 252 182 252 182 317 141.5 c 0
 382 101 382 101 476 101 c 0,37,38
 502 101 502 101 528.5 105.5 c 0
 555 110 555 110 584 122.5 c 0
 613 135 613 135 635 154 c 0
 657 173 657 173 671.5 205 c 0
 686 237 686 237 686 277 c 0,39,40
 686 326 686 326 664 364 c 0
 642 402 642 402 601.5 425.5 c 0
 561 449 561 449 523.5 462.5 c 0
 486 476 486 476 436 488 c 0,41,42
 390 499 390 499 348.5 513.5 c 0
 307 528 307 528 263 553 c 0
 219 578 219 578 187 609 c 0
 155 640 155 640 134.5 685.5 c 0
 114 731 114 731 114 784 c 0,43,44
 114 913 114 913 207.5 989.5 c 0
 301 1066 301 1066 446 1066 c 0,45,46
 514 1066 514 1066 574 1046.5 c 0
 634 1027 634 1027 673.5 996.5 c 0
 713 966 713 966 735 943 c 0
 757 920 757 920 772 898 c 1,47,-1
 681 830 l 1,48,49
 674 837 674 837 653 859.5 c 0
 632 882 632 882 625.5 887.5 c 0
 619 893 619 893 600.5 909 c 0
 582 925 582 925 570 929.5 c 0
 558 934 558 934 536.5 942 c 0
 515 950 515 950 491.5 952 c 0
 468 954 468 954 438 954 c 0,50,51
 352 954 352 954 297 910.5 c 0
 242 867 242 867 242 804 c 3,26,27
EndSplineSet
Fore
SplineSet
100 200 m 1,0,-1
 199 264 l 1,1,2
 252 182 252 182 317 141.5 c 128,-1,3
 382 101 382 101 478 101 c 128,-1,4
 574 101 574 101 630 149.5 c 128,-1,5
 686 198 686 198 686 262 c 0,6,7
 686 376 686 376 602 426 c 0,8,9
 535 465 535 465 462.5 482 c 0,10,11
 390 500 390 500 348 514 c 0,12,13
 250 548 250 548 182 614 c 128,-1,14
 114 680 114 680 114 775 c 128,-1,15
 114 870 114 870 159 937 c 1,16,17
 114 1000 114 1000 114 1078 c 0,18,19
 114 1207 114 1207 207.5 1283.5 c 128,-1,20
 301 1360 301 1360 459 1360 c 128,-1,21
 617 1360 617 1360 735 1237 c 0,22,23
 757 1214 757 1214 772 1192 c 1,24,-1
 681 1124 l 1,25,26
 674 1131 674 1131 653 1153.5 c 128,-1,27
 632 1176 632 1176 626 1182 c 2,28,-1
 600 1203 l 2,29,30
 582 1220 582 1220 570 1224 c 2,31,-1
 536 1236 l 2,32,33
 504 1248 504 1248 428 1248 c 128,-1,34
 352 1248 352 1248 297 1204.5 c 128,-1,35
 242 1161 242 1161 242 1109 c 0,36,37
 242 1017 242 1017 307 976 c 128,-1,38
 372 935 372 935 448 912 c 128,-1,39
 524 889 524 889 548.5 881 c 128,-1,40
 573 873 573 873 614.5 856.5 c 128,-1,41
 656 840 656 840 680 825 c 0,42,43
 754 778 754 778 786 722 c 128,-1,44
 818 666 818 666 818 586.5 c 128,-1,45
 818 507 818 507 778 440 c 1,46,47
 818 377 818 377 818 292 c 0,48,49
 818 159 818 159 717 74 c 128,-1,50
 616 -11 616 -11 483 -11 c 128,-1,51
 350 -11 350 -11 259.5 39.5 c 128,-1,52
 169 90 169 90 100 200 c 1,0,-1
252 854 m 1,53,54
 242 829 242 829 242 796 c 3,55,56
 242 723 242 723 307 682 c 128,-1,57
 372 641 372 641 496 603.5 c 128,-1,58
 620 566 620 566 682 529 c 1,59,60
 686 553 686 553 686 586.5 c 128,-1,61
 686 620 686 620 664 658 c 128,-1,62
 642 696 642 696 588.5 727 c 128,-1,63
 535 758 535 758 431 783 c 128,-1,64
 327 808 327 808 252 854 c 1,53,54
EndSplineSet
EndChar

StartChar: degree
Encoding: 176 176 121
AltUni2: 00030a.ffffffff.0 00030a.ffffffff.0 00030a.ffffffff.0 00030a.ffffffff.0 00030a.ffffffff.0 00030a.ffffffff.0 00030a.ffffffff.0 00030a.ffffffff.0 00030a.ffffffff.0 00030a.ffffffff.0 00030a.ffffffff.0 00030a.ffffffff.0 00030a.ffffffff.0 00030a.ffffffff.0 00030a.ffffffff.0 00030a.ffffffff.0 00030a.ffffffff.0 00030a.ffffffff.0 00030a.ffffffff.0 00030a.ffffffff.0 00030a.ffffffff.0
Width: 688
VWidth: 0
Flags: W
HStem: 987 97<237.571 454.046> 1400 97<237.571 454.046>
VStem: 92 96<1133.07 1350.93> 504 98<1133.07 1350.93>
LayerCount: 2
Back
SplineSet
0 -282 m 28,0,0
-282 0 m 28,0,0
0 282 m 4,0,0
 135 282 135 282 208.5 202.5 c 0
 282 123 282 123 282 0 c 0,0,0
196 1244 m 7,0,1
 196 1175 196 1175 237 1127.5 c 0
 278 1080 278 1080 352 1080 c 0,2,3
 421 1080 421 1080 460.5 1128 c 0
 500 1176 500 1176 500 1244 c 0,4,5
 500 1311 500 1311 461 1357 c 0
 422 1403 422 1403 352 1403 c 0,6,7
 278 1403 278 1403 237 1357.5 c 0
 196 1312 196 1312 196 1244 c 7,0,1
94 1244 m 7,8,9
 94 1351 94 1351 162.5 1422 c 0
 231 1493 231 1493 353 1493 c 0,10,11
 469 1493 469 1493 535.5 1422 c 0
 602 1351 602 1351 602 1244 c 0,12,13
 602 1135 602 1135 535.5 1062.5 c 0
 469 990 469 990 353 990 c 0,14,15
 231 990 231 990 162.5 1062.5 c 0
 94 1135 94 1135 94 1244 c 7,8,9
347 1375 m 4,0,1
 292 1375 292 1375 254.5 1335.5 c 0
 217 1296 217 1296 217 1242 c 0,2,3
 217 1188 217 1188 253.5 1148 c 0
 290 1108 290 1108 347 1108 c 0,4,5
 401 1108 401 1108 437.5 1148.5 c 0
 474 1189 474 1189 474 1242 c 0,6,7
 474 1295 474 1295 437.5 1335 c 0
 401 1375 401 1375 347 1375 c 4,0,1
346 1466 m 4,8,9
 436 1466 436 1466 501 1400.5 c 0
 566 1335 566 1335 566 1242 c 0,10,11
 566 1149 566 1149 501.5 1083 c 0
 437 1017 437 1017 347 1017 c 0,12,13
 257 1017 257 1017 192 1082.5 c 0
 127 1148 127 1148 127 1242 c 0,14,15
 127 1335 127 1335 191.5 1400.5 c 0
 256 1466 256 1466 346 1466 c 4,8,9
EndSplineSet
Fore
SplineSet
92 1242 m 132,-1,1
 92 1348 92 1348 166.5 1422.5 c 128,-1,2
 241 1497 241 1497 347 1497 c 128,-1,3
 453 1497 453 1497 527.5 1422.5 c 128,-1,4
 602 1348 602 1348 602 1242 c 128,-1,5
 602 1136 602 1136 527.5 1061.5 c 128,-1,6
 453 987 453 987 347 987 c 128,-1,7
 241 987 241 987 166.5 1061.5 c 128,-1,0
 92 1136 92 1136 92 1242 c 132,-1,1
188 1242 m 128,-1,9
 188 1177 188 1177 234.5 1130.5 c 128,-1,10
 281 1084 281 1084 346 1084 c 128,-1,11
 411 1084 411 1084 457.5 1130.5 c 128,-1,12
 504 1177 504 1177 504 1242 c 128,-1,13
 504 1307 504 1307 457.5 1353.5 c 128,-1,14
 411 1400 411 1400 346 1400 c 128,-1,15
 281 1400 281 1400 234.5 1353.5 c 128,-1,8
 188 1307 188 1307 188 1242 c 128,-1,9
EndSplineSet
EndChar

StartChar: cent
Encoding: 162 162 122
Width: 970
VWidth: 0
Flags: W
HStem: -8 115<379.692 450 582 668.389> 949 114<370.312 450 582 673.55>
VStem: 110 132<277.123 795.477> 450 132<-236 1.08899 113 943 1054.28 1281> 755 106<806.508 836> 776 104<224.179 258>
LayerCount: 2
Back
SplineSet
450 1281 m 1,0,-1
 582 1281 l 1,1,-1
 582 -236 l 1,2,-1
 450 -236 l 1,3,-1
 450 1281 l 1,0,-1
110 520 m 3,4,5
 110 1066 110 1066 535 1066 c 0,6,7
 587 1066 587 1066 633.5 1052 c 0
 680 1038 680 1038 712 1015.5 c 0
 744 993 744 993 771 966.5 c 0
 798 940 798 940 814 913 c 0
 830 886 830 886 841 863.5 c 0
 852 841 852 841 856.5 827 c 2
 861 813 l 1,8,-1
 755 765 l 1,9,10
 754 773 754 773 750 785.5 c 0
 746 798 746 798 730 830.5 c 0
 714 863 714 863 692 888 c 0
 670 913 670 913 628.5 933.5 c 0
 587 954 587 954 535 954 c 0,11,12
 242 954 242 954 242 529 c 0,13,14
 242 323 242 323 319.5 212 c 0
 397 101 397 101 535 101 c 0,15,16
 582 101 582 101 624.5 122.5 c 0
 667 144 667 144 693.5 174.5 c 0
 720 205 720 205 739.5 235 c 0
 759 265 759 265 767.5 286.5 c 2
 776 308 l 1,17,-1
 880 258 l 1,18,19
 880 255 880 255 869 229.5 c 0
 858 204 858 204 830.5 163 c 0
 803 122 803 122 765.5 83.5 c 0
 728 45 728 45 666.5 17 c 0
 605 -11 605 -11 535 -11 c 0,20,21
 317 -11 317 -11 213.5 128.5 c 0
 110 268 110 268 110 520 c 3,4,5
EndSplineSet
Fore
SplineSet
450 -5 m 1,0,1
 110 50 110 50 110 529.5 c 131,-1,2
 110 1009 110 1009 450 1060 c 1,3,-1
 450 1281 l 1,4,-1
 582 1281 l 1,5,-1
 582 1063 l 1,6,7
 644 1055 644 1055 695.5 1026.5 c 128,-1,8
 747 998 747 998 791 945 c 0,9,10
 836 892 836 892 854 836 c 2,11,-1
 861 813 l 1,12,-1
 755 765 l 1,13,14
 740 860 740 860 656 918 c 0,15,16
 624 940 624 940 582 949 c 1,17,-1
 582 107 l 1,18,19
 709 140 709 140 776 308 c 1,20,-1
 880 258 l 1,21,22
 880 242 880 242 846 189 c 128,-1,23
 812 136 812 136 780 100 c 0,24,25
 700 10 700 10 582 -8 c 1,26,-1
 582 -236 l 1,27,-1
 450 -236 l 1,28,-1
 450 -5 l 1,0,1
242 529 m 3,29,30
 242 358 242 358 296.5 251.5 c 128,-1,31
 351 145 351 145 450 113 c 1,32,-1
 450 943 l 1,33,34
 242 890 242 890 242 529 c 3,29,30
EndSplineSet
EndChar

StartChar: guillemotleft
Encoding: 171 171 123
Width: 755
VWidth: 0
Flags: W
HStem: 1054 444
VStem: 100 554
DStem2: 230 1276 100 1276 0.707107 -0.707107<0 222.032> 100 1276 230 1276 0.707107 0.707107<91.9239 312.541> 368 1276 498 1276 0.707107 0.707107<91.9239 312.541>
LayerCount: 2
Back
SplineSet
724 1119 m 5,0,-1
 659 1054 l 1,1,-1
 437 1276 l 1,2,-1
 659 1498 l 1,3,-1
 723 1432 l 1,4,-1
 567 1276 l 1,5,-1
 724 1119 l 5,0,-1
456 1119 m 5,6,-1
 391 1054 l 1,7,-1
 169 1276 l 1,8,-1
 391 1498 l 1,9,-1
 455 1432 l 1,10,-1
 299 1276 l 1,11,-1
 456 1119 l 5,6,-1
EndSplineSet
Fore
SplineSet
100 1276 m 1,0,-1
 322 1498 l 1,1,-1
 386 1432 l 1,2,-1
 230 1276 l 1,3,-1
 387 1119 l 1,4,-1
 322 1054 l 1,5,-1
 100 1276 l 1,0,-1
368 1276 m 1,6,-1
 590 1498 l 1,7,-1
 654 1432 l 1,8,-1
 498 1276 l 1,9,-1
 655 1119 l 1,10,-1
 590 1054 l 1,11,-1
 368 1276 l 1,6,-1
EndSplineSet
EndChar

StartChar: registered
Encoding: 174 174 125
Width: 1142
VWidth: 0
Flags: W
HStem: 282 67<408.737 733.692> 702 63<481 592> 929 63<481 657.025> 1139 67<406.838 733.312>
VStem: 100 68<584.23 902.212> 410 71<500 702 765 929> 689 70<777.578 914.004> 974 68<583.899 903.514>
DStem2: 665 713 592 702 0.400142 -0.916453<0 202.007>
LayerCount: 2
Back
SplineSet
812 1232 m 7,0,1
 765 1232 765 1232 713 1224.5 c 0
 661 1217 661 1217 600 1197 c 0
 539 1177 539 1177 482.5 1147 c 0
 426 1117 426 1117 373 1068 c 0
 320 1019 320 1019 281 957 c 0
 242 895 242 895 218.5 808 c 0
 195 721 195 721 195 618 c 0,2,3
 195 504 195 504 236.5 394.5 c 0
 278 285 278 285 352.5 196 c 0
 427 107 427 107 544.5 52.5 c 0
 662 -2 662 -2 802 -2 c 0,4,5
 959 -2 959 -2 1099.5 81 c 0
 1240 164 1240 164 1326 307.5 c 0
 1412 451 1412 451 1412 616 c 0,6,7
 1412 739 1412 739 1364 853 c 0
 1316 967 1316 967 1235.5 1050 c 0
 1155 1133 1155 1133 1044 1182.5 c 0
 933 1232 933 1232 812 1232 c 7,0,1
1529 618 m 28,8,9
 1529 420 1529 420 1432 251 c 0
 1335 82 1335 82 1167.5 -17 c 0
 1000 -116 1000 -116 802 -116 c 0,10,11
 602 -116 602 -116 436.5 -23.5 c 0
 271 69 271 69 173.5 238 c 0
 76 407 76 407 76 618 c 0,12,13
 76 744 76 744 107.5 851.5 c 0
 139 959 139 959 194.5 1036 c 0
 250 1113 250 1113 321 1171.5 c 0
 392 1230 392 1230 476 1265 c 0
 560 1300 560 1300 644 1317 c 0
 728 1334 728 1334 812 1334 c 0,14,15
 951 1334 951 1334 1082.5 1277 c 0
 1214 1220 1214 1220 1312 1124.5 c 0
 1410 1029 1410 1029 1469.5 896 c 0
 1529 763 1529 763 1529 618 c 28,8,9
506 716 m 1,16,-1
 518.922 746.558 l 1,17,-1
 534.966 775.598 l 1,18,-1
 553.959 802.801 l 1,19,-1
 575.691 827.87 l 1,20,-1
 599.924 850.531 l 1,21,-1
 626.394 870.534 l 1,22,-1
 654.809 887.661 l 1,23,-1
 684.859 901.723 l 1,24,-1
 716.214 912.568 l 1,25,-1
 748.531 920.076 l 1,26,-1
 781.455 924.164 l 1,27,-1
 814.627 924.789 l 1,28,-1
 847.682 921.942 l 1,29,-1
 880.259 915.657 l 1,30,-1
 912 906 l 1,31,-1
 942.558 893.078 l 1,32,-1
 971.598 877.034 l 1,33,-1
 998.801 858.041 l 1,34,-1
 1023.87 836.309 l 1,35,-1
 1046.53 812.076 l 1,36,-1
 1066.53 785.606 l 1,37,-1
 1083.66 757.191 l 1,38,-1
 1097.72 727.141 l 1,39,-1
 1108.57 695.786 l 1,40,-1
 1116.08 663.469 l 1,41,-1
 1120.16 630.545 l 1,42,-1
 1120.79 597.373 l 1,43,-1
 1117.94 564.318 l 1,44,-1
 1111.66 531.741 l 1,45,-1
 1102 500 l 1,46,-1
 1089.08 469.442 l 1,47,-1
 1073.03 440.402 l 1,48,-1
 1054.04 413.199 l 1,49,-1
 1032.31 388.13 l 1,50,-1
 1008.08 365.469 l 1,51,-1
 981.606 345.466 l 1,52,-1
 953.191 328.339 l 1,53,-1
 923.141 314.277 l 1,54,-1
 891.786 303.432 l 1,55,-1
 859.469 295.924 l 1,56,-1
 826.545 291.836 l 1,57,-1
 793.373 291.211 l 1,58,-1
 760.318 294.058 l 1,59,-1
 727.741 300.343 l 1,60,-1
 696 310 l 1,61,-1
 665.442 322.922 l 1,62,-1
 636.402 338.966 l 1,63,-1
 609.199 357.959 l 1,64,-1
 584.13 379.691 l 1,65,-1
 561.469 403.924 l 1,66,-1
 541.466 430.394 l 1,67,-1
 524.339 458.809 l 1,68,-1
 510.277 488.859 l 1,69,-1
 499.432 520.214 l 1,70,-1
 491.924 552.531 l 1,71,-1
 487.836 585.455 l 1,72,-1
 487.211 618.627 l 1,73,-1
 490.058 651.682 l 1,74,-1
 496.343 684.259 l 1,75,-1
 506 716 l 1,16,-1
384.353 1138.58 m 1,76,-1
 441.228 1179.83 l 1,77,-1
 502.104 1214.91 l 1,78,-1
 566.313 1243.44 l 1,79,-1
 633.152 1265.09 l 1,80,-1
 701.89 1279.65 l 1,81,-1
 771.771 1286.93 l 1,82,-1
 842.031 1286.88 l 1,83,-1
 911.9 1279.47 l 1,84,-1
 980.614 1264.81 l 1,85,-1
 1047.42 1243.04 l 1,86,-1
 1111.58 1214.41 l 1,87,-1
 1172.4 1179.23 l 1,88,-1
 1229.21 1137.89 l 1,89,-1
 1281.38 1090.83 l 1,90,-1
 1328.35 1038.58 l 1,91,-1
 1369.6 981.705 l 1,92,-1
 1404.68 920.83 l 1,93,-1
 1433.21 856.62 l 1,94,-1
 1454.87 789.781 l 1,95,-1
 1469.42 721.044 l 1,96,-1
 1476.71 651.162 l 1,97,-1
 1476.65 580.902 l 1,98,-1
 1469.25 511.032 l 1,99,-1
 1454.58 442.319 l 1,100,-1
 1432.82 375.516 l 1,101,-1
 1404.19 311.354 l 1,102,-1
 1369 250.535 l 1,103,-1
 1327.66 193.727 l 1,104,-1
 1280.6 141.552 l 1,105,-1
 1228.35 94.5811 l 1,106,-1
 1171.48 53.3301 l 1,107,-1
 1110.6 18.249 l 1,108,-1
 1046.39 -10.2754 l 1,109,-1
 979.552 -31.9326 l 1,110,-1
 910.814 -46.4844 l 1,111,-1
 840.934 -53.7715 l 1,112,-1
 770.673 -53.7139 l 1,113,-1
 700.804 -46.3125 l 1,114,-1
 632.091 -31.6475 l 1,115,-1
 565.287 -9.88184 l 1,116,-1
 501.124 18.748 l 1,117,-1
 440.306 53.9287 l 1,118,-1
 383.498 95.2734 l 1,119,-1
 331.323 142.329 l 1,120,-1
 284.353 194.581 l 1,121,-1
 243.101 251.457 l 1,122,-1
 208.021 312.333 l 1,123,-1
 179.495 376.542 l 1,124,-1
 157.839 443.382 l 1,125,-1
 143.287 512.118 l 1,126,-1
 136 582 l 1,127,-1
 136.058 652.261 l 1,128,-1
 143.459 722.13 l 1,129,-1
 158.123 790.843 l 1,130,-1
 179.89 857.646 l 1,131,-1
 208.52 921.81 l 1,132,-1
 243.699 982.628 l 1,133,-1
 285.044 1039.44 l 1,134,-1
 332.101 1091.61 l 1,135,-1
 384.353 1138.58 l 1,76,-1
EndSplineSet
Fore
SplineSet
100 744 m 7,0,1
 100 935 100 935 238 1070.5 c 128,-1,2
 376 1206 376 1206 572 1206 c 128,-1,3
 768 1206 768 1206 904 1072 c 0,4,5
 1042 936 1042 936 1042 728 c 0,6,7
 1042 617 1042 617 978.5 510.5 c 128,-1,8
 915 404 915 404 806.5 343 c 128,-1,9
 698 282 698 282 571 282 c 128,-1,10
 444 282 444 282 335.5 344 c 128,-1,11
 227 406 227 406 163.5 512.5 c 128,-1,12
 100 619 100 619 100 744 c 7,0,1
168 744 m 135,-1,14
 168 581 168 581 287 465 c 128,-1,15
 406 349 406 349 571.5 349 c 128,-1,16
 737 349 737 349 855.5 464.5 c 128,-1,17
 974 580 974 580 974 744.5 c 128,-1,18
 974 909 974 909 856 1024 c 128,-1,19
 738 1139 738 1139 571 1139 c 128,-1,20
 404 1139 404 1139 286 1023 c 128,-1,13
 168 907 168 907 168 744 c 135,-1,14
410 500 m 1,21,-1
 410 992 l 1,22,-1
 622 992 l 2,23,24
 687 992 687 992 723 947.5 c 128,-1,25
 759 903 759 903 759 854.5 c 128,-1,26
 759 806 759 806 736.5 764.5 c 128,-1,27
 714 723 714 723 665 713 c 1,28,-1
 758 500 l 1,29,-1
 682 500 l 1,30,-1
 592 702 l 1,31,-1
 481 702 l 1,32,-1
 481 500 l 1,33,-1
 410 500 l 1,21,-1
481 765 m 1,34,-1
 603 765 l 2,35,36
 689 765 689 765 689 854 c 0,37,38
 689 898 689 898 658 913.5 c 128,-1,39
 627 929 627 929 570 929 c 2,40,-1
 481 929 l 1,41,-1
 481 765 l 1,34,-1
EndSplineSet
EndChar

